<?xml version="1.0" encoding="utf-8"?>
<!-- Generator: Adobe Illustrator 25.2.1, SVG Export Plug-In . SVG Version: 6.00 Build 0)  -->
<svg version="1.0" id="Layer_1" xmlns="http://www.w3.org/2000/svg" xmlns:xlink="http://www.w3.org/1999/xlink" x="0px" y="0px"
	 viewBox="0 0 48 48" enable-background="new 0 0 48 48" xml:space="preserve">
<g>
	<rect fill="none" width="48" height="48"/>
	<path fill="currentColor" d="M22.7,22.1v7.6h2.5v-7.6h6.3L24,14.5l-7.6,7.6H22.7z"/>
</g>
<path fill="currentColor" d="M24,4c-11,0-20,9-20,20s8.9,20,20,20c11.1,0,20-9,20-20S35,4,24,4z M24,40c-8.8,0-16-7.2-16-16S15.2,8,24,8s16,7.2,16,16
	S32.8,40,24,40z"/>
<rect fill="currentColor" x="22" y="21.8" width="4" height="12"/>
</svg>
