<?xml version="1.0" encoding="utf-8"?>
<!-- Generator: Adobe Illustrator 25.2.1, SVG Export Plug-In . SVG Version: 6.00 Build 0)  -->
<svg fill="currentColor" version="1.0" id="Layer_1" xmlns="http://www.w3.org/2000/svg" xmlns:xlink="http://www.w3.org/1999/xlink" x="0px" y="0px"
	 viewBox="0 0 48 48" enable-background="new 0 0 48 48" xml:space="preserve">
<path fill="none" d="M0,0h48v48H0V0z"/>
<g>
	<path d="M22.1,24.2"/>
	<path fill="none" stroke-width="0.75" d="M22.1,24.2"/>
</g>
<g>
	<path d="M22.1,24.2"/>
	<path fill="none" stroke-width="0.75" d="M22.1,24.2"/>
</g>
<g>
	<path d="M22.1,24.2"/>
	<path stroke-width="0.75" d="M22.1,24.2"/>
</g>
<path d="M21.4,14.8h0.9c5.2,0,8.2,5,8.2,8.3c0,0.7-0.2,1.2-0.9,1.2c-1.6,0-1-2.5-2.3-4.6c-0.6-1.1-2.6-3-4.8-2.9h-0.8
	c-1.2,0-3.4,0.7-5,2.9c-1.9,2.7-0.6,4.7-2.2,4.7c-0.2,0-0.9-0.1-0.9-1.2C13.6,18.1,18.4,14.8,21.4,14.8L21.4,14.8z"/>
<path d="M22.1,43.3c2,0,3.5-2,3.5-3.3v-2.8c0-5.8,6.1-8.1,6.1-13.9c0-5.4-4.9-9.5-9.5-9.5c-3.9,0-6.5,2.5-7.5,3.8
	c-3,3.7-1.3,7.2-3.4,7.2c-0.6,0-1.2-0.3-1.2-1.5c-0.1-5.8,4.7-11.9,12.2-11.9c6,0,12,4.8,12,12.2c0,6.8-6,8.3-6,14.3v2.6
	c0,2.6-2.4,5.7-6.2,5.7c-0.1,0-0.3-0.1-0.5-0.1c-0.7-0.2-1.2-1-1-1.7C20.6,43.6,21.2,43.4,22.1,43.3L22.1,43.3L22.1,43.3z"/>
<g>
	<polygon points="17.1,33.3 15.5,34.9 11.4,30.7 12.9,29.2 	"/>
	<polygon fill="none" stroke-width="0.75" points="17.1,33.3 15.5,34.9 11.4,30.7 12.9,29.2 	"/>
</g>
<g>
	<path d="M17,28.1c0-0.7,0.5-1.2,1.2-1.2s1.2,0.6,1.2,1.2c0,0.7-0.5,1.2-1.2,1.2C17.5,29.3,17,28.7,17,28.1L17,28.1z"/>
	<path fill="none" stroke-width="0.75" d="M17,28.1c0-0.7,0.5-1.2,1.2-1.2s1.2,0.6,1.2,1.2c0,0.7-0.5,1.2-1.2,1.2
		C17.5,29.3,17,28.7,17,28.1L17,28.1z"/>
</g>
<g>
	<path d="M20.8,24.2c0-0.7,0.5-1.2,1.2-1.2s1.2,0.5,1.2,1.2c0,0.6-0.6,1.2-1.2,1.2C21.4,25.4,20.9,24.8,20.8,24.2L20.8,24.2z"/>
	<path fill="none" stroke-width="0.75" d="M20.8,24.2c0-0.7,0.5-1.2,1.2-1.2s1.2,0.5,1.2,1.2
		c0,0.6-0.6,1.2-1.2,1.2C21.4,25.4,20.9,24.8,20.8,24.2L20.8,24.2z"/>
</g>
<g>
	<path d="M5.1,39.9c0-0.6,0.5-1.2,1.2-1.2s1.2,0.5,1.2,1.2S7,41.1,6.3,41.1C5.7,41.1,5.1,40.6,5.1,39.9L5.1,39.9z"/>
	<path fill="none" stroke-width="0.75" d="M5.1,39.9c0-0.6,0.5-1.2,1.2-1.2s1.2,0.5,1.2,1.2S7,41.1,6.3,41.1
		C5.7,41.1,5.1,40.6,5.1,39.9L5.1,39.9z"/>
</g>
<g>
	<path d="M9,36c0-0.7,0.5-1.2,1.2-1.2c0.6,0,1.2,0.5,1.2,1.2s-0.5,1.2-1.2,1.2C9.6,37.2,9,36.7,9,36L9,36z"/>
	<path stroke-width="0.75" d="M9,36c0-0.7,0.5-1.2,1.2-1.2c0.6,0,1.2,0.5,1.2,1.2s-0.5,1.2-1.2,1.2
		C9.6,37.2,9,36.7,9,36L9,36z"/>
</g>
<g>
	<path fill-rule="evenodd" clip-rule="evenodd" d="M25.6,8.9c5.2,1.3,9.3,5.2,10.9,10.2l1.9-0.6C36.6,12.9,32,8.5,26.2,7L25.6,8.9
		L25.6,8.9z"/>
	<path fill="none" stroke-width="0.75" stroke-linecap="square" stroke-linejoin="round" d="M25.6,8.9
		c5.2,1.3,9.3,5.2,10.9,10.2l1.9-0.6C36.6,12.9,32,8.5,26.2,7L25.6,8.9L25.6,8.9z"/>
</g>
<g>
	<path fill-rule="evenodd" clip-rule="evenodd" d="M27.1,4.6l0.5-2c7.2,1.8,13,7.2,15.3,14.3l-2,0.7C38.8,11.2,33.6,6.2,27.1,4.6
		L27.1,4.6z"/>
	<path fill="none" stroke-width="0.75" stroke-linecap="square" stroke-linejoin="round" d="M27.1,4.6l0.5-2
		c7.2,1.8,13,7.2,15.3,14.3l-2,0.7C38.8,11.2,33.6,6.2,27.1,4.6L27.1,4.6z"/>
</g>
</svg>
