<?xml version="1.0" encoding="utf-8"?>
<!-- Generator: Adobe Illustrator 25.2.1, SVG Export Plug-In . SVG Version: 6.00 Build 0)  -->
<svg fill="currentColor" version="1.0" id="Layer_1" xmlns="http://www.w3.org/2000/svg" xmlns:xlink="http://www.w3.org/1999/xlink" x="0px" y="0px"
	 viewBox="0 0 48 48" enable-background="new 0 0 48 48" xml:space="preserve">
<path fill="none" d="M0,0h48v48H0V0z"/>
<path d="M28,4H12C9.8,4,8,5.8,8,8v32c0,2.2,1.8,4,4,4h24c2.2,0,4-1.8,4-4V16L28,4z M36,40H12V8h14v10h10V40z"/>
<g>
	<g>
		<path d="M27.9,25.5c-0.3-0.3-0.8-0.3-1.1,0c-0.3,0.3-0.3,0.8,0,1.1c0.5,0.5,0.8,1.2,0.8,1.9c0,0.7-0.3,1.4-0.8,1.9
			c-0.3,0.3-0.3,0.8,0,1.1c0.2,0.2,0.4,0.2,0.6,0.2s0.4-0.1,0.6-0.2c0.8-0.8,1.3-1.9,1.3-3C29.2,27.4,28.7,26.3,27.9,25.5z"/>
		<path d="M29.7,23.3c-0.3-0.3-0.8-0.3-1.1,0.1c-0.3,0.3-0.3,0.8,0.1,1.1c1.2,1,1.8,2.5,1.8,4.1s-0.7,3-1.8,4.1
			c-0.3,0.3-0.4,0.8-0.1,1.1c0.2,0.2,0.4,0.3,0.6,0.3s0.4-0.1,0.5-0.2c1.5-1.3,2.3-3.2,2.3-5.3C32.1,26.5,31.2,24.6,29.7,23.3z"/>
		<path d="M24.2,22.3l-4.7,3.5h-2.8c-0.3,0-0.5,0.2-0.5,0.5v4.4c0,0.3,0.2,0.5,0.5,0.5h2.8l4.7,3.6c0.3,0.2,0.8,0,0.8-0.4V22.7
			C25,22.3,24.5,22.1,24.2,22.3z"/>
	</g>
</g>
</svg>
