<?xml version="1.0" encoding="utf-8"?>
<!-- Generator: Adobe Illustrator 25.2.1, SVG Export Plug-In . SVG Version: 6.00 Build 0)  -->
<svg fill="currentColor" version="1.0" id="Layer_1" xmlns="http://www.w3.org/2000/svg" xmlns:xlink="http://www.w3.org/1999/xlink" x="0px" y="0px"
	 viewBox="0 0 48 48" enable-background="new 0 0 48 48" xml:space="preserve">
<path fill="none" d="M0,0h48v48H0V0z"/>
<path d="M14,22h4v4h-4V22z M42,12v28c0,2.2-1.8,4-4,4H10c-2.2,0-4-1.8-4-4l0-28c0-2.2,1.8-4,4-4h2V4h4v4h16V4h4v4h2
	C40.2,8,42,9.8,42,12z M10,16h28v-4H10V16z M38,40V20H10v20H38z M30,26h4v-4h-4V26z M22,26h4v-4h-4V26z M14,28.2h4v4h-4V28.2z
	 M30,32.2h4v-4h-4V32.2z M22,32.2h4v-4h-4V32.2z M14,34.3h4v4h-4V34.3z M30,38.3h4v-4h-4V38.3z M22,38.3h4v-4h-4V38.3z"/>
</svg>
