<?xml version="1.0" encoding="utf-8"?>
<!-- Generator: Adobe Illustrator 25.2.1, SVG Export Plug-In . SVG Version: 6.00 Build 0)  -->
<svg fill="currentColor" version="1.0" id="Layer_1" xmlns="http://www.w3.org/2000/svg" xmlns:xlink="http://www.w3.org/1999/xlink" x="0px" y="0px"
	 viewBox="0 0 48 48" enable-background="new 0 0 48 48" xml:space="preserve">
<path fill="none" d="M0,0h48v48H0V0z"/>
<path fill-rule="evenodd" clip-rule="evenodd" d="M40.3,25.5V21h-3v4.6h-4.6v3h4.6v4.6h3v-4.6h4.6v-3h-4.6V25.5z"/>
<rect x="3.2" y="25.5" fill-rule="evenodd" clip-rule="evenodd" width="11.2" height="3"/>
<path d="M38.2,7.2h-5h-7h-4.6h-7.2H9.3c-0.4,0-0.6,0.3-0.6,0.6v3v4c0,0.4,0.3,0.6,0.6,0.6H10c0.3,0,0.6-0.3,0.7-0.6
	c0.2-1.1,0.8-4.1,3.7-4h5.9c0.4,0,0.6,0.3,0.6,0.6V12v5.1v19.6c0,0.8-0.6,1.4-1.4,1.4L17,38.6V39v0.1v0.3v0.7c0,0.4,0.3,0.6,0.6,0.6
	h12.3c0.4,0,0.6-0.3,0.6-0.6v-0.4v-1L28,38.2c-0.8,0-1.4-0.6-1.4-1.4V17.2v-5.1v-0.6c0-0.4,0.3-0.6,0.6-0.6h6c2.9-0.1,3.6,3,3.7,4
	c0,0.3,0.3,0.6,0.7,0.6h0.7c0.4,0,0.6-0.3,0.6-0.6v-4V7.8C38.8,7.5,38.6,7.1,38.2,7.2z"/>
</svg>
