<?xml version="1.0" encoding="utf-8"?>
<!-- Generator: Adobe Illustrator 25.2.1, SVG Export Plug-In . SVG Version: 6.00 Build 0)  -->
<svg fill="currentColor"  version="1.0" id="Layer_1" xmlns="http://www.w3.org/2000/svg" xmlns:xlink="http://www.w3.org/1999/xlink" x="0px" y="0px"
	 viewBox="0 0 48 48" enable-background="new 0 0 48 48" xml:space="preserve">
<path fill="none" d="M0,0h48v48H0V0z"/>
<path fill-rule="evenodd" clip-rule="evenodd" d="M37.52,39.95H10.35c-1.3,0-2.43-1.04-2.43-2.43V10.35c0-1.3,1.04-2.43,2.43-2.43
	h27.17c1.3,0,2.43,1.04,2.43,2.43v27.17C39.95,38.91,38.82,39.95,37.52,39.95z M20.71,17.11h-2.43v-2.43c0-0.69-0.52-1.22-1.22-1.22
	s-1.22,0.52-1.22,1.22v2.43h-2.43c-0.69,0-1.22,0.52-1.22,1.22s0.52,1.22,1.22,1.22h2.43v2.43c0,0.69,0.52,1.22,1.22,1.22
	s1.22-0.52,1.22-1.22v-2.43h2.43c0.69,0,1.22-0.52,1.22-1.22C21.83,17.63,21.31,17.11,20.71,17.11z M38,12.43L10.43,35.96
	c0.17,0.17,27.56,0.07,27.56,0.05C37.99,36,38.04,12.75,38,12.43z M32.56,30.41h-7.21c-0.69,0-1.22-0.52-1.22-1.22
	s0.52-1.22,1.22-1.22h7.21c0.69,0,1.22,0.52,1.22,1.22S33.25,30.41,32.56,30.41z"/>
<path d="M38,8H10c-2.22,0-4,1.8-4,4v24c0,2.2,1.78,4,4,4h28c2.2,0,4-1.8,4-4V12C42,9.8,40.2,8,38,8z M38,36H10V12h28V36z"/>
</svg>
