<?xml version="1.0" encoding="utf-8"?>
<!-- Generator: Adobe Illustrator 25.2.3, SVG Export Plug-In . SVG Version: 6.00 Build 0)  -->
<svg fill="currentColor" version="1.1" id="Layer_1" xmlns="http://www.w3.org/2000/svg" xmlns:xlink="http://www.w3.org/1999/xlink" x="0px" y="0px"
	 viewBox="0 0 48 48" style="enable-background:new 0 0 48 48;" xml:space="preserve">
<style type="text/css">
	.st0{fill:none;stroke:#000000;stroke-width:0.24;}
</style>
<g>
	<g>
		<path d="M31.3,20.4C31.3,20.4,31.3,20.4,31.3,20.4L31.3,20.4c0.9,0,1.5-0.7,1.4-1.4c0-0.8-0.6-1.4-1.4-1.3h-0.1
			c-0.8,0-1.4,0.7-1.3,1.4C29.9,19.8,30.6,20.4,31.3,20.4z"/>
		<path d="M27.4,21.2c0.2,0,0.3,0,0.5-0.1l0.1,0c0.7-0.2,1.1-1.1,0.8-1.8c-0.2-0.7-1.1-1.1-1.8-0.8c0,0-0.1,0-0.1,0
			c-0.7,0.3-1.1,1.1-0.8,1.8C26.3,20.9,26.8,21.2,27.4,21.2z"/>
		<path d="M24.9,23L24.9,23c0.7-0.6,0.7-1.5,0.2-2c-0.3-0.3-0.7-0.5-1.2-0.5c-0.4,0-0.9,0.1-1.2,0.5c-0.5,0.6-0.4,1.4,0.1,1.9
			l0.1,0.1c0.2,0.2,0.6,0.3,0.9,0.3h0h0C24.3,23.3,24.6,23.2,24.9,23z"/>
		<path d="M22.2,23.8c-0.7-0.3-1.5-0.1-1.9,0.6l0,0c-0.3,0.7-0.1,1.5,0.6,1.9c0.2,0.1,0.4,0.2,0.7,0.2c0.5,0,1-0.2,1.2-0.7l0,0
			C23.1,25,22.8,24.1,22.2,23.8z"/>
		<path d="M20.1,39.7c0,0-0.1,0-0.1,0c-0.7,0.3-1.1,1.1-0.8,1.8c0.2,0.5,0.7,0.9,1.3,0.9c0.2,0,0.3,0,0.5-0.1c0,0,0.1,0,0.1,0
			c0.7-0.3,1.1-1.1,0.7-1.8C21.6,39.8,20.8,39.5,20.1,39.7z"/>
		<path d="M16.8,40.5h-0.1c-0.8,0-1.3,0.7-1.3,1.4c0,0.7,0.7,1.3,1.4,1.3c0,0,0,0,0.1,0H17c0.8,0,1.3-0.7,1.3-1.5
			C18.2,41,17.6,40.5,16.8,40.5z"/>
		<path d="M13.4,40.1c0,0-0.1,0-0.1,0c-0.7-0.2-1.5,0.2-1.7,0.9c-0.2,0.7,0.2,1.5,0.9,1.7c0,0,0.1,0,0.1,0c0.1,0,0.2,0,0.4,0
			c0.6,0,1.2-0.4,1.3-1C14.6,41.1,14.2,40.4,13.4,40.1z"/>
		<path d="M8,36.2C8,36.2,8,36.1,8,36.2c-0.5-0.7-1.4-0.9-2-0.4c-0.6,0.4-0.8,1.3-0.3,1.9c0,0,0,0.1,0.1,0.1
			c0.2,0.4,0.7,0.6,1.1,0.6c0.2,0,0.6-0.1,0.8-0.2C8.3,37.8,8.4,36.9,8,36.2z"/>
		<path d="M10.4,38.7C10.4,38.6,10.3,38.6,10.4,38.7c-0.7-0.5-1.6-0.4-2.1,0.2c-0.4,0.6-0.3,1.5,0.3,1.9c0,0,0.1,0,0.1,0.1
			c0.2,0.2,0.5,0.2,0.8,0.2c0.4,0,0.9-0.2,1.1-0.6C11.2,40,11,39.1,10.4,38.7z"/>
		<path d="M5.7,27.4c0.2,0.1,0.4,0.2,0.7,0.2c0.5,0,1-0.2,1.2-0.7l0-0.1C8,26.1,7.8,25.3,7,24.9c-0.7-0.4-1.5-0.2-1.9,0.5L5,25.5
			C4.7,26.2,5,27,5.7,27.4z"/>
		<path d="M27.7,31c-0.7-0.1-1.5,0.4-1.6,1.1v0.1c-0.1,0.7,0.4,1.5,1.1,1.6c0.1,0,0.2,0,0.2,0c0.6,0,1.2-0.5,1.3-1.1l0-0.1
			C29,31.8,28.5,31.1,27.7,31z"/>
		<path d="M8.6,24.5c0.4,0,0.8-0.2,1.1-0.5l0.1-0.1c0.5-0.6,0.5-1.4-0.1-1.9c-0.6-0.5-1.4-0.5-1.9,0.1l-0.1,0.1
			c-0.5,0.6-0.4,1.4,0.1,1.9C7.9,24.3,8.2,24.5,8.6,24.5z"/>
		<path d="M24.9,38c-0.3-0.3-0.7-0.5-1.1-0.4c-0.4,0-0.8,0.1-1.1,0.4c-0.2,0.2-0.3,0.5-0.3,0.8c0,0.4,0,0.8,0.3,1.1
			c0.2,0.3,0.6,0.5,1.1,0.5h0h0c0.4,0,0.8-0.2,1.1-0.5c0.3-0.4,0.4-0.9,0.2-1.4C25.1,38.4,25,38.2,24.9,38z"/>
		<path d="M4.7,31.2c0.1,0,0.2,0,0.2,0c0.7,0,1.2-0.5,1.3-1.1c0,0,0-0.1,0-0.1c0.1-0.7-0.3-1.5-1.1-1.6c-0.7-0.1-1.5,0.3-1.6,1.1
			c0,0,0,0.1,0,0.2C3.4,30.3,4,31.1,4.7,31.2z"/>
		<path d="M6.5,33.2c0,0,0-0.1,0-0.1c-0.2-0.7-1-1.2-1.7-1c-0.7,0.2-1.2,1-1,1.7c0,0,0,0.1,0,0.2c0.2,0.6,0.7,1,1.3,1
			c0.1,0,0.2,0,0.4,0C6.3,34.8,6.8,34,6.5,33.2z"/>
		<path d="M27.4,36.7c0,0,0-0.1,0.1-0.1c0.3-0.6,0.1-1.5-0.6-1.9c-0.7-0.3-1.5-0.1-1.9,0.6c0,0,0,0.1,0,0.1
			c-0.4,0.6-0.1,1.5,0.5,1.9c0.2,0.1,0.4,0.2,0.7,0.2C26.7,37.5,27.2,37.2,27.4,36.7z"/>
		<path d="M42.5,28.3c-0.7,0.1-1.2,0.9-1.1,1.6c0,0,0,0.1,0,0.1c0.1,0.7,0.7,1.1,1.4,1.1c0.1,0,0.2,0,0.2,0c0.7-0.1,1.2-0.9,1.1-1.6
			c0,0,0-0.1,0-0.2C44,28.7,43.3,28.2,42.5,28.3z"/>
		<path d="M38.2,24c0.2,0.3,0.6,0.5,1.1,0.5c0.3,0,0.7-0.1,0.9-0.3c0.6-0.5,0.6-1.4,0.1-2L40.2,22c-0.5-0.6-1.4-0.6-1.9-0.1
			c-0.6,0.5-0.6,1.4-0.1,1.9L38.2,24z"/>
		<path d="M40.2,26.8l0,0.1c0.2,0.4,0.7,0.7,1.2,0.7c0.2,0,0.5,0,0.7-0.2c0.7-0.4,0.9-1.2,0.5-1.9l-0.1-0.2
			c-0.4-0.6-1.2-0.9-1.9-0.5C40,25.3,39.8,26.1,40.2,26.8z"/>
		<path d="M20.4,33.8c0.7-0.1,1.2-0.9,1.1-1.6v-0.1c-0.1-0.7-0.8-1.2-1.6-1.1c-0.7,0.1-1.2,0.8-1.1,1.6l0,0.1
			c0.1,0.6,0.7,1.1,1.4,1.1C20.2,33.8,20.3,33.8,20.4,33.8z"/>
		<path d="M37.5,38.6C37.4,38.6,37.4,38.6,37.5,38.6c-0.7,0.5-0.9,1.4-0.4,2.1c0.2,0.4,0.7,0.6,1.1,0.6c0.2,0,0.6-0.1,0.8-0.2
			c0,0,0.1,0,0.1-0.1c0.6-0.4,0.7-1.3,0.3-1.9C38.9,38.3,38.1,38.2,37.5,38.6z"/>
		<path d="M34.4,40.1c0,0-0.1,0-0.1,0c-0.7,0.2-1.2,1-1,1.7c0.2,0.6,0.7,1,1.3,1c0.1,0,0.2,0,0.4,0c0,0,0.1,0,0.2,0
			c0.7-0.2,1.2-1,0.9-1.7C35.9,40.3,35.1,39.9,34.4,40.1z"/>
		<path d="M43,32.2c-0.7-0.2-1.5,0.2-1.7,1c0,0,0,0.1,0,0.1c-0.2,0.7,0.2,1.5,1,1.7c0.1,0,0.2,0,0.4,0c0.6,0,1.2-0.4,1.3-1
			c0,0,0-0.1,0-0.2C44.1,33.1,43.7,32.4,43,32.2z"/>
		<path d="M41.8,35.8c-0.6-0.4-1.5-0.2-2,0.3c0,0,0,0.1-0.1,0.1c-0.4,0.6-0.3,1.5,0.3,1.9c0.2,0.2,0.5,0.2,0.8,0.2
			c0.4,0,0.9-0.2,1.1-0.6c0,0,0-0.1,0.1-0.1C42.5,37.1,42.4,36.2,41.8,35.8z"/>
		<path d="M27.7,39.8c0,0-0.1,0-0.1,0c-0.7-0.3-1.5,0-1.8,0.7c-0.3,0.7,0,1.5,0.7,1.8c0,0,0.1,0,0.1,0c0.2,0.1,0.3,0.1,0.5,0.1
			c0.6,0,1.1-0.3,1.3-0.9C28.7,40.9,28.4,40.1,27.7,39.8z"/>
		<path d="M31,40.5h-0.1c-0.8,0-1.4,0.5-1.5,1.3c0,0.8,0.5,1.4,1.3,1.5h0.1c0,0,0,0,0.1,0c0.7,0,1.3-0.6,1.4-1.3
			C32.3,41.2,31.8,40.6,31,40.5z"/>
		<path d="M22.6,35.4C22.6,35.3,22.6,35.3,22.6,35.4c-0.4-0.7-1.2-1-2-0.7c-0.7,0.3-0.9,1.2-0.6,1.9c0.1,0.1,0.1,0.1,0.1,0.1
			c0.2,0.4,0.7,0.7,1.2,0.7c0.2,0,0.5,0,0.7-0.2C22.8,36.9,23,36.1,22.6,35.4z"/>
		<path d="M16.6,17.7L16.6,17.7c-0.9,0-1.5,0.6-1.5,1.3c0,0.8,0.6,1.4,1.3,1.4h0h0c0.7,0,1.3-0.6,1.4-1.3
			C17.9,18.3,17.3,17.7,16.6,17.7z"/>
		<path d="M21.7,20.3c0.3-0.7-0.1-1.5-0.8-1.8l-0.1,0c-0.7-0.2-1.5,0.1-1.8,0.8c-0.2,0.7,0.1,1.5,0.8,1.8l0.1,0
			c0.2,0.1,0.3,0.1,0.5,0.1C21,21.2,21.5,20.9,21.7,20.3z"/>
		<path d="M25,25.7L25,25.7c0.3,0.5,0.8,0.8,1.2,0.8c0.2,0,0.4,0,0.6-0.2c0.7-0.3,0.9-1.2,0.6-1.9l0,0c-0.3-0.7-1.2-0.9-1.9-0.6
			C25,24.1,24.7,25,25,25.7z"/>
		<path d="M37.1,17.8c0-7.2-5.9-13-13.1-13s-13,5.9-13,13s5.8,13.1,13.1,13.1S37.1,25,37.1,17.8z M13.8,17.8
			c0-5.7,4.6-10.3,10.3-10.3s10.3,4.6,10.3,10.3s-4.6,10.3-10.3,10.3S13.8,23.5,13.8,17.8z"/>
	</g>
	<g>
		<path class="st0" d="M31.3,20.4C31.3,20.4,31.3,20.4,31.3,20.4L31.3,20.4c0.9,0,1.5-0.7,1.4-1.4c0-0.8-0.6-1.4-1.4-1.3h-0.1
			c-0.8,0-1.4,0.7-1.3,1.4C29.9,19.8,30.6,20.4,31.3,20.4z"/>
		<path class="st0" d="M27.4,21.2c0.2,0,0.3,0,0.5-0.1l0.1,0c0.7-0.2,1.1-1.1,0.8-1.8c-0.2-0.7-1.1-1.1-1.8-0.8c0,0-0.1,0-0.1,0
			c-0.7,0.3-1.1,1.1-0.8,1.8C26.3,20.9,26.8,21.2,27.4,21.2z"/>
		<path class="st0" d="M24.9,23L24.9,23c0.7-0.6,0.7-1.5,0.2-2c-0.3-0.3-0.7-0.5-1.2-0.5c-0.4,0-0.9,0.1-1.2,0.5
			c-0.5,0.6-0.4,1.4,0.1,1.9l0.1,0.1c0.2,0.2,0.6,0.3,0.9,0.3h0h0C24.3,23.3,24.6,23.2,24.9,23z"/>
		<path class="st0" d="M22.2,23.8c-0.7-0.3-1.5-0.1-1.9,0.6l0,0c-0.3,0.7-0.1,1.5,0.6,1.9c0.2,0.1,0.4,0.2,0.7,0.2
			c0.5,0,1-0.2,1.2-0.7l0,0C23.1,25,22.8,24.1,22.2,23.8z"/>
		<path class="st0" d="M20.1,39.7c0,0-0.1,0-0.1,0c-0.7,0.3-1.1,1.1-0.8,1.8c0.2,0.5,0.7,0.9,1.3,0.9c0.2,0,0.3,0,0.5-0.1
			c0,0,0.1,0,0.1,0c0.7-0.3,1.1-1.1,0.7-1.8C21.6,39.8,20.8,39.5,20.1,39.7z"/>
		<path class="st0" d="M16.8,40.5h-0.1c-0.8,0-1.3,0.7-1.3,1.4c0,0.7,0.7,1.3,1.4,1.3c0,0,0,0,0.1,0H17c0.8,0,1.3-0.7,1.3-1.5
			C18.2,41,17.6,40.5,16.8,40.5z"/>
		<path class="st0" d="M13.4,40.1c0,0-0.1,0-0.1,0c-0.7-0.2-1.5,0.2-1.7,0.9c-0.2,0.7,0.2,1.5,0.9,1.7c0,0,0.1,0,0.1,0
			c0.1,0,0.2,0,0.4,0c0.6,0,1.2-0.4,1.3-1C14.6,41.1,14.2,40.4,13.4,40.1z"/>
		<path class="st0" d="M8,36.2C8,36.2,8,36.1,8,36.2c-0.5-0.7-1.4-0.9-2-0.4c-0.6,0.4-0.8,1.3-0.3,1.9c0,0,0,0.1,0.1,0.1
			c0.2,0.4,0.7,0.6,1.1,0.6c0.2,0,0.6-0.1,0.8-0.2C8.3,37.8,8.4,36.9,8,36.2z"/>
		<path class="st0" d="M10.4,38.7C10.4,38.6,10.3,38.6,10.4,38.7c-0.7-0.5-1.6-0.4-2.1,0.2c-0.4,0.6-0.3,1.5,0.3,1.9
			c0,0,0.1,0,0.1,0.1c0.2,0.2,0.5,0.2,0.8,0.2c0.4,0,0.9-0.2,1.1-0.6C11.2,40,11,39.1,10.4,38.7z"/>
		<path class="st0" d="M5.7,27.4c0.2,0.1,0.4,0.2,0.7,0.2c0.5,0,1-0.2,1.2-0.7l0-0.1C8,26.1,7.8,25.3,7,24.9
			c-0.7-0.4-1.5-0.2-1.9,0.5L5,25.5C4.7,26.2,5,27,5.7,27.4z"/>
		<path class="st0" d="M27.7,31c-0.7-0.1-1.5,0.4-1.6,1.1v0.1c-0.1,0.7,0.4,1.5,1.1,1.6c0.1,0,0.2,0,0.2,0c0.6,0,1.2-0.5,1.3-1.1
			l0-0.1C29,31.8,28.5,31.1,27.7,31z"/>
		<path class="st0" d="M8.6,24.5c0.4,0,0.8-0.2,1.1-0.5l0.1-0.1c0.5-0.6,0.5-1.4-0.1-1.9c-0.6-0.5-1.4-0.5-1.9,0.1l-0.1,0.1
			c-0.5,0.6-0.4,1.4,0.1,1.9C7.9,24.3,8.2,24.5,8.6,24.5z"/>
		<path class="st0" d="M24.9,38c-0.3-0.3-0.7-0.5-1.1-0.4c-0.4,0-0.8,0.1-1.1,0.4c-0.2,0.2-0.3,0.5-0.3,0.8c0,0.4,0,0.8,0.3,1.1
			c0.2,0.3,0.6,0.5,1.1,0.5h0h0c0.4,0,0.8-0.2,1.1-0.5c0.3-0.4,0.4-0.9,0.2-1.4C25.1,38.4,25,38.2,24.9,38z"/>
		<path class="st0" d="M4.7,31.2c0.1,0,0.2,0,0.2,0c0.7,0,1.2-0.5,1.3-1.1c0,0,0-0.1,0-0.1c0.1-0.7-0.3-1.5-1.1-1.6
			c-0.7-0.1-1.5,0.3-1.6,1.1c0,0,0,0.1,0,0.2C3.4,30.3,4,31.1,4.7,31.2z"/>
		<path class="st0" d="M6.5,33.2c0,0,0-0.1,0-0.1c-0.2-0.7-1-1.2-1.7-1c-0.7,0.2-1.2,1-1,1.7c0,0,0,0.1,0,0.2c0.2,0.6,0.7,1,1.3,1
			c0.1,0,0.2,0,0.4,0C6.3,34.8,6.8,34,6.5,33.2z"/>
		<path class="st0" d="M27.4,36.7c0,0,0-0.1,0.1-0.1c0.3-0.6,0.1-1.5-0.6-1.9c-0.7-0.3-1.5-0.1-1.9,0.6c0,0,0,0.1,0,0.1
			c-0.4,0.6-0.1,1.5,0.5,1.9c0.2,0.1,0.4,0.2,0.7,0.2C26.7,37.5,27.2,37.2,27.4,36.7z"/>
		<path class="st0" d="M42.5,28.3c-0.7,0.1-1.2,0.9-1.1,1.6c0,0,0,0.1,0,0.1c0.1,0.7,0.7,1.1,1.4,1.1c0.1,0,0.2,0,0.2,0
			c0.7-0.1,1.2-0.9,1.1-1.6c0,0,0-0.1,0-0.2C44,28.7,43.3,28.2,42.5,28.3z"/>
		<path class="st0" d="M38.2,24c0.2,0.3,0.6,0.5,1.1,0.5c0.3,0,0.7-0.1,0.9-0.3c0.6-0.5,0.6-1.4,0.1-2L40.2,22
			c-0.5-0.6-1.4-0.6-1.9-0.1c-0.6,0.5-0.6,1.4-0.1,1.9L38.2,24z"/>
		<path class="st0" d="M40.2,26.8l0,0.1c0.2,0.4,0.7,0.7,1.2,0.7c0.2,0,0.5,0,0.7-0.2c0.7-0.4,0.9-1.2,0.5-1.9l-0.1-0.2
			c-0.4-0.6-1.2-0.9-1.9-0.5C40,25.3,39.8,26.1,40.2,26.8z"/>
		<path class="st0" d="M20.4,33.8c0.7-0.1,1.2-0.9,1.1-1.6v-0.1c-0.1-0.7-0.8-1.2-1.6-1.1c-0.7,0.1-1.2,0.8-1.1,1.6l0,0.1
			c0.1,0.6,0.7,1.1,1.4,1.1C20.2,33.8,20.3,33.8,20.4,33.8z"/>
		<path class="st0" d="M37.5,38.6C37.4,38.6,37.4,38.6,37.5,38.6c-0.7,0.5-0.9,1.4-0.4,2.1c0.2,0.4,0.7,0.6,1.1,0.6
			c0.2,0,0.6-0.1,0.8-0.2c0,0,0.1,0,0.1-0.1c0.6-0.4,0.7-1.3,0.3-1.9C38.9,38.3,38.1,38.2,37.5,38.6z"/>
		<path class="st0" d="M34.4,40.1c0,0-0.1,0-0.1,0c-0.7,0.2-1.2,1-1,1.7c0.2,0.6,0.7,1,1.3,1c0.1,0,0.2,0,0.4,0c0,0,0.1,0,0.2,0
			c0.7-0.2,1.2-1,0.9-1.7C35.9,40.3,35.1,39.9,34.4,40.1z"/>
		<path class="st0" d="M43,32.2c-0.7-0.2-1.5,0.2-1.7,1c0,0,0,0.1,0,0.1c-0.2,0.7,0.2,1.5,1,1.7c0.1,0,0.2,0,0.4,0
			c0.6,0,1.2-0.4,1.3-1c0,0,0-0.1,0-0.2C44.1,33.1,43.7,32.4,43,32.2z"/>
		<path class="st0" d="M41.8,35.8c-0.6-0.4-1.5-0.2-2,0.3c0,0,0,0.1-0.1,0.1c-0.4,0.6-0.3,1.5,0.3,1.9c0.2,0.2,0.5,0.2,0.8,0.2
			c0.4,0,0.9-0.2,1.1-0.6c0,0,0-0.1,0.1-0.1C42.5,37.1,42.4,36.2,41.8,35.8z"/>
		<path class="st0" d="M27.7,39.8c0,0-0.1,0-0.1,0c-0.7-0.3-1.5,0-1.8,0.7c-0.3,0.7,0,1.5,0.7,1.8c0,0,0.1,0,0.1,0
			c0.2,0.1,0.3,0.1,0.5,0.1c0.6,0,1.1-0.3,1.3-0.9C28.7,40.9,28.4,40.1,27.7,39.8z"/>
		<path class="st0" d="M31,40.5h-0.1c-0.8,0-1.4,0.5-1.5,1.3c0,0.8,0.5,1.4,1.3,1.5h0.1c0,0,0,0,0.1,0c0.7,0,1.3-0.6,1.4-1.3
			C32.3,41.2,31.8,40.6,31,40.5z"/>
		<path class="st0" d="M22.6,35.4C22.6,35.3,22.6,35.3,22.6,35.4c-0.4-0.7-1.2-1-2-0.7c-0.7,0.3-0.9,1.2-0.6,1.9
			c0.1,0.1,0.1,0.1,0.1,0.1c0.2,0.4,0.7,0.7,1.2,0.7c0.2,0,0.5,0,0.7-0.2C22.8,36.9,23,36.1,22.6,35.4z"/>
		<path class="st0" d="M16.6,17.7L16.6,17.7c-0.9,0-1.5,0.6-1.5,1.3c0,0.8,0.6,1.4,1.3,1.4h0h0c0.7,0,1.3-0.6,1.4-1.3
			C17.9,18.3,17.3,17.7,16.6,17.7z"/>
		<path class="st0" d="M21.7,20.3c0.3-0.7-0.1-1.5-0.8-1.8l-0.1,0c-0.7-0.2-1.5,0.1-1.8,0.8c-0.2,0.7,0.1,1.5,0.8,1.8l0.1,0
			c0.2,0.1,0.3,0.1,0.5,0.1C21,21.2,21.5,20.9,21.7,20.3z"/>
		<path class="st0" d="M25,25.7L25,25.7c0.3,0.5,0.8,0.8,1.2,0.8c0.2,0,0.4,0,0.6-0.2c0.7-0.3,0.9-1.2,0.6-1.9l0,0
			c-0.3-0.7-1.2-0.9-1.9-0.6C25,24.1,24.7,25,25,25.7z"/>
		<path class="st0" d="M37.1,17.8c0-7.2-5.9-13-13.1-13s-13,5.9-13,13s5.8,13.1,13.1,13.1S37.1,25,37.1,17.8z M13.8,17.8
			c0-5.7,4.6-10.3,10.3-10.3s10.3,4.6,10.3,10.3s-4.6,10.3-10.3,10.3S13.8,23.5,13.8,17.8z"/>
	</g>
</g>
</svg>
