<?xml version="1.0" encoding="utf-8"?>
<!-- Generator: Adobe Illustrator 25.2.1, SVG Export Plug-In . SVG Version: 6.00 Build 0)  -->
<svg fill="currentColor" version="1.0" id="Layer_1" xmlns="http://www.w3.org/2000/svg" xmlns:xlink="http://www.w3.org/1999/xlink" x="0px" y="0px"
	 viewBox="0 0 48 48" enable-background="new 0 0 48 48" xml:space="preserve">
<path fill="none" d="M0,0h48v48H0V0z"/>
<path d="M33.6,7c0.4,0,4.7,4,5.1,4.3c0.3,0.3,5.2,4,5.2,4.5v24.6c0,0.5-0.2,0.8-0.5,1.2c-0.3,0.3-0.7,0.5-1.2,0.5H15.6
	c-0.4,0-0.8-0.2-1.2-0.5c-0.3-0.3-0.5-0.7-0.5-1.2v-5.8H5.6c-0.4,0-0.8-0.2-1.2-0.5c-0.3-0.3-0.5-0.7-0.5-1.2V16.2
	c0-0.4,0.2-0.8,0.5-1.2c0.3-0.3,0.7-0.5,1.2-0.5h8.3V8.7c0-0.5,0.2-0.8,0.5-1.2C14.7,7.2,15.1,7,15.6,7 M13.9,26.6l2.4,4.4h3.6
	L16,24.6l3.9-6.3h-3.4l-2.2,4l-0.1,0.1L14,22.6c-0.3-0.7-0.7-1.4-1.1-2.1c-0.3-0.7-0.7-1.4-1.1-2.1H8.2l3.8,6.4l-4.1,6.4h3.6
	 M27.7,39.5v-5H16.4v5 M27.7,32v-6.2h-3.8V32 M27.7,23.3V17h-3.8v6.3 M27.7,14.5v-5H16.4v5 M41.4,39.5v-5H30.2v5 M41.4,32v-6.2H30.2
	V32 M41.4,23.3V17H30.2v6.3 M41.4,14.5l-6.4-5l-4.8,0v5H41.4z"/>
<path d="M12.8,15l4,0.3V7.8h14.9V17h9.1v22.9h-24v-7l-4,0.6v6.3c0,2.2,1.8,4,4,4h24c2.2,0,4-1.8,4-4v-24l-12-12h-16
	c-2.2,0-4,1.8-4,4v7L12.8,15z"/>
</svg>
