<?xml version="1.0" encoding="utf-8"?>
<!-- Generator: Adobe Illustrator 25.2.1, SVG Export Plug-In . SVG Version: 6.00 Build 0)  -->
<svg fill="currentColor" version="1.0" id="Layer_1" xmlns="http://www.w3.org/2000/svg" xmlns:xlink="http://www.w3.org/1999/xlink" x="0px" y="0px"
	 viewBox="0 0 48 48" enable-background="new 0 0 48 48" xml:space="preserve">
<path fill="none" d="M0,0h48v48H0V0z"/>
<path d="M24.1,3.8c-11,0-20,9-20,20c0,10,7.3,18.3,16.9,19.8v-14h-5.1v-5.8H21v-4.4c0-5,3-7.8,7.6-7.8c2.2,0,4.5,0.4,4.5,0.4v5h-2.5
	c-2.5,0-3.3,1.5-3.3,3.1v3.8h5.6L32,29.7h-4.7v14c9.7-1.5,16.9-9.9,16.9-19.8C44.1,12.8,35.1,3.8,24.1,3.8z"/>
</svg>
