<?xml version="1.0" encoding="utf-8"?>
<!-- Generator: Adobe Illustrator 25.2.1, SVG Export Plug-In . SVG Version: 6.00 Build 0)  -->
<svg fill="currentColor" version="1.0" id="Layer_1" xmlns="http://www.w3.org/2000/svg" xmlns:xlink="http://www.w3.org/1999/xlink" x="0px" y="0px"
	 viewBox="0 0 48 48" enable-background="new 0 0 48 48" xml:space="preserve">
<path fill="none" d="M0,0h48v48H0V0z"/>
<path d="M28,4H12C9.8,4,8,5.8,8,8v32c0,2.2,1.8,4,4,4h24c2.2,0,4-1.8,4-4V16L28,4z M36,40H12V8h14v10h10V40z"/>
<path d="M43.3,36.1H4.6V21.5h38.7V36.1z M13.5,24.7V33h2.4v-8.3H13.5z M23,30.3c-0.1,0.5-0.4,1.2-1.3,1.2c-1.3,0-1.6-1.3-1.6-2.6
	c0-1.4,0.4-2.6,1.6-2.6c0.9,0,1.2,0.5,1.3,1.1h2.4c-0.2-1.4-1.3-2.8-3.7-2.8c-2.8,0-4.1,2-4.1,4.3c0,2.4,1.3,4.2,4,4.2
	c2.3,0,3.5-1.1,3.8-2.9L23,30.3L23,30.3z M26.5,30.5c0.2,1.6,1.4,2.7,3.7,2.7c2.4,0,3.6-1.1,3.6-2.6c0-1.2-0.5-2.1-3.1-2.7
	c-1.3-0.3-1.6-0.5-1.6-0.9s0.3-0.7,0.9-0.7c0.9,0,1.1,0.5,1.2,0.9h2.3c-0.1-1.3-1.1-2.5-3.5-2.5c-2.3,0-3.3,1.2-3.3,2.5
	c0,1.1,0.5,2,2.9,2.6c1.3,0.3,1.7,0.5,1.7,1.1c0,0.5-0.3,0.7-1.1,0.7c-0.8,0-1.3-0.3-1.4-1h-2.3V30.5z"/>
</svg>
