<?xml version="1.0" encoding="utf-8"?>
<!-- Generator: Adobe Illustrator 25.2.1, SVG Export Plug-In . SVG Version: 6.00 Build 0)  -->
<svg fill="currentColor" version="1.0" id="Layer_1" xmlns="http://www.w3.org/2000/svg" xmlns:xlink="http://www.w3.org/1999/xlink" x="0px" y="0px"
	 viewBox="0 0 48 48" enable-background="new 0 0 48 48" xml:space="preserve">
<path fill="none" d="M0,0h48v48H0V0z"/>
<path d="M15.8,4.2h16.8c6.4,0,11.6,5.2,11.6,11.6v16.8c0,6.4-5.2,11.6-11.6,11.6H15.8C9.4,44.2,4.2,39,4.2,32.6V15.8
	C4.2,9.4,9.4,4.2,15.8,4.2 M15.4,8.2c-4,0-7.2,3.2-7.2,7.2l0,0V33c0,4,3.2,7.2,7.2,7.2H33c4,0,7.2-3.2,7.2-7.2l0,0V15.4
	c0-4-3.2-7.2-7.2-7.2H15.4 M34.7,11.2c1.4,0,2.5,1.1,2.5,2.5s-1.1,2.5-2.5,2.5s-2.5-1.1-2.5-2.5S33.3,11.2,34.7,11.2 M24.2,14.2
	c5.5,0,10,4.5,10,10s-4.5,10-10,10s-10-4.5-10-10S18.6,14.2,24.2,14.2 M24.2,18.2c-3.3,0-6,2.7-6,6s2.7,6,6,6s6-2.7,6-6
	S27.5,18.2,24.2,18.2z"/>
</svg>
