<?xml version="1.0" encoding="utf-8"?>
<!-- Generator: Adobe Illustrator 25.2.1, SVG Export Plug-In . SVG Version: 6.00 Build 0)  -->
<svg fill="currentColor" version="1.0" id="Layer_1" xmlns="http://www.w3.org/2000/svg" xmlns:xlink="http://www.w3.org/1999/xlink" x="0px" y="0px"
	 viewBox="0 0 48 48" enable-background="new 0 0 48 48" xml:space="preserve">
<path fill="none" d="M0,0h48v48H0V0z"/>
<g>
	<path d="M15.3,33.5c0.8,0.4,1.6,0.8,2.4,1.1l2.4-2.4c-0.8-0.4-1.5-0.8-2.2-1.4L15.3,33.5z"/>
	<path d="M15,26.6l-4.1,4c0.7,0.5,1.4,1,2.1,1.5l3.2-3.2C15.7,28.2,15.3,27.4,15,26.6z"/>
	<path d="M14.4,23.3c0-1.6,0.4-3.1,1.1-4.4l-8.4,8.4c0.6,0.5,1.2,1.1,1.8,1.7l5.5-5.5C14.4,23.4,14.4,23.4,14.4,23.3z"/>
	<path d="M23.1,33l-2.4,2.4c1,0.2,2.1,0.4,3.1,0.4l3.2-3.2c-0.9,0.3-1.8,0.4-2.8,0.4C23.8,33.1,23.4,33,23.1,33z"/>
	<path d="M44.9,23.3c0,0-9.2-12.5-20.6-12.5c-3.4,0-6.5,1.1-9.3,2.6c-0.1,0.1-0.2,0.1-0.3,0.1h-0.1l0,0c-0.9,0.5-1.8,1.1-2.7,1.7
		l-8.1,8.1c0.2,0.3,0.8,1,1.6,1.9l9.5-9.5l1.6,1.6c0.4-0.5,0.8-0.9,1.2-1.3l0.1-0.1c0.1-0.1,0.3-0.2,0.4-0.3c1.6-1.3,3.7-2.1,6-2.1
		c5.4,0,9.7,4.4,9.7,9.7c0,2.3-0.8,4.3-2.1,6c-0.1,0.1-0.2,0.3-0.3,0.4l-0.1,0.1c-0.4,0.4-0.8,0.8-1.3,1.2l1.1,1.1l-3.3,3.3
		c2.1-0.3,4.1-1.2,6-2.3l0,0l0,0c0.2-0.1,0.3-0.2,0.5-0.3c0.1,0,0.1-0.1,0.2-0.1c0.1-0.1,0.2-0.1,0.3-0.2l0,0
		C40.9,28.7,44.9,23.3,44.9,23.3z"/>
	<path d="M27.8,26.9c0.3-0.3,0.5-0.6,0.7-0.9l0,0l0,0c0.5-0.8,0.8-1.7,0.8-2.7c0-2.8-2.3-5.1-5.1-5.1c-1,0-1.9,0.3-2.7,0.8l0,0l0,0
		c-0.3,0.2-0.6,0.4-0.9,0.7l0,0c-0.3,0.3-0.6,0.7-0.8,1.1l0.6,0.6l-1.2,1.2c0,0.3-0.1,0.5-0.1,0.8c0,0.8,0.2,1.6,0.5,2.2l2.5-2.5
		l1.8,1.8l-2.7,2.7c0.8,0.5,1.7,0.8,2.6,0.9l1.8-1.8l1.1,1.1C27.1,27.5,27.5,27.2,27.8,26.9L27.8,26.9z"/>
</g>
<g>
	<rect x="23" y="1.4" transform="matrix(0.7071 -0.7071 0.7071 0.7071 -9.5294 24.055)" width="2.5" height="44.2"/>
</g>
</svg>
