<?xml version="1.0" encoding="utf-8"?>
<!-- Generator: Adobe Illustrator 25.2.1, SVG Export Plug-In . SVG Version: 6.00 Build 0)  -->
<svg fill="currentColor" version="1.0" id="Layer_1" xmlns="http://www.w3.org/2000/svg" xmlns:xlink="http://www.w3.org/1999/xlink" x="0px" y="0px"
	 viewBox="0 0 48 48" enable-background="new 0 0 48 48" xml:space="preserve">
<g>
	<g>
		<g>
			<path d="M43.2,13.1h-4.8V8.4c0-0.9-0.7-1.6-1.6-1.6H5.1c-0.9,0-1.6,0.7-1.6,1.6v25.1c0,0.9,0.7,1.6,1.6,1.6h4.7v4.7
				c0,0.9,0.7,1.6,1.6,1.6h31.8c0.9,0,1.6-0.7,1.6-1.6V14.7C44.8,13.8,44.1,13.1,43.2,13.1z M41.6,34.5l-6.5-7.2
				c-0.7-0.7-1.8-0.7-2.5,0l-2.8,3.1l-6.1-7c-0.7-0.9-2.1-0.9-2.8,0l-7.9,9V16.3h28.6V34.5z M6.7,31.8V10h28.6v3.2H11.4
				c-0.9,0-1.6,0.7-1.6,1.6V32H6.7V31.8z"/>
			<path fill="none" stroke-width="0.66" d="M43.2,13.1h-4.8V8.4c0-0.9-0.7-1.6-1.6-1.6H5.1
				c-0.9,0-1.6,0.7-1.6,1.6v25.1c0,0.9,0.7,1.6,1.6,1.6h4.7v4.7c0,0.9,0.7,1.6,1.6,1.6h31.8c0.9,0,1.6-0.7,1.6-1.6V14.7
				C44.8,13.8,44.1,13.1,43.2,13.1z M41.6,34.5l-6.5-7.2c-0.7-0.7-1.8-0.7-2.5,0l-2.8,3.1l-6.1-7c-0.7-0.9-2.1-0.9-2.8,0l-7.9,9
				V16.3h28.6V34.5z M6.7,31.8V10h28.6v3.2H11.4c-0.9,0-1.6,0.7-1.6,1.6V32H6.7V31.8z"/>
		</g>
		<circle cx="36.4" cy="21.6" r="2.5"/>
	</g>
</g>
</svg>
