<?xml version="1.0" encoding="utf-8"?>
<!-- Generator: Adobe Illustrator 25.2.1, SVG Export Plug-In . SVG Version: 6.00 Build 0)  -->
<svg fill="currentColor" version="1.0" id="Layer_1" xmlns="http://www.w3.org/2000/svg" xmlns:xlink="http://www.w3.org/1999/xlink" x="0px" y="0px"
	 viewBox="0 0 48 48" enable-background="new 0 0 48 48" xml:space="preserve">
<path fill="none" d="M0,0h48v48H0V0z"/>
<path d="M24,4C13,4,4,13,4,24s9,20,20,20s20-9,20-20S35,4,24,4z M24,40c-8.8,0-16-7.2-16-16S15.2,8,24,8s16,7.2,16,16S32.8,40,24,40
	z"/>
<g>
	<path d="M24.1,36.6c1.3,0,2.3-1.1,2.3-2.3h-4.7C21.7,35.5,22.8,36.6,24.1,36.6z M31.1,28.6V22c0-3.6-1.9-6.6-5.3-7.4v-1.3
		c0-1-0.8-1.8-1.8-1.8c-1,0-1.8,0.8-1.8,1.8v1.3C19,15.4,17,18.4,17,22v6.6l-2.3,2.3v0.4h18.7v-0.4L31.1,28.6z M28.7,29h-9.3v-7
		c0-2.9,1.8-5.3,4.7-5.3s4.7,2.4,4.7,5.3V29z"/>
	<path fill="none" stroke-width="1.25" d="M24.1,36.6c1.3,0,2.3-1.1,2.3-2.3h-4.7C21.7,35.5,22.8,36.6,24.1,36.6z
		 M31.1,28.6V22c0-3.6-1.9-6.6-5.3-7.4v-1.3c0-1-0.8-1.8-1.8-1.8c-1,0-1.8,0.8-1.8,1.8v1.3C19,15.4,17,18.4,17,22v6.6l-2.3,2.3v0.4
		h18.7v-0.4L31.1,28.6z M28.7,29h-9.3v-7c0-2.9,1.8-5.3,4.7-5.3s4.7,2.4,4.7,5.3V29z"/>
</g>
</svg>
