<?xml version="1.0" encoding="utf-8"?>
<!-- Generator: Adobe Illustrator 25.2.1, SVG Export Plug-In . SVG Version: 6.00 Build 0)  -->
<svg fill="currentColor" version="1.0" id="Layer_1" xmlns="http://www.w3.org/2000/svg" xmlns:xlink="http://www.w3.org/1999/xlink" x="0px" y="0px"
	 viewBox="0 0 48 48" enable-background="new 0 0 48 48" xml:space="preserve">
<path fill="none" d="M0,0h48v48H0V0z"/>
<path d="M28,4H12C9.8,4,8,5.8,8,8v32c0,2.2,1.8,4,4,4h24c2.2,0,4-1.8,4-4V16L28,4z M36,40H12V8h14v10h10V40z"/>
<g>
	<path d="M22.7,18.3c-1.2,0-2.2,1-2.2,2.2c0,1.5,0.8,3.3,1.7,5.1c-0.7,2.1-1.5,4.4-2.4,6.4c-2,0.8-3.8,1.4-4.9,2.3c0,0,0,0,0,0.1
		c-0.4,0.4-0.6,1-0.6,1.6c0,1.2,1,2.2,2.2,2.2c0.6,0,1.1-0.2,1.6-0.6l0,0c0.8-1,1.7-2.7,2.6-4.3c1.9-0.8,4-1.5,5.9-2
		c1.4,1.2,3.5,1.9,5.2,1.9c1.2,0,2.2-1,2.2-2.2s-1-2.2-2.2-2.2c-1.4,0-3.3,0.5-4.9,1c-1.2-1.2-2.4-2.6-3.2-4.1
		c0.6-1.8,1.3-3.6,1.3-5C24.9,19.3,23.9,18.3,22.7,18.3z M22.7,19.6c0.5,0,0.9,0.4,0.9,0.9c0,0.7-0.4,1.9-0.8,3.2
		c-0.5-1.3-1-2.5-1-3.2C21.9,20,22.2,19.6,22.7,19.6z M23.1,27.1c0.7,1,1.4,2,2.3,2.9c-1.3,0.4-2.6,0.8-3.8,1.3
		C22.2,29.9,22.6,28.5,23.1,27.1z M31.7,29.9c0.5,0,0.9,0.4,0.9,0.9s-0.4,0.9-0.9,0.9c-1,0-2.4-0.4-3.5-1.1
		C29.5,30.2,30.9,29.9,31.7,29.9z M18.6,33.8c-0.6,1.1-1.2,2.1-1.7,2.6c-0.1,0.1-0.3,0.2-0.6,0.2c-0.5,0-0.9-0.4-0.9-0.9
		c0-0.2,0.1-0.5,0.2-0.6C16.3,34.8,17.4,34.3,18.6,33.8z"/>
	<path fill="none" stroke="#000000" stroke-width="0.1" d="M22.7,18.3c-1.2,0-2.2,1-2.2,2.2c0,1.5,0.8,3.3,1.7,5.1
		c-0.7,2.1-1.5,4.4-2.4,6.4c-2,0.8-3.8,1.4-4.9,2.3c0,0,0,0,0,0.1c-0.4,0.4-0.6,1-0.6,1.6c0,1.2,1,2.2,2.2,2.2
		c0.6,0,1.1-0.2,1.6-0.6l0,0c0.8-1,1.7-2.7,2.6-4.3c1.9-0.8,4-1.5,5.9-2c1.4,1.2,3.5,1.9,5.2,1.9c1.2,0,2.2-1,2.2-2.2
		s-1-2.2-2.2-2.2c-1.4,0-3.3,0.5-4.9,1c-1.2-1.2-2.4-2.6-3.2-4.1c0.6-1.8,1.3-3.6,1.3-5C24.9,19.3,23.9,18.3,22.7,18.3z M22.7,19.6
		c0.5,0,0.9,0.4,0.9,0.9c0,0.7-0.4,1.9-0.8,3.2c-0.5-1.3-1-2.5-1-3.2C21.9,20,22.2,19.6,22.7,19.6z M23.1,27.1c0.7,1,1.4,2,2.3,2.9
		c-1.3,0.4-2.6,0.8-3.8,1.3C22.2,29.9,22.6,28.5,23.1,27.1z M31.7,29.9c0.5,0,0.9,0.4,0.9,0.9s-0.4,0.9-0.9,0.9
		c-1,0-2.4-0.4-3.5-1.1C29.5,30.2,30.9,29.9,31.7,29.9z M18.6,33.8c-0.6,1.1-1.2,2.1-1.7,2.6c-0.1,0.1-0.3,0.2-0.6,0.2
		c-0.5,0-0.9-0.4-0.9-0.9c0-0.2,0.1-0.5,0.2-0.6C16.3,34.8,17.4,34.3,18.6,33.8z"/>
</g>
</svg>
