<?xml version="1.0" encoding="utf-8"?>
<!-- Generator: Adobe Illustrator 25.2.3, SVG Export Plug-In . SVG Version: 6.00 Build 0)  -->
<svg fill="currentColor" version="1.0" id="Layer_1" xmlns="http://www.w3.org/2000/svg" xmlns:xlink="http://www.w3.org/1999/xlink" x="0px" y="0px"
	 viewBox="0 0 48 48" enable-background="new 0 0 48 48" xml:space="preserve">
<g>
	<rect fill="none" width="48" height="48"/>
</g>
<g enable-background="new    ">
	<path d="M22.2,18.3c0,3.8-0.8,7.3-2.2,10.4c-1.5,3.1-3.8,5.9-6.8,8.4s-5,3.8-5.8,3.8c-0.5,0-1-0.3-1.3-0.8c-0.4-0.5-0.5-1-0.5-1.4
		l0.2-0.5c6.6-4.2,9.8-9.2,9.8-15.1c0-1.8-0.3-2.8-1-2.8l-0.7,0.2c-0.5,0.2-0.9,0.3-1.2,0.3c-1.9,0-3.4-0.7-4.7-2.1
		c-1.3-1.4-1.9-3.1-1.9-5c0-1.9,0.7-3.6,2-4.9c1.4-1.4,3-2,4.9-2c2.7,0,4.9,1.1,6.6,3.3S22.2,15,22.2,18.3z M43.8,18.3
		c0,3.8-0.8,7.3-2.2,10.4c-1.5,3.1-3.8,5.9-6.8,8.4c-3,2.5-5,3.8-5.8,3.8c-0.5,0-1-0.3-1.4-0.8c-0.4-0.6-0.6-1.1-0.6-1.5
		c0-0.3,0.1-0.4,0.2-0.5c6.6-4.2,9.8-9.2,9.8-15c0-1.8-0.3-2.7-1-2.7l-0.7,0.2c-0.5,0.2-0.9,0.3-1.2,0.3c-1.9,0-3.4-0.7-4.7-2.1
		c-1.3-1.4-1.9-3.1-1.9-5c0-1.9,0.7-3.6,2-4.9s3-2,4.9-2c2.7,0,4.9,1.1,6.6,3.3S43.8,15,43.8,18.3z"/>
</g>
</svg>
