<?xml version="1.0" encoding="utf-8"?>
<!-- Generator: Adobe Illustrator 25.2.3, SVG Export Plug-In . SVG Version: 6.00 Build 0)  -->
<svg fill="currentColor" version="1.0" id="Layer_1" xmlns="http://www.w3.org/2000/svg" xmlns:xlink="http://www.w3.org/1999/xlink" x="0px" y="0px"
	 viewBox="0 0 48 48" enable-background="new 0 0 48 48" xml:space="preserve">
<g>
	<rect fill="none" width="48" height="48"/>
</g>
<g enable-background="new    ">
	<path d="M21.1,9c-6.6,4.2-9.8,9.3-9.8,15.2c0,1.8,0.3,2.8,1,2.8l0.7-0.2c0.5-0.2,0.9-0.3,1.3-0.3c1.9,0,3.5,0.7,4.7,2.1
		c1.3,1.4,1.9,3.1,1.9,5.1c0,1.9-0.7,3.6-2,4.9c-1.4,1.3-3,2-4.9,2c-2.7,0-4.9-1.1-6.6-3.3c-1.7-2.2-2.6-5-2.6-8.3
		c0-3.8,0.7-7.2,2.2-10.3c1.5-3.1,3.7-5.9,6.8-8.5c3-2.5,5-3.8,5.8-3.8c0.6,0,1,0.3,1.4,0.8c0.4,0.5,0.5,1,0.5,1.4L21.1,9z M42.7,9
		c-6.6,4.2-9.8,9.3-9.8,15.2c0,1.8,0.3,2.8,1,2.8l0.7-0.2c0.5-0.2,0.9-0.3,1.3-0.3c1.8,0,3.4,0.7,4.7,2.1c1.3,1.4,1.9,3.1,1.9,5.1
		c0,1.9-0.7,3.6-2,4.9c-1.4,1.3-3,2-4.9,2c-2.7,0-4.9-1.1-6.6-3.3c-1.7-2.2-2.6-5-2.6-8.3c0-3.8,0.8-7.3,2.2-10.4
		c1.5-3.1,3.8-6,6.8-8.4c3-2.5,5-3.7,5.8-3.7c0.6,0,1,0.3,1.4,0.8c0.4,0.5,0.5,1,0.5,1.4L42.7,9z"/>
</g>
</svg>
