<?xml version="1.0" encoding="utf-8"?>
<!-- Generator: Adobe Illustrator 25.2.1, SVG Export Plug-In . SVG Version: 6.00 Build 0)  -->
<svg fill="currentColor" version="1.0" id="Layer_1" xmlns="http://www.w3.org/2000/svg" xmlns:xlink="http://www.w3.org/1999/xlink" x="0px" y="0px"
	 viewBox="0 0 48 48" enable-background="new 0 0 48 48" xml:space="preserve">
<path fill="none" d="M0,0h48v48H0V0z"/>
<path d="M24.2,22.9"/>
<path d="M24.2,22.9"/>
<path d="M24.2,22.9"/>
<path d="M43.1,14.4c-2.3,1.3-3.5,1.9-5.8,1.7c-0.9,0-1.3-0.4-2.2-0.3c-0.8,0-1.2,0.3-2,0.6c-1.2,0.4-1.9,0.7-3.2,1.1
	c-0.8,0.2-1.4,0.2-2.2,0.5c-0.7,0.3-0.4,0.1-0.9,0.7c-0.7,0.7-0.5,1.3-1.1,2.6c-0.8,1.7-0.7,1.9-0.2,2.1c-0.3,0.9-0.4,1.4-0.3,2.3
	c0.1,0.7-0.2,1.2,0.5,1.7c1,0.8,3.2,2.5,3.7,2.6c0.8,0,3.2,0.1,4.4-0.8c0.3-0.2,0.4-0.3,0.1,0.3c-0.1,0.1-3,2.4-3.4,2.4
	c-2.3,0.1-2.7,0.2-2.8,0.2c-0.3-0.1-2-2.2-3.1-1.4c-0.4,0.3-0.6,0.5-0.8,1c0.1,0.3,0.8,0.8,1.4,1.1c0.9,0.6,1,1.2,1.9,1.4
	c1.1,0.2,2.2,0.1,2.9,0.2c0.3,0.1,2.7-0.6,4.1-1.4c1.4-0.7-1.9,1.4-2.7,2.4c-2.4,0.8-1.7,0.8-2.9,1c-1.1,0.2-1,0.2-1.7,0.4
	C26,37,25.4,38,26.1,38.5c0.4,0.4,1.8-0.1,3.1-0.2c0.6,0,2.9-1.1,3.5-1.4c1.3-0.7,2.3-1.7,3.1-2.3c1.1-0.8-1.2,2.1-2.2,3.3
	c-0.3,0.4-0.4,0.5-0.8,1c-0.6,0.8,0.2,1.9,0.5,1.7c0.4-0.2,0.7-1,1.2-1.3c0.2-0.1,0.9-1.1,1.5-1.7c0.4-0.5,0.8-0.7,1.2-1.3
	c0.7-0.9,0.9-1.6,1.5-2.5c0.4-0.5,0.7-0.6,1-1.3c1.9-3.5,1.3-5.1,3.1-7.7c0.5-0.8,1.2-0.9,2-1.4C45.8,17.7,43.1,14.4,43.1,14.4z
	 M34.4,23.8C34,25.3,34,25.5,33.2,26c-1,0.8-1,0.2-3.3,1.4c0,0-0.9-1-2.4-1.4c0,0-0.4-1.9-1.2-2.5c1.9-1.4,1.9-2.7,2.2-2.6
	c0.7,0.1,1.8,0.4,3.8-0.4C33.4,22.7,34.8,22.6,34.4,23.8z"/>
<path d="M23,13c-0.9-0.6-1-1.2-1.9-1.4c-1.1-0.3-2.2-0.1-2.9-0.2c-0.3,0-2.7,0.7-4.1,1.4s1.9-1.3,2.7-2.4c2.4-0.7,1.7-0.8,2.9-1
	c1.1-0.2,1-0.2,1.7-0.4s1.4-1.2,0.7-1.8C21.6,7,20.2,7.5,19,7.5c-0.6,0-2.9,1.1-3.5,1.4c-1.3,0.7-2.3,1.7-3.1,2.2
	c-1.1,0.8,1.2-2,2.2-3.2c0.3-0.4,0.4-0.5,0.8-1C16,6.1,15.2,5,14.9,5.1c-0.4,0.2-0.7,1.1-1.3,1.4c-0.2,0.1-0.8,1.1-1.4,1.7
	c-0.4,0.5-0.8,0.7-1.2,1.3c-0.8,0.9-1,1.5-1.6,2.5c-0.4,0.5-0.7,0.7-1,1.3c-1.9,3.5-1.3,5.1-3.1,7.6c-0.5,0.8-1.2,1-2,1.4
	c-0.8,5.9,1.9,9.2,1.9,9.2c2.3-1.3,3.5-1.8,5.8-1.7c0.9,0.1,1.3,0.4,2.2,0.4c0.8-0.1,1.2-0.4,2-0.6c1.2-0.4,1.9-0.8,3.2-1.1
	c0.9-0.3,1.4-0.3,2.3-0.6c0.7-0.3,0.4,0,0.9-0.6c0.7-0.8,0.5-1.3,1.1-2.6c0.8-1.7,0.7-1.9,0.3-2.1c0.3-0.9,0.4-1.4,0.3-2.3
	c-0.1-0.7,0.2-1.2-0.5-1.7c-1-0.8-3.2-2.6-3.7-2.6c-0.8,0-3.2-0.1-4.4,0.7c-0.3,0.2-0.4,0.4-0.1-0.2c0.1-0.1,3-2.4,3.4-2.5
	c2.1,0,2.7-0.1,2.8-0.2c0.2,0,2,2.2,3.1,1.4c0.4-0.3,0.6-0.5,0.8-1C24.3,13.9,23.6,13.4,23,13z M15,19.9c1-0.7,1-0.2,3.3-1.4
	c0,0,0.9,0.9,2.4,1.4c0,0,0.4,1.9,1.2,2.6c-1.9,1.4-1.9,2.7-2.2,2.6C19,25,18,24.7,16,25.4c-1.2-2.2-2.6-2-2.2-3.3
	C14.2,20.6,14.2,20.5,15,19.9z"/>
</svg>
