<?xml version="1.0" encoding="utf-8"?>
<!-- Generator: Adobe Illustrator 25.2.1, SVG Export Plug-In . SVG Version: 6.00 Build 0)  -->
<svg fill="currentColor" version="1.0" id="Layer_1" xmlns="http://www.w3.org/2000/svg" xmlns:xlink="http://www.w3.org/1999/xlink" x="0px" y="0px"
	 viewBox="0 0 48 48" enable-background="new 0 0 48 48" xml:space="preserve">
<path fill="none" d="M0,0h48v48H0V0z"/>
<g>
	<g>
		<path d="M29.2,27c-0.1,0.1-0.3,0-0.3-0.1v-2.3c0-1,0-2,0-3c-0.4-0.1-0.7-0.2-1-0.3c-3.6-1.1-6.2-4.6-5.9-8.7
			c0.3-3.6,3.3-6.8,7.1-7.3c0.4-0.1,0.8-0.1,1.2-0.1c2.1,0,4.2,0,6.3,0c4.2,0,7.5,2.9,8.2,7c0.7,4.3-2.5,8.6-6.8,9.1
			c-1.2,0.2-2.4,0.1-3.6,0.1c-0.4,0-0.6,0.1-0.8,0.4C32.4,23.4,30.1,26,29.2,27z M41,13.9c0-1-0.8-1.9-1.9-1.9c-1,0-1.8,0.8-1.9,1.8
			c0,1,0.8,1.9,1.8,1.9C40.1,15.7,41,14.9,41,13.9z M27.1,15.7c1,0,1.9-0.8,1.9-1.9c0-1-0.9-1.9-1.9-1.9s-1.8,0.8-1.8,1.8
			C25.2,14.9,26.1,15.7,27.1,15.7z M31.3,13.8c0,1,0.8,1.9,1.9,1.9c1,0,1.9-0.8,1.9-1.9c0-1-0.8-1.8-1.8-1.9
			C32.1,12,31.3,12.8,31.3,13.8z"/>
		<path d="M22.2,19.8H21h-3.3h-4.6H9.7H4.6c-0.4,0-0.6,0.3-0.6,0.6v3v3.3c0,0.4,0.3,0.6,0.6,0.6h0.7c0.3,0,0.6-0.3,0.7-0.6
			c0.2-1.1,0.8-3.4,3.7-3.3h2.2c0.4,0,0.6,0.3,0.6,0.6v0.6v5.1v8.2c0,0.8-0.6,1.4-1.4,1.4H9.3v0.9v0.1v0.3v0.7
			c0,0.4,0.3,0.6,0.6,0.6h10.8c0.4,0,0.6-0.3,0.6-0.6v-0.9v-1h-1.8c-0.8,0-1.4-0.6-1.4-1.4v-8.2v-5.1v-0.6c0-0.4,0.3-0.6,0.6-0.6
			h2.2c2.9-0.1,3.6,2.2,3.7,3.3c0,0.3,0.3,0.6,0.7,0.6H26c0.4,0,0.6-0.3,0.6-0.6v-3.3V23C25,22.4,23.4,21.3,22.2,19.8z"/>
	</g>
</g>
</svg>
