<?xml version="1.0" encoding="utf-8"?>
<!-- Generator: Adobe Illustrator 25.2.1, SVG Export Plug-In . SVG Version: 6.00 Build 0)  -->
<svg fill="currentColor" version="1.0" id="Layer_1" xmlns="http://www.w3.org/2000/svg" xmlns:xlink="http://www.w3.org/1999/xlink" x="0px" y="0px"
	 viewBox="0 0 48 48" enable-background="new 0 0 48 48" xml:space="preserve">
<g>
	<path d="M39.4,7.4c-0.2-0.2-0.5-0.2-0.7-0.1c-2,0.9-4,0.2-5.2-1.3c-0.5-0.7-0.9-1.6-0.9-2.5c0-0.2-0.1-0.4-0.2-0.5
		c-0.2-0.2-0.3-0.2-0.5-0.2h-8c-0.5,0-0.8,0.3-0.8,0.8v27.7c0,0.1,0,0.1,0,0.2c-0.2,1.4-1.2,2.4-2.7,2.4s-2.7-1.2-2.7-2.7
		c0-1.4,1-2.5,2.4-2.7c0.4-0.1,0.7-0.4,0.7-0.8v-9.1c0-0.5-0.3-0.8-0.8-0.8c0,0-0.1,0-0.2,0c-7.2,0.3-12.7,6.1-12.7,13.3
		c0,7.3,5.9,13.3,13.3,13.3c6.9,0,12.7-5.3,13.2-12.1c0.1-0.1,0.1-0.2,0.1-0.3V16.9c1.7,0.4,3.5,0.5,5.4,0.2
		c0.4-0.1,0.6-0.4,0.6-0.8V8.1C39.8,7.8,39.6,7.6,39.4,7.4z M38.2,15.7c-1.8,0.2-3.4,0-5.1-0.5c-0.2-0.1-0.5,0-0.7,0.1
		c-0.2,0.2-0.3,0.4-0.3,0.6v15.8c0,0.1,0,0.2-0.1,0.2c-0.4,6.1-5.5,10.9-11.6,10.9c-6.5,0-11.7-5.2-11.7-11.7
		c0-6.1,4.5-11.1,10.5-11.6V27c-1.8,0.5-3.1,2.2-3.1,4.1c0,2.3,2,4.3,4.3,4.3c2.1,0,3.9-1.6,4.2-3.6c0.1-0.1,0.1-0.2,0.1-0.3V4.3
		h6.5c0.2,1,0.5,1.9,1.1,2.7c1.3,1.8,3.7,2.7,5.9,2.2C38.2,9.2,38.2,15.7,38.2,15.7z"/>
	<path fill="none" d="M39.4,7.4c-0.2-0.2-0.5-0.2-0.7-0.1c-2,0.9-4,0.2-5.2-1.3c-0.5-0.7-0.9-1.6-0.9-2.5
		c0-0.2-0.1-0.4-0.2-0.5c-0.2-0.2-0.3-0.2-0.5-0.2h-8c-0.5,0-0.8,0.3-0.8,0.8v27.7c0,0.1,0,0.1,0,0.2c-0.2,1.4-1.2,2.4-2.7,2.4
		s-2.7-1.2-2.7-2.7c0-1.4,1-2.5,2.4-2.7c0.4-0.1,0.7-0.4,0.7-0.8v-9.1c0-0.5-0.3-0.8-0.8-0.8c0,0-0.1,0-0.2,0
		c-7.2,0.3-12.7,6.1-12.7,13.3c0,7.3,5.9,13.3,13.3,13.3c6.9,0,12.7-5.3,13.2-12.1c0.1-0.1,0.1-0.2,0.1-0.3V16.9
		c1.7,0.4,3.5,0.5,5.4,0.2c0.4-0.1,0.6-0.4,0.6-0.8V8.1C39.8,7.8,39.6,7.6,39.4,7.4z M38.2,15.7c-1.8,0.2-3.4,0-5.1-0.5
		c-0.2-0.1-0.5,0-0.7,0.1c-0.2,0.2-0.3,0.4-0.3,0.6v15.8c0,0.1,0,0.2-0.1,0.2c-0.4,6.1-5.5,10.9-11.6,10.9
		c-6.5,0-11.7-5.2-11.7-11.7c0-6.1,4.5-11.1,10.5-11.6V27c-1.8,0.5-3.1,2.2-3.1,4.1c0,2.3,2,4.3,4.3,4.3c2.1,0,3.9-1.6,4.2-3.6
		c0.1-0.1,0.1-0.2,0.1-0.3V4.3h6.5c0.2,1,0.5,1.9,1.1,2.7c1.3,1.8,3.7,2.7,5.9,2.2C38.2,9.2,38.2,15.7,38.2,15.7z"/>
</g>
</svg>
