<?xml version="1.0" encoding="utf-8"?>
<!-- Generator: Adobe Illustrator 25.2.1, SVG Export Plug-In . SVG Version: 6.00 Build 0)  -->
<svg fill="currentColor" version="1.0" id="Layer_1" xmlns="http://www.w3.org/2000/svg" xmlns:xlink="http://www.w3.org/1999/xlink" x="0px" y="0px"
	 viewBox="0 0 48 48" enable-background="new 0 0 48 48" xml:space="preserve">
<g>
	<rect fill="none" width="48" height="48"/>
	<path d="M32,12h-4V8h4V12z M36,14h-4v4h4V14z M38,18h4v-4h-4V18z M38,8h-4v4h4V8z M30,14h-4v4h4V14z M38,20h-4v4h4V20z M32,20h-4v4
		h4V20z M26,8h-4v4h4V8z M40,31.6v8.3c0,1.1-0.9,2.1-2.1,2c-5.8-0.3-11.2-2.1-15.9-4.8C16.5,34,12,29.5,8.9,24
		C6.1,19.3,4.4,13.8,4.1,8.1C4,6.9,4.9,6,6.1,6h8.3c1,0,1.8,0.7,2,1.6l1.5,7.4c0.1,0.7-0.1,1.3-0.5,1.8l-5.1,5c2.9,5,7,9.1,12,12
		l5-5c0.5-0.5,1.2-0.7,1.8-0.5l7.3,1.5C39.3,29.9,40,30.7,40,31.6z M10.4,18l3.3-3.3L12.7,10H8.3C8.6,12.7,9.3,15.4,10.4,18z
		 M36,33.3l-4.7-0.9L28,35.6c2.6,1,5.3,1.7,8,2.1V33.3z M40,8v4h4V8H40z M40,24h4v-4h-4V24z M26,20h-4v4h4V20z"/>
</g>
</svg>
