<?xml version="1.0" encoding="utf-8"?>
<!-- Generator: Adobe Illustrator 25.2.1, SVG Export Plug-In . SVG Version: 6.00 Build 0)  -->
<svg fill="currentColor" version="1.0" id="Layer_1" xmlns="http://www.w3.org/2000/svg" xmlns:xlink="http://www.w3.org/1999/xlink" x="0px" y="0px"
	 viewBox="0 0 48 48" enable-background="new 0 0 48 48" xml:space="preserve">
<path fill="none" d="M0,0h48v48H0V0z"/>
<path d="M45.6,11.1c-1.5,0.7-3.2,1.2-4.9,1.4c1.8-1.1,3.1-2.7,3.8-4.8c-1.7,1-3.5,1.7-5.4,2.1c-1.6-1.7-3.8-2.7-6.3-2.7
	c-4.7,0-8.5,3.8-8.5,8.6c0,0.7,0.1,1.3,0.2,2c-7.1-0.4-13.5-3.8-17.7-9C5.9,9.9,5.5,11.4,5.5,13c0,3,1.5,5.6,3.8,7.1
	c-1.4,0-2.7-0.4-3.9-1c0,0,0,0,0,0.1c0,4.2,3,7.6,6.9,8.4c-0.7,0.2-1.5,0.3-2.3,0.3c-0.5,0-1.1-0.1-1.6-0.2c1.1,3.4,4.2,5.9,8,6
	c-2.9,2.3-6.6,3.7-10.7,3.7c-0.7,0-1.4,0-2-0.1c3.8,2.4,8.3,3.9,13.2,3.9c15.8,0,24.4-13.1,24.4-24.4c0-0.4,0-0.7,0-1.1
	C43,14.3,44.4,12.8,45.6,11.1z"/>
</svg>
