<?xml version="1.0" encoding="utf-8"?>
<!-- Generator: Adobe Illustrator 25.2.1, SVG Export Plug-In . SVG Version: 6.00 Build 0)  -->
<svg fill="currentColor" version="1.0" id="Layer_1" xmlns="http://www.w3.org/2000/svg" xmlns:xlink="http://www.w3.org/1999/xlink" x="0px" y="0px"
	 viewBox="0 0 48 48" enable-background="new 0 0 48 48" xml:space="preserve">
<path fill="none" d="M0,0h48v48H0V0z"/>
<path d="M28,4H12C9.8,4,8,5.8,8,8v32c0,2.2,1.8,4,4,4h24c2.2,0,4-1.8,4-4V16L28,4z M36,40H12V8h14v10h10V40z"/>
<g>
	<path d="M32.2,24.4c-0.2-0.1-0.4-0.1-0.6,0.1l-4.3,2.9v-2.5c0-0.7-0.6-1.3-1.3-1.3h-8.6c-0.7,0-1.3,0.6-1.3,1.3v8.2
		c0,0.7,0.6,1.3,1.3,1.3H26c0.7,0,1.3-0.6,1.3-1.3v-2.5l4.3,2.8c0.2,0.2,0.6,0.1,0.8-0.1c0.1-0.1,0.1-0.2,0.1-0.3v-8.2
		C32.5,24.7,32.3,24.5,32.2,24.4z"/>
</g>
</svg>
