<?xml version="1.0" encoding="utf-8"?>
<!-- Generator: Adobe Illustrator 25.2.1, SVG Export Plug-In . SVG Version: 6.00 Build 0)  -->
<svg fill="currentColor" version="1.0" id="Layer_1" xmlns="http://www.w3.org/2000/svg" xmlns:xlink="http://www.w3.org/1999/xlink" x="0px" y="0px"
	 viewBox="0 0 48 48" enable-background="new 0 0 48 48" xml:space="preserve">
<path fill="none" d="M0,0h48v48H0V0z"/>
<path d="M32.6,6.6c0.4,0,4.6,3.5,5,3.8c0.3,0.4,6.3,5.2,6.3,5.7V40c0,0.5-0.2,0.8-0.5,1.2c-0.3,0.3-0.7,0.5-1.2,0.5H15.7
	c-0.4,0-0.8-0.2-1.2-0.5C14.2,40.8,14,40.4,14,40v-5.8H5.7c-0.4,0-0.8-0.2-1.2-0.5C4.2,33.3,4,32.9,4,32.5V15.8
	c0-0.4,0.2-0.8,0.5-1.2c0.3-0.3,0.7-0.5,1.2-0.5H14V8.3c0-0.5,0.2-0.8,0.5-1.2c0.3-0.3,0.7-0.5,1.2-0.5 M14.1,22.8l2.4,7.9h2.7
	l2.6-13.1H19l-1.6,7.8l-2.2-7.5H13l-2.4,7.5L9,17.6H6.2l2.6,13.1h2.7 M41.5,39.1v-5h-25v5 M41.5,31.6v-6.2H24v6.2 M41.5,22.9v-6.3
	H24v6.3 M41.5,14.1l-4.7-5H16.5v5H41.5z"/>
<path d="M12.8,15l4,0.3V7.8h14v10h10v22h-24v-7l-4,0.6v6.3c0,2.2,1.8,4,4,4h24c2.2,0,4-1.8,4-4v-24l-12-12h-16c-2.2,0-4,1.8-4,4v7
	L12.8,15z"/>
</svg>
