<svg width="186" height="72" viewBox="0 0 186 72" fill="none" xmlns="http://www.w3.org/2000/svg">
<path d="M94.527 19.4723H92.127C91.977 19.4723 91.827 19.6222 91.677 19.7722L79.677 39.7223L67.827 19.7722C67.677 19.6222 67.527 19.4723 67.377 19.4723H64.827C64.527 19.4723 64.2271 19.7721 64.2271 20.0721V50.8221C64.2271 51.1221 64.527 51.422 64.827 51.422H67.9771C68.1271 51.422 68.277 51.4222 68.427 51.2722C68.577 51.1222 68.577 50.9721 68.577 50.8221L68.427 28.922L78.027 44.9723C78.177 45.1223 78.3271 45.2722 78.4771 45.2722H80.577C80.727 45.2722 80.877 45.1223 81.027 44.9723L90.627 29.0721V50.8221C90.627 51.1221 90.9271 51.422 91.2271 51.422H94.377C94.677 51.422 94.9771 51.1221 94.9771 50.8221V20.0721C94.9771 19.7721 94.827 19.4723 94.527 19.4723Z" fill="#4F4F4A"/>
<path d="M112.377 28.7723C105.927 28.9223 100.977 34.3222 101.127 40.6222C101.277 46.7722 106.227 51.7222 112.377 51.8722C117.177 51.8722 121.077 49.4723 122.427 45.5723C122.427 45.4223 122.427 45.2722 122.427 45.1222C122.277 44.9722 122.127 44.9724 121.977 44.9724H118.677C118.527 44.9724 118.227 45.1223 118.227 45.2723C117.027 47.2223 114.927 48.4222 112.677 48.1222C109.077 48.2722 105.927 45.5722 105.477 42.1222H122.577C122.577 42.1222 122.577 42.1222 122.727 42.1222C122.877 42.1222 123.027 42.1222 123.027 42.1222C123.177 41.9722 123.327 41.8221 123.327 41.6721C123.327 41.2221 123.327 40.7723 123.327 40.3223C123.027 33.5723 118.527 28.7723 112.377 28.7723ZM112.227 32.5223C115.677 32.5223 118.527 35.0723 118.827 38.5223H105.327C105.777 35.0723 108.777 32.5223 112.227 32.5223Z" fill="#4F4F4A"/>
<path d="M142.377 47.5223C142.227 47.3723 142.077 47.3723 141.927 47.5223C140.877 47.8223 139.677 47.9724 138.477 47.9724C135.477 47.9724 134.427 46.6221 134.427 43.1721V32.9724H141.777C142.077 32.9724 142.377 32.6722 142.377 32.3722V29.6721C142.377 29.3721 142.077 29.0723 141.777 29.0723H134.427V21.8722C134.427 21.5722 134.127 21.2723 133.827 21.2723H130.827C130.527 21.2723 130.227 21.5722 130.227 21.8722V29.0723H125.277C124.977 29.0723 124.677 29.3721 124.677 29.6721V32.3722C124.677 32.6722 124.977 32.9724 125.277 32.9724H130.227V43.1721C130.227 48.8721 132.927 51.8722 138.027 51.8722C139.677 51.8722 141.177 51.5722 142.677 51.1222C142.977 50.9722 143.127 50.8223 143.127 50.5223L142.677 47.8223C142.527 47.8223 142.527 47.6723 142.377 47.5223Z" fill="#4F4F4A"/>
<path d="M159.327 28.7723C156.477 28.7723 153.627 29.9723 151.677 32.0723V29.9724C151.677 29.6724 151.377 29.3722 151.077 29.3722H148.077C147.777 29.3722 147.477 29.6724 147.477 29.9724V50.8223C147.477 51.1223 147.777 51.4221 148.077 51.4221H151.077C151.377 51.4221 151.677 51.1223 151.677 50.8223V37.3223C153.327 34.6223 156.177 32.9723 159.327 32.8223C159.627 32.8223 159.777 32.5224 159.777 32.2224V29.2224C159.927 29.0724 159.627 28.7723 159.327 28.7723Z" fill="#4F4F4A"/>
<path d="M173.577 28.7723C167.127 28.7723 162.027 34.0223 162.027 40.3223C162.027 46.7723 167.277 51.8722 173.577 51.8722C180.027 51.8722 185.127 46.6223 185.127 40.3223C185.127 34.0223 180.027 28.7723 173.727 28.7723H173.577ZM173.577 48.1222C169.377 48.1222 166.077 44.6724 166.077 40.4724V40.3223C166.077 36.2723 169.377 32.8223 173.427 32.8223C177.477 32.8223 180.927 36.1221 180.927 40.1721V40.3223C181.077 44.5223 177.777 47.9722 173.577 48.1222Z" fill="#4F4F4A"/>
<path d="M25.152 0.215088C11.502 0.215088 0.552 11.3151 0.552 24.9651V45.9651C0.252 59.6151 11.0521 70.8652 24.7021 71.1652C38.3521 71.4652 49.602 60.6652 49.902 47.0152C49.902 46.8652 49.902 46.5652 49.902 46.4152V24.8151C49.752 11.3151 38.652 0.365088 25.152 0.215088ZM5.65204 16.2652C10.452 5.4652 23.0521 0.665088 33.8521 5.46509C38.6521 7.56509 42.552 11.4652 44.652 16.2652C44.802 16.5652 44.6521 16.8651 44.3521 16.8651C44.2021 16.8651 44.052 16.8651 43.902 16.8651L36.8521 12.5152C36.4021 12.2152 35.9521 12.2152 35.5021 12.5152C32.9521 13.7152 25.6021 17.0152 25.4521 17.1652C25.3021 17.1652 25.1521 17.1652 25.0021 17.1652C24.8521 17.0152 17.352 13.7152 14.652 12.5152C14.202 12.2152 13.602 12.2152 13.152 12.5152C13.152 12.5152 6.55207 16.8651 6.25207 16.8651C5.95207 17.0151 5.65207 16.8651 5.50207 16.7151C5.50207 16.5651 5.50204 16.4152 5.65204 16.2652ZM16.6021 26.1652C15.7021 25.5652 15.2521 24.6651 15.2521 23.6151V18.8151C15.2521 17.9151 16.002 17.1652 16.902 17.0152C17.202 17.0152 17.352 17.0152 17.652 17.1652L24.8521 20.7652C25.0021 20.7652 25.152 20.7652 25.302 20.7652L32.3521 17.1652C33.2521 16.8652 34.3021 17.1651 34.6021 18.0651C34.7521 18.2151 34.7521 18.5152 34.7521 18.6652V23.4651C34.7521 24.5151 34.302 25.4152 33.402 26.0152L25.302 31.7151C25.152 31.8651 24.8521 31.8651 24.7021 31.7151L16.6021 26.1652ZM23.802 34.8651V43.4152C23.802 43.7152 23.6521 43.8651 23.3521 43.8651C23.2021 43.8651 23.052 43.8651 23.052 43.7151L15.552 38.4651C15.402 38.3151 15.402 38.1652 15.402 38.0152V29.6151C15.402 29.3151 15.7021 29.1652 16.0021 29.1652C16.1521 29.1652 16.302 29.1651 16.302 29.3151L23.652 34.4152C23.652 34.5652 23.802 34.7151 23.802 34.8651ZM3.70215 24.9651C3.70215 23.9151 3.70211 23.0151 3.85211 21.9651C3.85211 21.8151 4.00204 21.6652 4.15204 21.5152L11.5021 16.7151C11.6521 16.5651 12.1021 16.5651 12.2521 16.7151C12.4021 16.8651 12.402 17.0152 12.402 17.1652V24.9651C12.402 25.1151 12.2521 25.2652 12.1021 25.4152L4.45215 30.3651C4.15215 30.5151 3.85215 30.3651 3.70215 30.2151C3.70215 30.2151 3.70215 30.0652 3.70215 29.9152V24.9651ZM3.70215 43.2652V35.0152C3.70215 34.8652 3.85207 34.5651 4.00207 34.5651L11.652 29.4651C11.952 29.3151 12.252 29.3151 12.402 29.6151C12.402 29.7651 12.552 29.7652 12.552 29.9152V38.3151C12.552 38.4651 12.4021 38.6152 12.2521 38.7652L4.60211 43.7151C4.30211 43.8651 4.00211 43.7152 3.85211 43.4152L3.70215 43.2652ZM32.2021 66.6652C29.9521 67.4152 27.552 67.8651 25.152 67.8651C21.102 67.8651 17.0521 66.6652 13.6021 64.4152C13.3021 64.2652 13.3021 63.9652 13.4521 63.6652L13.6021 63.5152C14.8021 62.7652 16.302 62.4651 17.652 62.3151C22.902 61.7151 26.802 64.2651 32.052 65.6151C32.352 65.7651 32.5021 66.0651 32.3521 66.2151C32.5021 66.5151 32.3521 66.5152 32.2021 66.6652ZM42.7021 58.7151C41.5021 60.3651 40.1521 61.8651 38.5021 63.2151C38.0521 63.5151 37.602 63.6652 37.152 63.6652C30.552 63.5152 25.3021 58.4151 17.5021 59.3151C15.1021 59.6151 12.852 60.3651 10.902 61.7151C10.752 61.8651 10.452 61.8651 10.302 61.7151C8.952 60.5151 7.90207 59.1652 7.00207 57.5152C6.85207 57.2152 7.00204 56.9152 7.15204 56.7652C10.002 55.2652 13.3021 54.5152 16.4521 54.5152C24.5521 54.5152 30.102 58.4152 37.902 58.4152C39.252 58.4152 40.7521 58.2651 42.1021 57.8151C42.4021 57.8151 42.7021 57.9652 42.7021 58.2652C42.7021 58.5652 42.7021 58.5651 42.7021 58.7151ZM45.552 52.8651C45.402 53.3151 45.102 53.6152 44.802 53.9152C43.002 55.1152 41.352 55.4152 37.902 55.4152C29.952 55.4152 25.0021 51.8151 16.4521 51.8151C12.7021 51.6651 9.102 52.4151 5.802 54.0651C5.502 54.2151 5.202 54.0652 5.052 53.7652C4.302 51.9652 3.85211 50.0151 3.85211 48.0651C3.85211 47.4651 3.85204 47.3152 4.15204 47.1652L11.652 42.3651C11.952 42.2151 12.252 42.2152 12.402 42.5152C12.402 42.5152 12.552 42.6651 12.552 42.8151V47.7652C12.552 48.0652 12.8521 48.2151 13.0021 48.2151H14.802C15.102 48.2151 15.2521 47.9152 15.2521 47.7652V42.9651C15.2521 42.6651 15.5521 42.5152 15.7021 42.5152C15.8521 42.5152 15.8521 42.5152 16.0021 42.6652L23.3521 48.2151C23.6521 48.3651 23.8021 48.5152 24.1021 48.5152H33.552C33.852 48.5152 34.0021 48.3651 34.0021 48.0651V40.5651C34.0021 40.2651 34.1521 40.1151 34.4521 40.1151H38.2021C38.5021 40.1151 38.652 40.2651 38.652 40.5651V48.0651C38.652 48.3651 38.9521 48.5152 39.1021 48.5152H45.552C45.852 48.5152 46.152 48.6651 46.152 48.9651V49.1151C46.152 50.1651 45.852 51.5151 45.552 52.8651ZM46.4521 44.9152C46.4521 45.2152 46.1521 45.3651 46.0021 45.3651H42.2521C41.9521 45.3651 41.802 45.2152 41.802 44.9152V37.4152C41.802 37.1152 41.5021 36.9651 41.3521 36.9651H32.052C31.752 36.9651 31.6021 37.1152 31.6021 37.4152V44.9152C31.6021 45.2152 31.302 45.3651 31.152 45.3651H27.402C27.102 45.3651 26.952 45.2152 26.802 44.9152V34.8651C26.802 34.7151 26.8021 34.5652 26.9521 34.4152L36.1021 27.9651C36.2521 27.8151 36.5521 27.8151 36.7021 27.9651L46.302 34.2652C46.452 34.4152 46.6021 34.5651 46.6021 34.8651L46.4521 44.9152ZM46.4521 30.2151C46.4521 30.5151 46.1521 30.6652 45.8521 30.6652C45.7021 30.6652 45.702 30.6652 45.552 30.6652L37.7521 25.5651C37.6021 25.4151 37.4521 25.2651 37.4521 25.1151V17.3151C37.4521 17.0151 37.752 16.8651 37.902 16.8651C38.052 16.8651 38.2021 16.8652 38.2021 17.0152L45.8521 21.9651C46.0021 22.1151 46.002 22.1152 46.152 22.2652C46.302 23.1652 46.302 24.0651 46.302 24.9651L46.4521 30.2151Z" fill="#4F4F4A"/>
</svg>
