<svg width="978" height="76" viewBox="0 0 978 76" fill="none" xmlns="http://www.w3.org/2000/svg">
<path d="M374.206 39.4497C370.156 33.8997 363.556 30.8997 356.806 31.1997C348.706 31.9497 342.106 37.9497 340.306 45.8997L338.356 46.0497C340.006 37.0497 347.506 30.1497 356.656 29.3997C363.856 28.9497 370.906 32.0997 375.256 37.7997L374.206 39.4497Z" fill="#CECECA"/>
<path d="M355.156 21.5997L356.356 21.4497C356.506 21.4497 356.656 21.5998 356.656 21.7498L357.106 26.5497C357.106 26.6997 356.956 26.8497 356.806 26.8497L355.606 26.9998C355.456 26.9998 355.306 26.8497 355.306 26.6997L354.856 21.8998C354.856 21.8998 355.006 21.7497 355.156 21.5997Z" fill="#CECECA"/>
<path d="M359.956 26.6997L360.556 21.7498C360.556 21.5998 360.706 21.4497 360.856 21.4497L362.056 21.5997C362.206 21.5997 362.356 21.7498 362.356 21.8998L361.756 26.8497C361.756 26.9997 361.606 27.1498 361.456 27.1498L360.256 26.9998C360.106 26.9998 359.956 26.8497 359.956 26.6997Z" fill="#CECECA"/>
<path d="M364.606 27.4498L366.106 22.6498C366.106 22.4998 366.256 22.3499 366.406 22.4999L367.606 22.7998C367.756 22.7998 367.906 22.9497 367.756 23.0997L366.256 27.8998C366.256 28.0498 366.106 28.1998 365.956 28.0498L364.756 27.7499C364.606 27.7499 364.606 27.5998 364.606 27.4498Z" fill="#CECECA"/>
<path d="M368.956 29.25L371.356 24.9C371.506 24.75 371.656 24.75 371.806 24.75L372.856 25.3499C373.006 25.4999 373.006 25.6499 373.006 25.7999L370.606 30.15C370.456 30.3 370.306 30.2999 370.156 30.2999L369.106 29.6999C368.956 29.5499 368.806 29.4 368.956 29.25Z" fill="#CECECA"/>
<path d="M372.856 31.8L376.156 28.05C376.306 27.9 376.456 27.9 376.606 28.05L377.506 28.8C377.656 28.95 377.656 29.1001 377.506 29.2501L374.206 33.0001C374.056 33.1501 373.906 33.1501 373.756 33.0001L372.856 32.2501C372.706 32.1001 372.706 31.95 372.856 31.8Z" fill="#CECECA"/>
<path d="M330.406 43.5001L330.706 42.3C330.706 42.15 330.856 42 331.006 42.15L335.806 43.3499C335.956 43.3499 336.106 43.5 335.956 43.65L335.656 44.8499C335.656 44.9999 335.506 45.1501 335.356 45.0001L330.556 43.8C330.406 43.8 330.406 43.6501 330.406 43.5001Z" fill="#CECECA"/>
<path d="M332.206 37.9499L332.656 36.9C332.656 36.75 332.956 36.75 333.106 36.75L337.606 38.8499C337.756 38.8499 337.756 39.1499 337.756 39.2999L337.306 40.3499C337.306 40.4999 337.006 40.5 336.856 40.5L332.356 38.4C332.206 38.4 332.206 38.0999 332.206 37.9499Z" fill="#CECECA"/>
<path d="M335.206 32.9997L335.956 32.0996C336.106 31.9496 336.256 31.9496 336.406 32.0996L340.306 35.0996C340.456 35.2496 340.456 35.3996 340.306 35.5496L339.556 36.4496C339.406 36.5996 339.256 36.5996 339.106 36.4496L335.206 33.4496C335.056 33.2996 335.056 33.1497 335.206 32.9997Z" fill="#CECECA"/>
<path d="M338.956 28.8L339.856 28.05C340.006 27.9 340.156 27.9 340.306 28.05L343.606 31.8C343.756 31.95 343.756 32.1001 343.606 32.2501L342.706 33.0001C342.556 33.1501 342.406 33.1501 342.256 33.0001L338.956 29.2501C338.806 29.1001 338.956 28.8 338.956 28.8Z" fill="#CECECA"/>
<path d="M343.606 25.3497L344.656 24.7499C344.806 24.5999 344.956 24.7498 345.106 24.8998L347.506 29.2499C347.656 29.3999 347.506 29.5498 347.356 29.6998L346.306 30.2998C346.156 30.4498 346.006 30.2998 345.856 30.1498L343.456 25.7998C343.456 25.6498 343.456 25.3497 343.606 25.3497Z" fill="#CECECA"/>
<path d="M348.856 22.9499L350.056 22.5C350.206 22.5 350.356 22.5 350.356 22.65L351.856 27.4499C351.856 27.5999 351.856 27.75 351.706 27.75L350.506 28.1999C350.356 28.1999 350.206 28.1999 350.206 28.0499L348.706 23.25C348.556 23.1 348.706 22.9499 348.856 22.9499Z" fill="#CECECA"/>
<path d="M740.056 75.0001L738.106 75.1499V37.6501L722.356 21.9001L706.007 37.8001L705.856 55.0501L703.906 53.5501V37.5001C703.906 37.2001 704.056 36.9001 704.206 36.7501L721.757 20.1C722.057 19.8 722.656 19.8 723.106 20.1L739.906 37.2C740.056 37.35 740.206 37.6501 740.206 37.8001L740.056 75.0001Z" fill="#CECECA"/>
<path d="M742.906 40.6501H744.257C744.557 40.6501 744.706 40.8 744.706 41.1V48.3001C744.706 48.6001 744.557 48.7502 744.257 48.7502H742.906C742.606 48.7502 742.456 48.6001 742.456 48.3001V41.1C742.456 40.8 742.756 40.6501 742.906 40.6501Z" fill="#CECECA"/>
<path d="M749.806 40.6501H751.156C751.456 40.6501 751.606 40.8 751.606 41.1V48.3001C751.606 48.6001 751.456 48.7502 751.156 48.7502H749.806C749.506 48.7502 749.356 48.6001 749.356 48.3001V41.1C749.356 40.8 749.656 40.6501 749.806 40.6501Z" fill="#CECECA"/>
<path d="M742.906 52.0499H744.257C744.557 52.0499 744.706 52.2 744.706 52.5V59.7001C744.706 60.0001 744.557 60.1498 744.257 60.1498H742.906C742.606 60.1498 742.456 60.0001 742.456 59.7001V52.5C742.456 52.35 742.756 52.0499 742.906 52.0499Z" fill="#CECECA"/>
<path d="M749.806 52.0499H751.156C751.456 52.0499 751.606 52.2 751.606 52.5V59.7001C751.606 60.0001 751.456 60.1498 751.156 60.1498H749.806C749.506 60.1498 749.356 60.0001 749.356 59.7001V52.5C749.356 52.35 749.656 52.0499 749.806 52.0499Z" fill="#CECECA"/>
<path d="M742.906 63.5999H744.257C744.557 63.5999 744.706 63.7499 744.706 64.0499V71.25C744.706 71.55 744.557 71.7001 744.257 71.7001H742.906C742.606 71.7001 742.456 71.55 742.456 71.25V64.0499C742.456 63.8999 742.756 63.5999 742.906 63.5999Z" fill="#CECECA"/>
<path d="M749.806 63.5999H751.156C751.456 63.5999 751.606 63.7499 751.606 64.0499V71.25C751.606 71.55 751.456 71.7001 751.156 71.7001H749.806C749.506 71.7001 749.356 71.55 749.356 71.25V64.0499C749.356 63.8999 749.656 63.5999 749.806 63.5999Z" fill="#CECECA"/>
<path d="M721.606 46.1997H722.956C723.256 46.1997 723.406 46.4998 723.406 46.6498V53.6999C723.406 53.9999 723.106 54.1496 722.956 54.1496H721.606C721.306 54.1496 721.156 53.8499 721.156 53.6999V46.6498C721.006 46.4998 721.306 46.1997 721.606 46.1997Z" fill="#CECECA"/>
<path d="M730.756 46.1997H732.106C732.406 46.1997 732.556 46.4998 732.556 46.6498V53.6999C732.556 53.9999 732.256 54.1496 732.106 54.1496H730.756C730.456 54.1496 730.306 53.8499 730.306 53.6999V46.6498C730.306 46.4998 730.456 46.1997 730.756 46.1997Z" fill="#CECECA"/>
<path d="M712.306 46.1997H713.656C713.956 46.1997 714.106 46.4998 714.106 46.6498V53.6999C714.106 53.9999 713.806 54.1496 713.656 54.1496H712.306C712.006 54.1496 711.856 53.8499 711.856 53.6999V46.6498C711.856 46.4998 712.006 46.1997 712.306 46.1997Z" fill="#CECECA"/>
<path d="M725.806 74.8499H723.856V64.9501H719.956V74.7001H718.006V63.8998C718.006 63.2998 718.456 62.8499 719.056 62.8499H724.906C725.506 62.8499 725.956 63.2998 725.956 63.8998L725.806 74.8499Z" fill="#CECECA"/>
<path d="M757.306 37.1999V75H755.356L755.656 36.75H756.856C757.006 36.75 757.306 36.8999 757.306 37.1999Z" fill="#CECECA"/>
<path d="M739.007 38.0997H757.306V36.4497H738.706L739.007 38.0997Z" fill="#CECECA"/>
<path d="M781.156 75H763.156C762.706 75 762.256 74.6999 762.256 74.0999V47.7001H763.906V73.2001H780.256V47.7001H781.906V74.0999C781.906 74.5499 781.606 75 781.156 75Z" fill="#CECECA"/>
<path d="M766.906 51.8998H767.656C767.956 51.8998 768.106 52.0499 768.106 52.3499V70.5C768.106 70.8 767.956 70.9501 767.656 70.9501H766.906C766.606 70.9501 766.456 70.8 766.456 70.5V52.3499C766.456 52.0499 766.606 51.8998 766.906 51.8998Z" fill="#CECECA"/>
<path d="M771.856 51.8997H772.606C772.906 51.8997 773.056 52.0497 773.056 52.3497V70.4999C773.056 70.7999 772.906 70.95 772.606 70.95H771.856C771.556 70.95 771.406 70.7999 771.406 70.4999V52.3497C771.406 52.0497 771.556 51.8997 771.856 51.8997Z" fill="#CECECA"/>
<path d="M776.806 51.8997H777.556C777.856 51.8997 778.007 52.0497 778.007 52.3497V70.4999C778.007 70.7999 777.856 70.95 777.556 70.95H776.806C776.506 70.95 776.356 70.7999 776.356 70.4999V52.3497C776.356 52.0497 776.506 51.8997 776.806 51.8997Z" fill="#CECECA"/>
<path d="M782.506 48.7502H761.656C761.206 48.7502 760.756 48.45 760.756 47.85V44.5501C760.756 44.1001 761.056 43.6501 761.656 43.6501H782.506C782.956 43.6501 783.406 43.9501 783.406 44.5501V47.85C783.406 48.45 782.956 48.7502 782.506 48.7502ZM762.556 47.1H781.756V45.4501H762.556V47.1Z" fill="#CECECA"/>
<path d="M805.456 63H783.856C783.406 63 782.956 62.7 782.956 62.25V58.9501C782.956 58.5001 783.256 58.0499 783.706 58.0499H805.306C805.756 58.0499 806.206 58.3501 806.206 58.9501V62.25C806.356 62.7 805.906 63 805.456 63ZM784.757 61.3499H804.706V59.7001H784.757V61.3499Z" fill="#CECECA"/>
<path d="M776.356 44.5499H774.706V42.9H769.756V44.5499H768.106V42C768.106 41.55 768.406 41.0999 769.006 41.0999H775.606C776.056 41.0999 776.506 41.4 776.506 42L776.356 44.5499Z" fill="#CECECA"/>
<path d="M804.556 75H784.756C784.306 75 783.856 74.7 783.856 74.25V62.8499H785.506V73.3499H803.656V62.8499H805.306V74.25C805.456 74.55 805.006 75 804.556 75Z" fill="#CECECA"/>
<path d="M792.856 66.8997L792.106 66.1497C791.956 65.9997 791.956 65.85 792.106 65.7L793.157 64.4999C793.457 64.0499 794.057 63.8997 794.507 63.8997C795.107 63.8997 795.556 64.1999 795.856 64.4999L796.907 65.5498C797.057 65.6998 797.057 65.8499 796.907 65.9999L796.157 66.7499C796.007 66.8999 795.856 66.8999 795.706 66.7499L794.657 65.7C794.507 65.55 794.356 65.55 794.206 65.7L793.157 66.8997C793.157 67.0497 793.006 67.0497 792.856 66.8997Z" fill="#CECECA"/>
<path d="M791.656 70.0499C791.356 70.0499 791.206 69.7498 791.356 69.5998L792.257 68.5499C792.407 68.3999 792.407 68.2498 792.257 68.0998L791.507 67.5C791.357 67.35 791.206 67.35 791.056 67.5L790.156 68.5499C789.856 68.9999 789.706 69.4499 789.706 70.0499C789.856 70.4999 790.006 70.95 790.456 71.25C790.756 71.55 791.057 71.5499 791.507 71.5499H793.306C793.456 71.5499 793.606 71.4 793.606 71.25V70.3498C793.606 70.1998 793.456 70.0499 793.306 70.0499H791.656Z" fill="#CECECA"/>
<path d="M797.656 70.0499C797.956 70.0499 798.106 69.7498 797.956 69.5998L797.056 68.5499C796.906 68.3999 796.906 68.2498 797.056 68.0998L797.806 67.5C797.956 67.35 798.107 67.35 798.257 67.5L799.156 68.5499C799.456 68.9999 799.606 69.4499 799.606 70.0499C799.456 70.4999 799.306 70.95 798.856 71.25C798.556 71.55 798.256 71.5499 797.806 71.5499H796.007C795.857 71.5499 795.706 71.4 795.706 71.25V70.3498C795.706 70.1998 795.857 70.0499 796.007 70.0499H797.656Z" fill="#CECECA"/>
<path d="M823.906 64.9504H812.656V66.6002H823.906V64.9504Z" fill="#CECECA"/>
<path d="M811.606 28.8C811.756 28.35 812.206 28.2001 812.656 28.5001L814.156 29.2501C814.606 29.4001 814.756 29.85 814.456 30.3C814.306 30.75 813.856 30.8999 813.406 30.5999L811.906 29.8499C811.456 29.5499 811.306 29.1 811.606 28.8Z" fill="#CECECA"/>
<path d="M822.556 33.9004L824.056 34.6504C824.506 34.8004 824.656 35.4003 824.356 35.7003C824.056 36.0003 823.606 36.3004 823.306 36.0004L821.806 35.2504C821.356 35.1004 821.206 34.5003 821.506 34.2003C821.806 33.9003 822.106 33.7504 822.556 33.9004Z" fill="#CECECA"/>
<path d="M824.206 4.65015C824.656 4.65015 824.956 4.65004 824.956 5.10004L825.106 74.2502C825.106 74.4002 824.956 74.7 824.956 74.85C824.806 75 824.656 75.15 824.356 75.15C823.906 75.15 823.606 74.85 823.606 74.4L823.456 5.25018C823.306 4.80018 823.756 4.65015 824.206 4.65015Z" fill="#CECECA"/>
<path d="M811.306 21.9C811.456 21.75 811.756 21.5999 811.906 21.5999C812.356 21.5999 812.656 21.8999 812.656 22.1999L812.806 74.7001C812.806 74.8501 812.806 74.9998 812.656 75.1498C812.506 75.2998 812.206 75.4501 812.056 75.4501C811.606 75.4501 811.306 75.1499 811.306 74.8499L811.156 22.3499C811.156 22.0499 811.156 21.9 811.306 21.9Z" fill="#CECECA"/>
<path d="M811.456 21.5999L823.606 13.5C823.756 13.35 824.056 13.3499 824.206 13.3499C824.656 13.4999 824.956 13.8 824.806 14.25C824.806 14.4 824.657 14.6999 824.507 14.6999L812.356 22.7999C812.206 22.9499 812.057 22.9499 811.907 22.9499C811.607 22.9499 811.456 22.8 811.306 22.65C811.006 22.35 811.156 21.8999 811.456 21.5999Z" fill="#CECECA"/>
<path d="M813.556 34.0501C813.556 34.6501 813.856 35.2501 814.456 35.5501L817.156 37.2C817.756 37.5 818.356 37.5 818.956 37.2L821.806 35.7C822.406 35.4 822.706 34.8 822.706 34.2L822.856 30.9001C822.856 30.3001 822.556 29.7001 821.956 29.4001L819.106 27.7501C818.506 27.4501 817.906 27.4501 817.306 27.7501L814.456 29.2501C813.856 29.5501 813.556 30.1501 813.556 30.7501V34.0501ZM815.056 30.7501C815.056 30.6001 815.056 30.6 815.206 30.6L818.056 29.1C818.056 29.1 818.056 29.1 818.206 29.1H818.356L821.206 30.7501L821.356 30.9001L821.206 34.2C821.206 34.35 821.206 34.35 821.056 34.35L818.206 35.85H818.056L815.206 34.2L815.056 34.0501V30.7501Z" fill="#CECECA"/>
<path d="M811.906 37.5004C812.056 37.3504 812.206 37.2003 812.356 37.0503C812.506 37.0503 812.806 37.0503 812.956 37.0503L814.456 37.8003C814.906 37.9503 815.056 38.5502 814.756 38.8502C814.606 39.1502 814.306 39.3003 814.006 39.3003C813.856 39.3003 813.706 39.3003 813.706 39.1503L812.206 38.4003C811.756 38.2503 811.606 37.8004 811.906 37.5004Z" fill="#CECECA"/>
<path d="M822.556 42.6001L824.056 43.3501C824.506 43.5001 824.656 44.1002 824.356 44.4002C824.206 44.7002 823.906 44.8501 823.606 44.8501C823.456 44.8501 823.306 44.8501 823.306 44.7001L821.806 43.9501C821.356 43.8001 821.206 43.2002 821.506 42.9002C821.656 42.6002 822.106 42.4501 822.556 42.6001Z" fill="#CECECA"/>
<path d="M813.556 42.4502C813.556 43.0502 813.856 43.6502 814.456 43.9502L817.156 45.6002C817.756 45.9002 818.356 45.9002 818.956 45.6002L821.806 44.1002C822.406 43.8002 822.706 43.2002 822.706 42.6002L822.856 39.3003C822.856 38.7003 822.556 38.1003 821.956 37.8003L819.256 36.1503C818.656 35.8503 818.056 35.8503 817.456 36.1503L814.606 37.6503C814.006 37.9503 813.706 38.5503 813.706 39.1503L813.556 42.4502ZM815.056 39.3003C815.056 39.1503 815.056 39.1503 815.206 39.1503L818.056 37.6503C818.056 37.6503 818.056 37.6503 818.206 37.6503H818.356L821.056 39.3003L821.206 39.4502L821.056 42.7503C821.056 42.9003 821.056 42.9003 820.906 42.9003L818.056 44.4003H817.906L815.206 42.7503L815.056 42.6002V39.3003Z" fill="#CECECA"/>
<path d="M811.606 45.9C811.756 45.45 812.357 45.2999 812.657 45.5999L814.157 46.3499C814.607 46.4999 814.756 47.1 814.456 47.4C814.306 47.7 814.006 47.8499 813.706 47.8499C813.556 47.8499 813.407 47.8501 813.407 47.7001L811.907 46.9499C811.607 46.7999 811.456 46.35 811.606 45.9Z" fill="#CECECA"/>
<path d="M822.556 51.0001L824.056 51.7501C824.506 51.9001 824.656 52.5 824.356 52.8C824.206 53.1 823.906 53.2501 823.606 53.2501C823.456 53.2501 823.306 53.2499 823.306 53.0999L821.806 52.3499C821.356 52.1999 821.206 51.6 821.506 51.3C821.656 50.85 822.106 50.7001 822.556 51.0001Z" fill="#CECECA"/>
<path d="M813.556 50.85C813.556 51.45 813.856 52.05 814.456 52.35L817.156 54.0001C817.756 54.3001 818.356 54.3001 818.956 54.0001L821.806 52.5001C822.406 52.2001 822.706 51.6001 822.706 51.0001L822.856 47.7002C822.856 47.1002 822.556 46.5 821.956 46.2L819.256 44.5501C818.656 44.2501 818.056 44.2501 817.456 44.5501L814.606 46.0501C814.006 46.3501 813.706 46.9501 813.706 47.5501L813.556 50.85ZM815.056 47.7002C815.056 47.5502 815.056 47.5501 815.206 47.5501L818.056 46.0501C818.056 46.0501 818.056 46.0501 818.206 46.0501H818.356L821.056 47.7002L821.206 47.85L821.056 51.1499C821.056 51.2999 821.056 51.3001 820.906 51.3001L818.056 52.8001H817.906L815.206 51.1499L815.056 51.0001V47.7002Z" fill="#CECECA"/>
<path d="M811.757 54.4504C811.907 54.0004 812.507 53.8501 812.807 54.1501L814.307 54.9001C814.757 55.0501 814.906 55.6504 814.606 55.9504C814.456 56.2504 814.156 56.4001 813.856 56.4001C813.706 56.4001 813.557 56.4004 813.557 56.2504L812.057 55.5004C811.757 55.3504 811.607 54.9004 811.757 54.4504Z" fill="#CECECA"/>
<path d="M822.556 59.5502L824.056 60.3002C824.506 60.4502 824.656 61.0501 824.356 61.3501C824.206 61.6501 823.906 61.8002 823.606 61.8002C823.456 61.8002 823.306 61.8 823.306 61.65L821.806 60.9C821.356 60.75 821.206 60.1501 821.506 59.8501C821.656 59.5501 822.106 59.4002 822.556 59.5502Z" fill="#CECECA"/>
<path d="M813.556 59.4003C813.556 60.0003 813.856 60.6003 814.456 60.9003L817.306 62.5504C817.606 62.7004 817.906 62.8504 818.206 62.8504C818.506 62.8504 818.806 62.7004 819.106 62.5504L821.956 60.9003C822.556 60.6003 822.856 60.0003 822.856 59.4003V56.1004C822.856 55.5004 822.556 54.9004 821.956 54.6004L819.106 52.9506C818.506 52.6506 817.906 52.6506 817.306 52.9506L814.456 54.6004C813.856 54.9004 813.556 55.5004 813.556 56.1004V59.4003ZM815.056 56.1004C815.056 55.9504 815.056 55.9506 815.206 55.9506L818.056 54.3004C818.056 54.3004 818.056 54.3004 818.206 54.3004H818.356L821.206 55.9506L821.356 56.1004V59.4003C821.356 59.5503 821.356 59.5504 821.206 59.5504L818.356 61.2006H818.206L815.356 59.5504L815.206 59.4003L815.056 56.1004Z" fill="#CECECA"/>
<path d="M811.756 22.0504C811.906 21.9004 812.056 21.7503 812.206 21.6003C812.356 21.4503 812.656 21.4503 812.806 21.6003L824.356 26.4004C824.806 26.5504 824.956 27.0003 824.806 27.4503C824.656 27.7503 824.356 27.9004 824.056 27.9004C823.906 27.9004 823.906 27.9004 823.756 27.9004L812.206 23.1003C811.906 22.9503 811.606 22.5004 811.756 22.0504Z" fill="#CECECA"/>
<path d="M163.156 42.3H172.606C172.906 42.3 173.056 42.4501 173.056 42.7501V43.6501C173.056 43.9501 172.906 44.1 172.606 44.1H163.156C162.856 44.1 162.706 43.9501 162.706 43.6501V42.7501C162.706 42.4501 163.006 42.3 163.156 42.3Z" fill="#CECECA"/>
<path d="M189.856 48.0001C189.706 47.5501 189.256 47.2501 188.806 47.2501H163.756C163.156 47.2501 162.706 47.7 162.706 48.3L162.856 63.8999C162.856 64.4999 163.306 64.9502 163.906 64.9502C164.056 64.9502 164.356 64.95 164.506 64.8L189.406 49.2002C189.856 48.9002 190.006 48.4501 189.856 48.0001ZM185.056 49.35L165.106 61.8C165.106 61.8 165.106 61.8 164.956 61.8L164.806 49.35C164.806 49.35 164.806 49.2002 164.956 49.2002H184.906C185.056 49.2002 185.056 49.35 185.056 49.35Z" fill="#CECECA"/>
<path d="M173.356 53.5499C169.756 49.9499 164.206 48.8998 159.556 50.8498C156.556 52.0498 154.156 54.45 152.956 57.45C151.006 62.25 152.056 67.65 155.656 71.25C158.056 73.65 161.206 74.9998 164.506 74.8498C166.156 74.8498 167.956 74.55 169.456 73.95C172.456 72.75 174.856 70.3498 176.056 67.3498C178.156 62.6998 177.106 57.1499 173.356 53.5499ZM172.006 69.8998C169.006 72.8998 164.356 73.7998 160.306 72.1498C157.756 71.0998 155.806 69.1498 154.756 66.5998C153.106 62.5498 154.006 58.0498 157.006 54.8998C158.956 52.9498 161.656 51.7498 164.506 51.8998C166.006 51.8998 167.356 52.1998 168.706 52.6498C171.256 53.6998 173.206 55.65 174.256 58.2C175.906 62.25 175.006 66.7498 172.006 69.8998Z" fill="#CECECA"/>
<path d="M209.206 53.5499C205.606 49.9499 200.056 48.8998 195.406 50.8498C192.406 52.0498 190.006 54.45 188.806 57.45C186.856 62.25 187.906 67.65 191.506 71.25C193.906 73.65 197.056 74.9998 200.356 74.8498C202.006 74.8498 203.806 74.55 205.306 73.95C208.306 72.75 210.706 70.3498 211.906 67.3498C213.856 62.6998 212.806 57.1499 209.206 53.5499ZM207.706 69.8998C204.706 72.8998 200.056 73.7998 196.006 72.1498C193.456 71.0998 191.506 69.1498 190.456 66.5998C188.806 62.5498 189.706 58.0498 192.706 54.8998C194.656 52.9498 197.356 51.7498 200.206 51.8998C201.706 51.8998 203.056 52.1998 204.406 52.6498C206.956 53.6998 208.906 55.65 209.956 58.2C211.606 62.25 210.856 66.7498 207.706 69.8998Z" fill="#CECECA"/>
<path d="M201.106 61.6501L190.456 47.4003V47.2503V45.1503C190.456 45.0003 190.606 45.0003 190.606 45.0003H198.106C198.706 45.0003 199.156 44.5502 199.156 43.9502C199.156 43.3502 198.706 42.9003 198.106 42.9003H188.806C188.506 42.9003 188.356 43.0502 188.356 43.3502V47.8502C188.356 48.0002 188.356 48.0001 188.506 48.1501L199.456 62.8502C199.756 63.3002 200.506 63.4503 200.956 63.0003C201.106 62.8503 201.256 62.5503 201.406 62.2503C201.406 62.1003 201.256 61.8001 201.106 61.6501Z" fill="#CECECA"/>
<path d="M167.656 42.7501H165.556V48.3H167.656V42.7501Z" fill="#CECECA"/>
<path d="M423.106 51L396.856 18.15C396.706 18 396.406 17.8499 396.106 17.8499C395.806 17.8499 395.506 18 395.356 18.15L390.706 24.5999L388.456 22.0499C388.306 21.8999 388.006 21.75 387.706 21.75C387.406 21.75 387.256 21.8999 386.956 22.0499L358.756 56.0999C358.456 56.5499 359.656 57.7501 359.956 57.4501L387.706 24.15L389.956 26.8499C390.106 26.9999 390.406 27.15 390.706 27.15C391.006 27.15 391.156 26.9999 391.456 26.8499L396.106 20.4L421.456 52.2001C421.606 51.7501 423.106 51 423.106 51Z" fill="#CECECA"/>
<path d="M380.956 72.5999L375.406 69C375.106 68.85 374.956 68.5499 374.956 68.0999V63.2999C374.956 62.9999 375.256 62.6999 375.556 62.8499L380.506 66C380.806 66.15 381.106 65.9999 381.106 65.8499V65.7001V64.6498C381.106 64.4998 380.956 64.2001 380.806 64.2001L375.406 60.75C375.106 60.6 374.956 60.3 374.956 60V55.5C374.956 55.35 375.106 55.0499 375.256 55.0499C375.406 55.0499 375.406 55.0501 375.556 55.2001L380.356 58.3499C380.656 58.4999 380.956 58.3501 380.956 58.2001C380.956 58.2001 380.956 58.1999 380.956 58.0499V57C380.956 56.85 380.806 56.5499 380.656 56.5499L374.056 52.3499H373.906C373.756 52.3499 373.756 52.3499 373.756 52.3499L367.156 56.5499C367.006 56.6999 366.856 56.85 366.856 57V58.0499C366.856 58.3499 367.156 58.4999 367.456 58.3499C367.456 58.3499 367.456 58.3499 367.606 58.3499L372.406 55.2001C372.556 55.0501 372.856 55.0501 372.856 55.2001C372.856 55.2001 373.006 55.35 373.006 55.5V60C373.006 60.3 372.856 60.6 372.556 60.75L367.156 64.2001C367.006 64.3501 366.856 64.4998 366.856 64.6498V65.7001C366.856 66.0001 367.156 66.1498 367.456 66.1498H367.606L372.556 63C372.856 62.85 373.156 63.1501 373.156 63.4501V68.25C373.156 68.55 373.006 68.8498 372.706 69.1498L367.156 72.75C367.006 72.75 367.006 72.8999 367.006 73.0499V74.0999C367.006 74.3999 367.306 74.5499 367.606 74.5499H367.756L372.406 71.5499C372.556 71.3999 372.856 71.5501 373.006 71.7001V71.8499V74.8499C373.006 75.1499 373.306 75.2999 373.456 75.2999H374.656C374.806 75.2999 375.106 75.15 375.106 75V72C375.106 71.7 375.256 71.5499 375.556 71.5499H375.706L380.506 74.5499C380.806 74.6999 381.106 74.5498 381.106 74.3998V74.25V73.2001C381.106 72.9001 380.956 72.7499 380.956 72.5999Z" fill="#CECECA"/>
<path d="M398.056 72.5999L392.506 69C392.206 68.85 392.056 68.5499 392.056 68.0999V63.2999C392.056 62.9999 392.356 62.6999 392.656 62.8499L397.606 66C397.906 66.15 398.206 65.9999 398.206 65.8499V65.7001V64.6498C398.206 64.4998 398.056 64.2001 397.906 64.2001L392.506 60.75C392.206 60.6 392.056 60.3 392.056 60V55.5C392.056 55.35 392.206 55.0499 392.356 55.0499C392.506 55.0499 392.506 55.0501 392.656 55.2001L397.456 58.3499C397.756 58.4999 398.056 58.3501 398.056 58.2001C398.056 58.2001 398.056 58.1999 398.056 58.0499V57C398.056 56.85 397.906 56.5499 397.756 56.5499L391.156 52.3499H391.006C390.856 52.3499 390.856 52.3499 390.856 52.3499L384.256 56.5499C384.106 56.6999 383.956 56.85 383.956 57V58.0499C383.956 58.3499 384.256 58.4999 384.556 58.3499H384.706L389.506 55.2001C389.656 55.0501 389.956 55.0501 389.956 55.2001C389.956 55.2001 390.106 55.35 390.106 55.5V60C390.106 60.3 389.956 60.6 389.656 60.75L384.256 64.2001C384.106 64.2001 383.956 64.4998 383.956 64.6498V65.7001C383.956 66.0001 384.256 66.1498 384.556 66.1498H384.706L389.656 63C389.956 62.85 390.256 63.1501 390.256 63.4501V68.25C390.256 68.55 390.106 68.8498 389.806 69.1498L384.256 72.75C384.106 72.75 384.106 72.8999 384.106 73.0499V74.0999C384.106 74.3999 384.406 74.5499 384.706 74.5499H384.856L389.506 71.5499C389.656 71.3999 389.956 71.5501 390.106 71.7001V71.8499V74.8499C390.106 75.1499 390.406 75.2999 390.556 75.2999H391.756C391.906 75.2999 392.206 75.15 392.206 75V72C392.206 71.7 392.356 71.5499 392.656 71.5499H392.806L397.606 74.5499C397.906 74.6999 398.206 74.5498 398.206 74.3998V74.25V73.2001C398.206 72.7501 398.206 72.7499 398.056 72.5999Z" fill="#CECECA"/>
<path d="M415.156 72.5999L409.606 69.0001C409.306 68.8501 409.156 68.5499 409.156 68.0999V63.3C409.156 63 409.456 62.6999 409.756 62.8499L414.706 66.0001C415.006 66.1501 415.306 65.9999 415.306 65.8499V65.7001V64.6499C415.306 64.4999 415.156 64.2001 415.006 64.2001L409.606 60.7501C409.306 60.6001 409.156 60.3001 409.156 60.0001V55.5001C409.156 55.3501 409.306 55.05 409.456 55.05C409.606 55.05 409.606 55.0501 409.756 55.2001L414.556 58.3499C414.856 58.4999 415.156 58.3501 415.156 58.2001C415.156 58.2001 415.156 58.2 415.156 58.05V57.0001C415.156 56.8501 415.006 56.55 414.856 56.55L408.256 52.3499C408.106 52.1999 407.956 52.1999 407.806 52.3499L401.206 56.55C401.056 56.7 400.906 56.8501 400.906 57.0001V58.05C400.906 58.35 401.206 58.4999 401.506 58.3499C401.506 58.3499 401.506 58.3499 401.656 58.3499L406.456 55.2001C406.606 55.0501 406.906 55.0501 406.906 55.2001C406.906 55.2001 407.056 55.3501 407.056 55.5001V60.0001C407.056 60.3001 406.906 60.6001 406.606 60.7501L401.206 64.2001C401.056 64.2001 400.906 64.4999 400.906 64.6499V65.7001C400.906 66.0001 401.206 66.1499 401.506 66.1499H401.656L406.606 63.0001C406.906 62.8501 407.206 63.1501 407.206 63.4501V68.2501C407.206 68.5501 407.056 68.8499 406.756 69.1499L401.206 72.7501C401.056 72.7501 401.056 72.9 401.056 73.05V74.0999C401.056 74.3999 401.356 74.55 401.656 74.55H401.806L406.456 71.55C406.606 71.4 406.906 71.5501 407.056 71.7001V71.8499V74.8499C407.056 75.1499 407.356 75.3 407.506 75.3H408.706C408.856 75.3 409.156 75.1501 409.156 75.0001V72.0001C409.156 71.7001 409.306 71.55 409.606 71.55H409.756L414.556 74.55C414.856 74.7 415.156 74.5499 415.156 74.3999V74.2501V73.2001C415.306 72.7501 415.306 72.7499 415.156 72.5999Z" fill="#CECECA"/>
<path d="M133.006 72.5999L127.456 69C127.156 68.85 127.006 68.5499 127.006 68.0999V63.2999C127.006 62.9999 127.306 62.6999 127.606 62.8499L132.556 66C132.856 66.15 133.156 65.9999 133.156 65.8499V65.7001V64.6498C133.156 64.4998 133.006 64.2001 132.856 64.2001L127.456 60.75C127.156 60.6 127.006 60.3 127.006 60V55.5C127.006 55.35 127.156 55.0499 127.306 55.0499C127.456 55.0499 127.456 55.0501 127.606 55.2001L132.406 58.3499C132.706 58.4999 133.006 58.3501 133.006 58.2001C133.006 58.2001 133.006 58.1999 133.006 58.0499V57C133.006 56.85 132.856 56.5499 132.706 56.5499L126.106 52.3499H125.956C125.806 52.3499 125.806 52.3499 125.806 52.3499L119.206 56.5499C119.056 56.6999 118.906 56.85 118.906 57V58.0499C118.906 58.3499 119.206 58.4999 119.506 58.3499C119.506 58.3499 119.506 58.3499 119.656 58.3499L124.456 55.2001C124.606 55.0501 124.906 55.0501 124.906 55.2001C124.906 55.2001 125.056 55.35 125.056 55.5V60C125.056 60.3 124.906 60.6 124.606 60.75L119.206 64.2001C119.056 64.2001 118.906 64.4998 118.906 64.6498V65.7001C118.906 66.0001 119.206 66.1498 119.506 66.1498H119.656L124.606 63C124.906 62.85 125.206 63.1501 125.206 63.4501V68.25C125.206 68.55 125.056 68.8498 124.756 69.1498L119.206 72.75C119.056 72.75 119.056 72.8999 119.056 73.0499V74.0999C119.056 74.3999 119.356 74.5499 119.656 74.5499H119.806L124.456 71.5499C124.606 71.3999 124.906 71.5501 125.056 71.7001V71.8499V74.8499C125.056 75.1499 125.356 75.2999 125.506 75.2999H126.706C126.856 75.2999 127.156 75.15 127.156 75V72C127.156 71.7 127.306 71.5499 127.606 71.5499H127.756L132.556 74.5499C132.856 74.6999 133.156 74.5498 133.156 74.3998V74.25V73.2001C133.156 72.7501 133.006 72.7499 133.006 72.5999Z" fill="#CECECA"/>
<path d="M150.106 72.5999L144.556 69C144.256 68.85 144.106 68.5499 144.106 68.0999V63.2999C144.106 62.9999 144.406 62.6999 144.706 62.8499L149.656 66C149.956 66.15 150.256 65.9999 150.256 65.8499V65.7001V64.6498C150.256 64.4998 150.106 64.2001 149.956 64.2001L144.556 60.75C144.256 60.6 144.106 60.3 144.106 60V55.5C144.106 55.35 144.256 55.0499 144.406 55.0499C144.556 55.0499 144.556 55.0501 144.706 55.2001L149.506 58.3499C149.806 58.4999 150.106 58.3501 150.106 58.2001C150.106 58.2001 150.106 58.1999 150.106 58.0499V57C150.106 56.85 149.956 56.5499 149.806 56.5499L143.206 52.3499H143.056C142.906 52.3499 142.906 52.3499 142.906 52.3499L136.306 56.5499C136.156 56.6999 136.006 56.85 136.006 57V58.0499C136.006 58.3499 136.306 58.4999 136.606 58.3499C136.606 58.3499 136.606 58.3499 136.756 58.3499L141.556 55.2001C141.706 55.0501 142.006 55.0501 142.006 55.2001C142.006 55.2001 142.156 55.35 142.156 55.5V60C142.156 60.3 142.006 60.6 141.706 60.75L136.306 64.2001C136.156 64.3501 136.006 64.4998 136.006 64.6498V65.7001C136.006 66.0001 136.306 66.1498 136.606 66.1498H136.756L141.706 63C142.006 62.85 142.306 63.1501 142.306 63.4501V68.25C142.306 68.55 142.156 68.8498 141.856 69.1498L136.306 72.75C136.156 72.75 136.156 72.8999 136.156 73.0499V74.0999C136.156 74.3999 136.456 74.5499 136.756 74.5499H136.906L141.556 71.5499C141.706 71.3999 142.006 71.5501 142.156 71.7001V71.8499V74.8499C142.156 75.1499 142.456 75.2999 142.606 75.2999H143.806C143.956 75.2999 144.256 75.15 144.256 75V72C144.256 71.7 144.406 71.5499 144.706 71.5499H144.856L149.656 74.5499C149.956 74.6999 150.256 74.5498 150.256 74.3998V74.25V73.2001C150.256 72.7501 150.256 72.7499 150.106 72.5999Z" fill="#CECECA"/>
<path d="M711.706 72.75L706.156 69.1498C705.856 68.9998 705.706 68.7 705.706 68.25V63.4501C705.706 63.1501 706.006 62.85 706.306 63L711.256 66.1498C711.556 66.2998 711.856 66.15 711.856 66V65.8499V64.7999C711.856 64.6499 711.706 64.3499 711.556 64.3499L706.156 60.8998C705.856 60.7498 705.706 60.4498 705.706 60.1498V55.6498C705.706 55.4998 705.856 55.2001 706.006 55.2001C706.156 55.2001 706.156 55.1999 706.306 55.3499L711.106 58.5C711.406 58.65 711.706 58.4999 711.706 58.3499C711.706 58.3499 711.706 58.3501 711.706 58.2001V57.1498C711.706 56.9998 711.556 56.7001 711.406 56.7001L704.806 52.5H704.656C704.506 52.5 704.506 52.5 704.506 52.5L697.906 56.7001C697.756 56.8501 697.606 56.8498 697.606 57.1498V58.2001C697.606 58.5001 697.906 58.65 698.206 58.5H698.356L703.156 55.3499C703.306 55.1999 703.606 55.1999 703.606 55.3499C703.606 55.3499 703.756 55.4998 703.756 55.6498V60.1498C703.756 60.4498 703.606 60.7498 703.306 60.8998L697.906 64.3499C697.756 64.3499 697.606 64.6499 697.606 64.7999V65.8499C697.606 66.1499 697.906 66.2999 698.206 66.2999H698.356L703.306 63.1498C703.606 62.9998 703.906 63.2999 703.906 63.5999V68.3998C703.906 68.6998 703.756 68.9999 703.456 69.2999L697.906 72.8998C697.756 72.8998 697.756 73.0501 697.756 73.2001V74.25C697.756 74.55 698.056 74.7001 698.356 74.7001H698.506L703.156 71.7001C703.306 71.5501 703.606 71.6999 703.756 71.8499V72V75C703.756 75.3 704.056 75.4501 704.206 75.4501H705.406C705.556 75.4501 705.856 75.2998 705.856 75.1498V72.1498C705.856 71.8498 706.006 71.7001 706.306 71.7001H706.456L711.256 74.7001C711.556 74.8501 711.856 74.6999 711.856 74.5499V74.3998V73.3499C712.006 72.8999 711.856 72.75 711.706 72.75Z" fill="#CECECA"/>
<path d="M311.956 64.5V66.1498H309.556V67.7999H311.956V69.4501H308.656C308.206 69.4501 307.906 69.1501 307.906 68.7001V65.3998C307.906 64.9498 308.356 64.5 308.806 64.5C309.106 64.5 311.956 64.5 311.956 64.5Z" fill="#CECECA"/>
<path d="M311.657 70.3499C311.507 70.3499 311.206 70.3501 311.056 70.2001C310.906 70.0501 310.756 69.7499 310.756 69.5999V64.7999C310.756 64.3499 310.906 63.9001 311.056 63.4501C315.706 51.7501 324.706 45.5999 337.306 45.5999C350.506 45.5999 360.706 53.55 365.206 67.5C365.356 68.1 365.357 68.6999 364.907 69.2999C364.607 69.7499 364.007 70.0499 363.407 70.0499H357.857V68.3998H363.407C363.557 68.3998 363.556 68.4 363.706 68.25C363.706 68.1 363.856 68.1001 363.706 67.9501C359.356 54.7501 349.756 47.0999 337.306 47.0999C325.306 47.0999 317.056 52.7998 312.556 63.8998C312.406 64.0498 312.407 64.35 312.407 64.5V68.3998H317.206V70.0499L311.657 70.3499Z" fill="#CECECA"/>
<path d="M353.206 59.5499H320.656C320.206 59.5499 319.906 59.2498 319.906 58.6498C319.906 58.4998 319.906 58.3501 320.056 58.2001C323.806 52.6501 330.106 49.4998 336.856 49.6498C343.606 49.4998 350.056 52.8001 353.956 58.2001C354.256 58.5001 354.106 59.0998 353.806 59.3998C353.656 59.5498 353.506 59.5499 353.206 59.5499ZM322.306 57.8998H351.556C347.806 53.5498 342.406 51.1499 336.856 51.2999C331.156 51.1499 325.906 53.5498 322.306 57.8998Z" fill="#CECECA"/>
<path d="M327.256 70.5V68.8499L347.357 68.7001L347.956 70.5H327.256Z" fill="#CECECA"/>
<path d="M322.456 74.8499C319.156 74.8499 316.606 72.15 316.606 69C316.606 65.7 319.306 63.1498 322.456 63.1498C325.756 63.1498 328.306 65.85 328.306 69C328.306 72.15 325.606 74.8499 322.456 74.8499ZM322.456 64.7999C320.056 64.7999 318.256 66.75 318.256 69C318.256 71.4 320.206 73.2001 322.456 73.2001C324.856 73.2001 326.656 71.25 326.656 69C326.656 66.6 324.706 64.7999 322.456 64.7999Z" fill="#CECECA"/>
<path d="M322.456 72C320.806 72 319.456 70.65 319.456 69C319.456 67.35 320.806 66 322.456 66C324.106 66 325.456 67.35 325.456 69C325.306 70.65 324.106 72 322.456 72ZM322.456 67.6498C321.706 67.6498 321.106 68.25 321.106 69C321.106 69.75 321.706 70.3499 322.456 70.3499C323.206 70.3499 323.806 69.75 323.806 69C323.656 68.25 323.056 67.6498 322.456 67.6498Z" fill="#CECECA"/>
<path d="M353.206 74.8499C349.906 74.8499 347.356 72.15 347.356 69C347.356 65.7 350.056 63.1498 353.206 63.1498C356.356 63.1498 359.056 65.85 359.056 69C359.056 72.15 356.356 74.8499 353.206 74.8499ZM353.206 64.7999C350.806 64.7999 349.006 66.75 349.006 69C349.006 71.4 350.956 73.2001 353.206 73.2001C355.606 73.2001 357.406 71.25 357.406 69C357.406 66.6 355.456 64.7999 353.206 64.7999Z" fill="#CECECA"/>
<path d="M353.206 72C351.556 72 350.206 70.65 350.206 69C350.206 67.35 351.556 66 353.206 66C354.856 66 356.206 67.35 356.206 69C356.056 70.65 354.856 72 353.206 72ZM353.206 67.6498C352.456 67.6498 351.856 68.25 351.856 69C351.856 69.75 352.456 70.3499 353.206 70.3499C353.956 70.3499 354.556 69.75 354.556 69C354.406 68.25 353.806 67.6498 353.206 67.6498Z" fill="#CECECA"/>
<path d="M340.006 50.0999H338.056V58.6498H340.006V50.0999Z" fill="#CECECA"/>
<path d="M694.606 72.8999L689.056 69.3C688.756 69.15 688.606 68.8499 688.606 68.3999V63.5999C688.606 63.2999 688.906 62.9999 689.206 63.1499L694.156 66.3C694.456 66.45 694.756 66.2999 694.756 66.1499V66.0001V64.9501C694.756 64.8001 694.606 64.5001 694.456 64.5001L689.056 61.05C688.756 60.9 688.606 60.6 688.606 60.3V55.8C688.606 55.65 688.756 55.3499 688.906 55.3499C689.056 55.3499 689.056 55.3501 689.206 55.5001L694.006 58.6499C694.306 58.7999 694.606 58.6501 694.606 58.5001C694.606 58.5001 694.606 58.4999 694.606 58.3499V57.3C694.606 57.15 694.456 56.8499 694.306 56.8499L687.706 52.6499C687.556 52.4999 687.406 52.4999 687.256 52.6499L680.656 56.8499C680.506 56.9999 680.356 57.15 680.356 57.3V58.3499C680.356 58.6499 680.656 58.7999 680.956 58.6499C680.956 58.6499 680.956 58.6499 681.106 58.6499L685.906 55.5001C686.056 55.3501 686.356 55.3501 686.356 55.5001C686.356 55.5001 686.506 55.65 686.506 55.8V60.3C686.506 60.6 686.356 60.9 686.056 61.05L680.656 64.5001C680.506 64.5001 680.356 64.8001 680.356 64.9501V66.0001C680.356 66.3001 680.656 66.4501 680.956 66.4501H681.106L686.056 63.3C686.356 63.15 686.656 63.4501 686.656 63.7501V68.55C686.656 68.85 686.506 69.1501 686.206 69.4501L680.656 73.05C680.506 73.05 680.506 73.1999 680.506 73.3499V74.3999C680.506 74.6999 680.806 74.8499 681.106 74.8499H681.256L685.906 71.8499C686.056 71.6999 686.356 71.8501 686.506 72.0001V72.1499V75.1499C686.506 75.4499 686.806 75.5999 686.956 75.5999H688.156C688.306 75.5999 688.606 75.45 688.606 75.3V72.3C688.606 72 688.756 71.8499 689.056 71.8499H689.206L694.006 74.8499C694.306 74.9999 694.606 74.8501 694.606 74.7001V74.55V73.5001C694.906 73.0501 694.756 72.8999 694.606 72.8999Z" fill="#CECECA"/>
<path d="M677.956 72.8998L672.406 69.2999C672.106 69.1499 671.956 68.8498 671.956 68.3998V63.5999C671.956 63.2999 672.256 62.9998 672.556 63.1498L677.506 66.2999C677.806 66.4499 678.106 66.2998 678.106 66.1498V66V64.9501C678.106 64.8001 677.956 64.5 677.806 64.5L672.406 61.0499C672.106 60.8999 671.956 60.5999 671.956 60.2999V55.7999C671.956 55.6499 672.106 55.3499 672.256 55.3499C672.406 55.3499 672.406 55.35 672.556 55.5L677.356 58.6498C677.656 58.7998 677.956 58.65 677.956 58.5C677.956 58.5 677.956 58.4999 677.956 58.3499V57.2999C677.956 57.1499 677.806 56.8499 677.656 56.8499L671.056 52.6498H670.906C670.756 52.6498 670.756 52.6498 670.756 52.6498L664.156 56.8499C664.006 56.9999 663.856 56.9999 663.856 57.2999V58.3499C663.856 58.6499 664.156 58.7998 664.456 58.6498H664.606L669.406 55.5C669.556 55.35 669.856 55.35 669.856 55.5C669.856 55.5 670.006 55.6499 670.006 55.7999V60.2999C670.006 60.5999 669.856 60.8999 669.556 61.0499L664.156 64.5C664.006 64.5 663.856 64.8001 663.856 64.9501V66C663.856 66.3 664.156 66.4501 664.456 66.4501H664.606L669.556 63.2999C669.856 63.1499 670.156 63.45 670.156 63.75V68.5499C670.156 68.8499 670.006 69.1501 669.706 69.4501L664.156 73.0499C664.006 73.0499 664.006 73.1999 664.006 73.3499V74.3998C664.006 74.6998 664.306 74.8499 664.606 74.8499H664.756L669.406 71.8499C669.556 71.6999 669.856 71.85 670.006 72V72.1498V75.1498C670.006 75.4498 670.306 75.5999 670.456 75.5999H671.656C671.806 75.5999 672.106 75.4499 672.106 75.2999V72.2999C672.106 71.9999 672.256 71.8499 672.556 71.8499H672.706L677.506 74.8499C677.806 74.9999 678.106 74.8501 678.106 74.7001V74.5499V73.5C678.106 73.05 678.106 72.8998 677.956 72.8998Z" fill="#CECECA"/>
<path d="M588.556 54.5999H589.456C589.756 54.5999 589.906 54.7499 589.906 55.0499V61.3499C589.906 61.6499 589.756 61.7999 589.456 61.7999H588.556C588.256 61.7999 588.106 61.6499 588.106 61.3499V55.0499C588.106 54.7499 588.406 54.5999 588.556 54.5999Z" fill="#CECECA"/>
<path d="M597.406 54.5999H598.306C598.606 54.5999 598.757 54.7499 598.757 55.0499V61.3499C598.757 61.6499 598.606 61.7999 598.306 61.7999H597.406C597.106 61.7999 596.956 61.6499 596.956 61.3499V55.0499C596.956 54.7499 597.256 54.5999 597.406 54.5999Z" fill="#CECECA"/>
<path d="M574.306 36.9001H575.206C575.506 36.9001 575.656 37.05 575.656 37.35V44.5501C575.656 44.8501 575.506 45.0002 575.206 45.0002H574.306C574.006 45.0002 573.856 44.8501 573.856 44.5501V37.35C573.856 37.05 574.006 36.9001 574.306 36.9001Z" fill="#CECECA"/>
<path d="M574.306 49.5H575.206C575.506 49.5 575.656 49.6501 575.656 49.9501V57.1498C575.656 57.4498 575.506 57.5999 575.206 57.5999H574.306C574.006 57.5999 573.856 57.4498 573.856 57.1498V49.9501C573.856 49.6501 574.006 49.5 574.306 49.5Z" fill="#CECECA"/>
<path d="M573.856 61.9501H574.757C575.057 61.9501 575.206 62.0998 575.206 62.3998V69.5999C575.206 69.8999 575.057 70.0499 574.757 70.0499H573.856C573.556 70.0499 573.406 69.8999 573.406 69.5999V62.3998C573.406 62.0998 573.706 61.9501 573.856 61.9501Z" fill="#CECECA"/>
<path d="M583.156 75.15H582.257C581.957 75.15 581.806 75.0003 581.806 74.7003V29.4001C581.806 29.1001 581.656 28.9501 581.356 28.9501H559.906C559.606 28.9501 559.456 29.1001 559.456 29.4001V34.0501C559.456 34.3501 559.306 34.5002 559.006 34.5002H558.106C557.806 34.5002 557.656 34.3501 557.656 34.0501V28.5002C557.656 27.7502 558.256 27.1501 559.006 27.1501H582.257C583.007 27.1501 583.606 27.7502 583.606 28.5002V74.7003C583.606 74.8503 583.456 75.15 583.156 75.15Z" fill="#CECECA"/>
<path d="M604.007 48.1498H583.456V49.9501H603.106V75.4501H604.906V49.0499C604.906 48.5999 604.457 48.1498 604.007 48.1498Z" fill="#CECECA"/>
<path d="M596.806 75.1498H595.756C595.606 75.1498 595.456 74.9999 595.456 74.8499V66.8998C595.456 66.7498 595.306 66.5999 595.156 66.5999H592.306C592.156 66.5999 592.006 66.7498 592.006 66.8998V74.8499C592.006 74.9999 591.856 75.1498 591.706 75.1498H590.656C590.506 75.1498 590.356 74.9999 590.356 74.8499V66C590.356 65.25 590.956 64.7999 591.556 64.7999H596.206C596.956 64.7999 597.406 65.4 597.406 66V74.8499C597.106 74.9999 596.956 75.1498 596.806 75.1498Z" fill="#CECECA"/>
<path d="M556.606 45.5999C552.256 38.9999 543.556 37.35 536.956 41.55C535.306 42.6 533.806 44.1001 532.756 45.7501L532.456 46.2H534.856L535.006 46.05C539.056 40.65 546.556 39.6001 551.956 43.5001C552.856 44.1001 553.606 44.8501 554.356 45.7501L554.506 45.9001H556.906L556.606 45.5999Z" fill="#CECECA"/>
<path d="M518.056 51.1498H522.406C522.406 51.1498 522.556 51.0001 522.556 50.7001V49.3499C522.556 49.1999 522.556 48.8998 522.406 48.8998H518.056C518.056 48.8998 517.906 49.0499 517.906 49.3499V50.7001C517.906 51.0001 517.906 51.1498 518.056 51.1498Z" fill="#CECECA"/>
<path d="M513.256 71.3996C510.106 71.3996 507.556 68.9997 507.556 65.8497V23.9998C507.556 20.9998 509.956 18.4497 513.106 18.4497H513.256C516.256 18.4497 518.806 20.8498 518.806 23.9998V65.8497C518.806 68.8497 516.256 71.3996 513.256 71.3996ZM513.106 20.2498C511.006 20.2498 509.356 21.8998 509.356 23.9998V65.8497C509.356 67.9497 511.006 69.5997 513.106 69.5997H513.256C515.356 69.5997 517.006 67.9497 517.006 65.8497V23.9998C517.006 21.8998 515.356 20.2498 513.106 20.2498Z" fill="#CECECA"/>
<path d="M512.956 24.15V25.1999H511.756V21.75H513.256C513.406 21.75 513.556 21.75 513.706 21.75C513.856 21.75 514.006 21.9 514.156 21.9C514.306 22.05 514.456 22.0499 514.456 22.1999C514.606 22.3499 514.606 22.4999 514.606 22.7999C514.606 22.9499 514.606 23.25 514.456 23.4C514.456 23.55 514.306 23.6999 514.156 23.6999C514.006 23.8499 513.856 23.8499 513.706 23.8499C513.556 23.8499 513.406 23.8499 513.256 23.8499L512.956 24.15ZM512.956 22.7999V23.4H513.256C513.406 23.4 513.406 23.4 513.556 23.4C513.706 23.4 513.706 23.25 513.706 23.25V23.0999C513.706 23.0999 513.706 23.0999 513.556 22.9499C513.556 22.9499 513.556 22.9499 513.406 22.9499H513.256L512.956 22.7999Z" fill="#CECECA"/>
<path d="M511.306 29.4C511.306 29.1 511.306 28.95 511.456 28.65C511.606 28.5 511.756 28.2 511.906 28.05C512.056 27.9 512.356 27.7501 512.506 27.7501C512.956 27.6001 513.556 27.6001 514.006 27.7501C514.156 27.9001 514.456 27.9 514.606 28.05C514.756 28.2 514.906 28.35 515.056 28.65C515.206 28.95 515.206 29.1 515.206 29.4C515.206 29.7 515.206 29.85 515.056 30.15C514.906 30.3 514.756 30.6001 514.606 30.7501C514.456 30.9001 514.156 31.05 514.006 31.05C513.556 31.2 512.956 31.2 512.506 31.05C512.356 30.9 512.056 30.9001 511.906 30.7501C511.756 30.6001 511.606 30.45 511.456 30.15C511.306 30 511.306 29.7 511.306 29.4ZM512.506 29.4C512.506 29.55 512.506 29.55 512.506 29.7C512.506 29.85 512.656 29.8501 512.656 30.0001L512.806 30.15C512.956 30.15 512.956 30.15 513.106 30.15C513.256 30.15 513.256 30.15 513.406 30.15C513.556 30.15 513.556 30.0001 513.556 30.0001C513.556 30.0001 513.706 29.85 513.706 29.7C513.706 29.55 513.706 29.55 513.706 29.4C513.706 29.25 513.706 29.2499 513.706 29.0999C513.706 28.9499 513.556 28.95 513.556 28.8C513.406 28.65 513.256 28.65 513.106 28.65C512.956 28.65 512.956 28.65 512.806 28.65C512.656 28.65 512.506 28.7999 512.506 29.0999C512.506 29.2499 512.506 29.25 512.506 29.4Z" fill="#CECECA"/>
<path d="M511.756 33.5999H513.256C513.406 33.5999 513.556 33.5999 513.706 33.5999C513.856 33.5999 514.006 33.75 514.156 33.75C514.306 33.9 514.456 33.8999 514.456 34.0499C514.606 34.1999 514.606 34.35 514.606 34.65C514.606 34.8 514.606 35.1 514.456 35.25C514.306 35.4 514.156 35.5499 514.006 35.5499L514.906 36.9H513.556L512.956 35.6999V36.9H511.756V33.5999ZM512.956 34.9499H513.256H513.406H513.556C513.556 34.9499 513.556 34.9499 513.706 34.7999V34.65V34.5C513.706 34.5 513.706 34.4999 513.556 34.3499H513.406H513.256H512.956V34.9499Z" fill="#CECECA"/>
<path d="M513.856 42.8998H512.656V40.4998H511.756V39.4497H514.606V40.4998H513.706L513.856 42.8998Z" fill="#CECECA"/>
<path d="M512.206 45.2999H513.406V47.7001H514.606V48.75H512.356V45.2999H512.206Z" fill="#CECECA"/>
<path d="M512.656 51.1498H513.856L515.206 54.5999H514.006L513.856 54.1498H512.806L512.656 54.5999H511.306L512.656 51.1498ZM513.256 52.3499L512.956 53.25H513.556L513.256 52.3499Z" fill="#CECECA"/>
<path d="M511.606 57H512.806L513.856 58.7999V57H514.906V60.4501H513.706L512.806 58.7999V60.4501H511.756L511.606 57Z" fill="#CECECA"/>
<path d="M511.606 66.2999V62.8499H512.956C513.256 62.8499 513.406 62.85 513.706 63C514.006 63 514.156 63.1499 514.306 63.2999C514.456 63.4499 514.606 63.6 514.756 63.75C514.906 64.2 515.056 64.7998 514.756 65.3998C514.606 65.5498 514.456 65.85 514.306 66C514.156 66.15 513.856 66.2999 513.706 66.2999C513.406 66.2999 513.256 66.4501 512.956 66.4501L511.606 66.2999ZM512.656 63.75V65.25H512.806C512.956 65.25 513.256 65.2499 513.406 65.0999C513.556 64.9499 513.706 64.8 513.556 64.5C513.556 64.35 513.556 64.0499 513.406 64.0499C513.256 63.8999 513.106 63.8998 512.806 63.8998H512.656V63.75Z" fill="#CECECA"/>
<path d="M518.056 40.9497H522.406C522.406 40.9497 522.556 40.7998 522.556 40.4998V39.1498C522.556 38.9998 522.556 38.6997 522.406 38.6997H518.056C518.056 38.6997 517.906 38.8498 517.906 39.1498V40.4998C517.906 40.7998 517.906 40.9497 518.056 40.9497Z" fill="#CECECA"/>
<path d="M567.856 75.1498H566.056V34.7999H523.306V75.1498H521.506V33.9C521.506 33.45 521.956 33 522.406 33H566.956C567.406 33 567.856 33.45 567.856 33.9V75.1498Z" fill="#CECECA"/>
<path d="M558.556 49.0497H556.756V47.2498H532.606V48.8996H530.806V46.3497C530.806 45.8997 531.256 45.4497 531.706 45.4497H557.506C557.956 45.4497 558.406 45.8997 558.406 46.3497L558.556 49.0497Z" fill="#CECECA"/>
<path d="M559.156 59.7001H530.206C529.756 59.7001 529.306 59.2499 529.306 58.7999V49.2001C529.306 48.7501 529.756 48.2999 530.206 48.2999H559.156C559.606 48.2999 560.056 48.7501 560.056 49.2001V58.7999C560.206 59.2499 559.756 59.7001 559.156 59.7001ZM531.106 57.8998H558.256V50.0999H531.106V57.8998Z" fill="#CECECA"/>
<path d="M535.006 51.75H536.206C536.506 51.75 536.656 51.9001 536.656 52.2001V55.7999C536.656 56.0999 536.506 56.25 536.206 56.25H535.006C534.706 56.25 534.556 56.0999 534.556 55.7999V52.2001C534.406 51.9001 534.706 51.75 535.006 51.75Z" fill="#CECECA"/>
<path d="M544.156 51.75H545.356C545.656 51.75 545.806 51.9001 545.806 52.2001V55.7999C545.806 56.0999 545.656 56.25 545.356 56.25H544.156C543.856 56.25 543.706 56.0999 543.706 55.7999V52.2001C543.706 51.9001 543.856 51.75 544.156 51.75Z" fill="#CECECA"/>
<path d="M553.306 51.75H554.506C554.806 51.75 554.956 51.9001 554.956 52.2001V55.7999C554.956 56.0999 554.806 56.25 554.506 56.25H553.306C553.006 56.25 552.856 56.0999 552.856 55.7999V52.2001C552.856 51.9001 553.006 51.75 553.306 51.75Z" fill="#CECECA"/>
<path d="M559.906 75.2999H558.406V67.7999H555.406V75.2999H553.906V67.0499C553.906 66.5999 554.206 66.2999 554.656 66.2999H559.156C559.606 66.2999 559.906 66.5999 559.906 67.0499V75.2999Z" fill="#CECECA"/>
<path d="M536.056 75.2999H534.556V67.7999H531.556V75.2999H530.056V67.0499C530.056 66.5999 530.356 66.2999 530.806 66.2999H535.306C535.756 66.2999 536.056 66.5999 536.056 67.0499V75.2999Z" fill="#CECECA"/>
<path d="M547.756 75.2999H546.256V67.7999H543.256V75.2999H541.756V67.0499C541.756 66.5999 542.056 66.2999 542.506 66.2999H547.006C547.456 66.2999 547.756 66.5999 547.756 67.0499V75.2999Z" fill="#CECECA"/>
<path d="M7.45637 45.5995L7.00639 45.4496L1.90644 42.2996C1.15644 41.8496 0.706367 40.9496 0.706367 40.0496V37.0496C0.556367 36.1496 1.30642 35.2497 2.35642 35.2497C2.65642 35.2497 2.95639 35.2496 3.25639 35.3996L7.45637 37.4997L11.8064 35.3996C12.4064 35.0996 13.0064 35.0996 13.4564 35.5496C13.9064 35.8496 14.2064 36.4496 14.2064 37.1996V40.3495C14.2064 41.2495 13.7564 42.1495 13.0064 42.5995L7.45637 45.5995ZM12.1064 37.0496L7.90644 39.1496C7.60644 39.2996 7.30639 39.2996 7.00639 39.1496L2.8064 37.0496L2.50639 37.1996V39.8996C2.50639 40.1996 2.6564 40.4996 2.8064 40.6496L7.45637 43.4997L11.9564 40.7996C12.2564 40.6496 12.2564 40.3496 12.2564 40.0496V37.1996L12.1064 37.0496Z" fill="#CECECA"/>
<path d="M7.45637 55.4999L7.00639 55.3497L1.90644 52.1999C1.15644 51.7499 0.706367 50.8499 0.706367 49.9499V46.9498C0.556367 46.0498 1.30642 45.1498 2.35642 45.1498C2.65642 45.1498 2.95639 45.1498 3.25639 45.2998L7.45637 47.3998L11.8064 45.2998C12.4064 44.9998 13.0064 44.9998 13.4564 45.4498C13.9064 45.7498 14.2064 46.3497 14.2064 47.0997V50.2499C14.2064 51.1499 13.7564 52.0499 13.0064 52.4999L7.45637 55.4999ZM12.1064 46.9498L7.75639 49.0498C7.45639 49.1998 7.15642 49.1998 6.85642 49.0498L2.65644 46.9498L2.50639 47.0997V49.7998C2.50639 50.0998 2.6564 50.3998 2.8064 50.5498L7.45637 53.3996L11.9564 50.6999C12.2564 50.5499 12.2564 50.2499 12.2564 49.9499V47.2499L12.1064 46.9498Z" fill="#CECECA"/>
<path d="M7.45637 65.2498L7.00639 65.0996L1.90644 61.9499C1.15644 61.4999 0.706367 60.5999 0.706367 59.6999V56.6999C0.556367 55.7999 1.30642 54.8996 2.35642 54.8996C2.65642 54.8996 2.95639 54.8997 3.25639 55.0497L7.45637 57.1496L11.8064 55.0497C12.4064 54.7497 13.0064 54.7499 13.4564 55.1999C13.9064 55.4999 14.2064 56.0996 14.2064 56.8496V59.9998C14.2064 60.8998 13.7564 61.7998 13.0064 62.2498L7.45637 65.2498ZM12.1064 56.8496L7.75639 58.9499C7.45639 59.0999 7.15642 59.0999 6.85642 58.9499L2.65644 56.8496L2.35642 56.9998V59.6999C2.35642 59.9999 2.50644 60.2999 2.65644 60.4499L7.3064 63.2997L11.8064 60.5996C12.1064 60.4496 12.1064 60.1496 12.1064 59.8496V56.9998V56.8496Z" fill="#CECECA"/>
<path d="M7.00641 75.1497C6.70641 75.1497 6.55643 75 6.55643 74.7V38.2499C6.55643 38.0999 6.25643 38.0997 6.55643 38.0997H7.60645C7.75645 38.0997 8.35645 38.0999 8.35645 38.2499V74.7C8.35645 75 8.20647 75.1497 7.90647 75.1497H7.00641Z" fill="#CECECA"/>
<path d="M23.9564 45.5995L23.5064 45.4496L18.1064 42.2996C17.2064 41.8496 16.7564 40.9496 16.6064 40.0496V37.0496C16.7564 35.8496 17.8064 35.0997 18.8564 35.2497C19.0064 35.2497 19.3064 35.3996 19.4564 35.3996L23.8064 37.4997L28.1565 35.3996C28.7565 35.0996 29.5064 35.0996 29.9564 35.5496C30.5564 35.8496 30.8564 36.4496 30.8564 37.1996V40.3495C30.8564 41.2495 30.2564 42.1495 29.5064 42.5995L23.9564 45.5995ZM29.0564 37.0496L24.4065 39.1496C24.1065 39.2996 23.8064 39.2996 23.5064 39.1496L18.7064 36.8996H18.4065V39.8996C18.4065 40.1996 18.7064 40.4996 19.0064 40.6496L23.8064 43.4997L28.6064 40.7996C28.9064 40.6496 29.0564 40.3496 29.0564 40.0496V37.1996V37.0496Z" fill="#CECECA"/>
<path d="M23.9564 55.4999L23.5064 55.3497L18.1064 52.1999C17.2064 51.7499 16.7564 50.8499 16.6064 49.9499V46.9498C16.7564 45.7498 17.8064 44.9998 18.8564 45.1498C19.0064 45.1498 19.3064 45.2998 19.4564 45.2998L23.8064 47.3998L28.1565 45.2998C28.7565 44.9998 29.5064 44.9998 29.9564 45.4498C30.5564 45.7498 30.8564 46.3497 30.8564 47.0997V50.2499C30.8564 51.1499 30.2564 52.0499 29.5064 52.4999L23.9564 55.4999ZM29.0564 46.7998L24.4065 48.8996C24.1065 49.0496 23.8064 49.0496 23.5064 48.8996L18.7064 46.6498H18.4065V49.6496C18.4065 49.9496 18.7064 50.2496 19.0064 50.3996L23.8064 53.2499L28.6064 50.5498C28.9064 50.3998 29.0564 50.0998 29.0564 49.7998V46.9498V46.7998Z" fill="#CECECA"/>
<path d="M23.9564 65.2498L23.5064 65.0996L18.1064 61.9499C17.2064 61.4999 16.7564 60.5999 16.6064 59.6999V56.6999C16.7564 55.4999 17.8064 54.7496 18.8564 54.8996C19.0064 54.8996 19.3064 55.0497 19.4564 55.0497L23.8064 57.1496L28.1565 55.0497C28.7565 54.7497 29.5064 54.7499 29.9564 55.1999C30.5564 55.4999 30.8564 56.0996 30.8564 56.8496V59.9998C30.8564 60.8998 30.2564 61.7998 29.5064 62.2498L23.9564 65.2498ZM29.0564 56.6999L24.4065 58.7997C24.1065 58.9497 23.8064 58.9497 23.5064 58.7997L18.7064 56.5497H18.4065V59.5497C18.4065 59.8497 18.7064 60.1497 19.0064 60.2997L23.8064 63.1496L28.6064 60.4499C28.9064 60.2999 29.0564 59.9999 29.0564 59.6999V56.8496V56.6999Z" fill="#CECECA"/>
<path d="M23.2063 75.1495C23.0563 75.1495 22.7563 74.9998 22.7563 74.6998V38.0995C22.7563 37.9495 23.0564 37.9496 23.3564 37.9496H24.4064C24.5564 37.9496 24.7063 37.9495 24.7063 38.0995V74.6998C24.7063 74.8498 24.5563 75.1495 24.2563 75.1495H23.2063Z" fill="#CECECA"/>
<path d="M39.4065 45.5997L38.9564 45.4498L33.8565 42.2998C33.1065 41.8498 32.6564 40.9498 32.8064 40.0498V37.0498C32.8064 36.4498 32.9564 35.8498 33.5564 35.3998C34.0064 35.0998 34.7564 34.9499 35.2064 35.2499L39.4065 37.3497L43.6065 35.2499C44.2065 34.9499 44.8065 34.9498 45.4065 35.3998C46.0065 35.6998 46.3065 36.2998 46.1565 37.0498V40.1998C46.1565 41.0998 45.7064 41.9998 44.9564 42.4498L39.4065 45.5997ZM44.3565 37.0498L39.8565 39.1498C39.5565 39.2998 39.2564 39.2998 38.9564 39.1498L34.9065 37.0498L34.7564 37.1998V39.8998C34.7564 40.1998 34.7564 40.4998 35.0564 40.6498L39.7064 43.4999L44.3565 40.7998C44.6565 40.6498 44.6565 40.3498 44.6565 40.0498V37.1998L44.3565 37.0498Z" fill="#CECECA"/>
<path d="M39.4065 55.4996L38.9564 55.3494L33.8565 52.1996C33.1065 51.7496 32.6564 50.8496 32.8064 49.9496V46.9495C32.8064 46.3495 32.9564 45.7495 33.5564 45.2995C34.0064 44.9995 34.7564 44.8495 35.2064 45.1495L39.4065 47.2496L43.6065 45.1495C44.2065 44.8495 44.8065 44.8495 45.4065 45.2995C46.0065 45.5995 46.3065 46.1995 46.1565 46.9495V50.0994C46.1565 50.9994 45.7064 51.8994 44.9564 52.3494L39.4065 55.4996ZM44.3565 46.9495L39.8565 49.0495C39.5565 49.1995 39.2564 49.1995 38.9564 49.0495L34.9065 46.9495L34.7564 47.0994V49.7995C34.7564 50.0995 34.7564 50.3995 35.0564 50.5495L39.7064 53.3993L44.3565 50.6996C44.6565 50.5496 44.6565 50.2496 44.6565 49.9496V47.0994L44.3565 46.9495Z" fill="#CECECA"/>
<path d="M39.4065 65.2497L38.9564 65.0995L33.8565 61.9497C33.1065 61.4997 32.6564 60.5997 32.8064 59.6997V56.6997C32.8064 56.0997 32.9564 55.4996 33.5564 55.0496C34.0064 54.7496 34.7564 54.5994 35.2064 54.8994L39.4065 56.9997L43.6065 54.8994C44.2065 54.5994 44.8065 54.5996 45.4065 55.0496C46.0065 55.3496 46.3065 55.9497 46.1565 56.6997V59.8495C46.1565 60.7495 45.7064 61.6495 44.9564 62.0995L39.4065 65.2497ZM44.3565 56.6997L39.8565 58.7996C39.5565 58.9496 39.2564 58.9496 38.9564 58.7996L34.9065 56.6997L34.7564 56.8495V59.5496C34.7564 59.8496 34.7564 60.1496 35.0564 60.2996L39.7064 63.1494L44.3565 60.4497C44.6565 60.2997 44.6565 59.9997 44.6565 59.6997V56.6997H44.3565Z" fill="#CECECA"/>
<path d="M39.1065 75.1495C38.8065 75.1495 38.6565 74.9998 38.6565 74.6998V38.2498C38.6565 38.0998 39.1065 38.0996 39.4065 38.0996H40.0064C40.1564 38.0996 40.4564 38.0998 40.4564 38.2498V74.6998C40.4564 74.9998 40.3064 75.1495 40.0064 75.1495H39.1065Z" fill="#CECECA"/>
<path d="M449.806 0H451.156C451.306 0 451.306 0.149963 451.306 0.149963V75C451.306 75.15 451.156 75.1498 451.156 75.1498H449.806C449.656 75.1498 449.656 75 449.656 75V0.149963C449.656 -3.66233e-05 449.656 0 449.806 0Z" fill="#CECECA"/>
<path d="M456.556 75.1497H455.206C455.056 75.1497 455.056 74.9999 455.056 74.9999V18.4498C455.056 18.4498 455.056 18.2998 454.906 18.2998L450.106 14.9999C449.956 14.9999 449.956 14.8498 450.106 14.6998L450.856 13.6499C450.856 13.4999 451.006 13.4999 451.156 13.6499L456.256 17.2499C456.556 17.3999 456.706 17.8499 456.706 18.1499V75.1497C456.706 75.1497 456.706 75.1497 456.556 75.1497Z" fill="#CECECA"/>
<path d="M461.956 75.1499H460.606C460.456 75.1499 460.456 75.0001 460.456 75.0001V37.2C460.456 37.2 460.456 37.05 460.306 37.05L455.656 33.5999C455.506 33.5999 455.506 33.45 455.656 33.3L456.406 32.2501C456.406 32.1001 456.556 32.1001 456.706 32.2501L461.656 36.0001C461.956 36.1501 462.106 36.6 462.106 36.9V75.1499H461.956Z" fill="#CECECA"/>
<path d="M465.856 60H467.206C467.356 60 467.356 60.1498 467.356 60.1498V75C467.356 75.15 467.206 75.1498 467.206 75.1498H465.856C465.706 75.1498 465.706 75 465.706 75V60.1498C465.706 59.9998 465.856 60 465.856 60Z" fill="#CECECA"/>
<path d="M471.256 63.5999H472.606C472.756 63.5999 472.756 63.75 472.756 63.75V75C472.756 75.15 472.606 75.1498 472.606 75.1498H471.256C471.106 75.1498 471.106 75 471.106 75V63.75C471.106 63.6 471.256 63.5999 471.256 63.5999Z" fill="#CECECA"/>
<path d="M478.006 75.1499H476.656C476.506 75.1499 476.506 75.0001 476.506 75.0001V68.3999C476.506 68.3999 476.506 68.2501 476.356 68.2501L460.906 56.7001C460.756 56.7001 460.756 56.5499 460.906 56.3999L461.656 55.3499C461.656 55.1999 461.806 55.1999 461.956 55.3499L477.856 67.2001C478.156 67.3501 478.306 67.7999 478.306 68.0999V75.1499C478.306 75.1499 478.156 75.1499 478.006 75.1499Z" fill="#CECECA"/>
<path d="M476.657 0H478.006C478.156 0 478.157 0.149963 478.157 0.149963V75C478.157 75.15 478.006 75.1498 478.006 75.1498H476.657C476.507 75.1498 476.506 75 476.506 75V0.149963C476.506 -3.66233e-05 476.507 0 476.657 0Z" fill="#CECECA"/>
<path d="M483.406 75.1497H482.056C481.906 75.1497 481.906 74.9999 481.906 74.9999V18.4498C481.906 18.4498 481.906 18.2998 481.756 18.2998L476.956 14.9999C476.806 14.9999 476.806 14.8498 476.956 14.6998L477.706 13.6499C477.706 13.4999 477.856 13.4999 478.006 13.6499L483.106 17.2499C483.406 17.3999 483.556 17.8499 483.556 18.1499V75.1497C483.706 75.1497 483.556 75.1497 483.406 75.1497Z" fill="#CECECA"/>
<path d="M488.806 75.1499H487.456C487.306 75.1499 487.306 75.0001 487.306 75.0001V37.2C487.306 37.2 487.306 37.05 487.156 37.05L482.506 33.5999C482.356 33.5999 482.356 33.45 482.506 33.3L483.256 32.2501C483.256 32.1001 483.406 32.1001 483.556 32.2501L488.506 36.0001C488.806 36.1501 488.956 36.6 488.956 36.9V75.1499C488.956 75.1499 488.956 75.1499 488.806 75.1499Z" fill="#CECECA"/>
<path d="M492.856 60H494.206C494.356 60 494.356 60.1498 494.356 60.1498V75C494.356 75.15 494.206 75.1498 494.206 75.1498H492.856C492.706 75.1498 492.706 75 492.706 75V60.1498C492.556 59.9998 492.706 60 492.856 60Z" fill="#CECECA"/>
<path d="M498.106 63.5999H499.456C499.606 63.5999 499.606 63.75 499.606 63.75V75C499.606 75.15 499.456 75.1498 499.456 75.1498H498.106C497.956 75.1498 497.956 75 497.956 75V63.75C497.956 63.6 498.106 63.5999 498.106 63.5999Z" fill="#CECECA"/>
<path d="M504.856 75.1499H503.506C503.356 75.1499 503.356 75.0001 503.356 75.0001V68.3999C503.356 68.3999 503.356 68.2501 503.206 68.2501L487.756 56.7001C487.606 56.7001 487.606 56.5499 487.756 56.3999L488.506 55.3499C488.506 55.1999 488.656 55.1999 488.806 55.3499L504.706 67.2001C505.006 67.3501 505.156 67.7999 505.156 68.0999V75.1499C505.156 75.1499 505.006 75.1499 504.856 75.1499Z" fill="#CECECA"/>
<path d="M624.556 53.25C623.506 52.35 622.756 51.7499 622.456 51.5999C620.806 33.2999 613.156 25.7999 610.306 25.7999C609.706 25.7999 609.106 26.0999 608.806 26.5499C608.206 27.5999 608.807 29.1 609.257 30C608.657 30.6 607.606 31.6499 606.556 32.8499C603.706 35.9999 603.406 37.1999 603.856 37.9499C604.456 38.6999 605.206 39 606.106 39.15C607.756 39.45 609.406 39.5999 611.056 39.2999C611.956 44.5499 612.256 49.9501 611.806 55.2001C611.356 60.7501 611.207 62.6999 610.907 65.0999C610.907 65.6999 610.756 66.4501 610.606 67.2001C609.856 74.4001 610.156 74.5501 610.456 74.7001C610.456 74.7001 610.456 74.7001 610.606 74.7001C610.756 74.8501 611.056 75 611.206 75L616.007 75.1498C616.607 75.1498 616.906 74.7 617.056 74.25C617.056 70.8 617.206 67.5001 617.806 64.2001C617.806 64.0501 618.406 63.7499 622.456 64.0499H622.606V63.8998C622.606 63.4498 622.607 62.8498 622.907 62.3998V62.25H622.757C616.757 61.8 616.456 62.3999 616.306 62.5499C615.856 63.4499 615.556 70.9499 615.556 73.3499C615.106 73.4999 614.656 73.5 614.206 73.5C614.056 73.5 613.907 73.5 613.907 73.5H612.706C612.406 73.5 611.956 73.1998 611.956 72.8998C611.956 70.4998 612.106 67.9499 612.556 65.5499C612.856 62.8499 613.156 59.55 613.606 55.5C614.056 49.65 613.606 43.7999 612.556 38.0999L612.407 37.65C612.407 37.5 612.256 37.3499 612.106 37.3499C611.956 37.3499 611.807 37.3499 611.657 37.3499L611.206 37.65C610.156 37.95 609.106 37.9499 608.056 37.7999C607.156 37.7999 606.256 37.4999 605.356 37.1999C606.856 34.7999 608.807 32.7 610.907 30.75L611.056 30.5999C611.206 30.4499 611.356 29.9999 611.206 29.8499V29.6999C610.756 28.9499 610.456 28.1999 610.306 27.2999C610.306 27.2999 610.306 27.2999 610.456 27.2999C611.056 27.2999 613.306 28.35 615.706 33C615.856 33.3 616.007 33.45 616.007 33.75C617.807 37.2 619.006 39.4499 620.956 52.0499V52.5L621.257 52.7999C621.257 52.7999 622.157 53.3999 623.507 54.5999L623.657 54.75V54.5999C623.957 54.1499 624.256 53.8499 624.706 53.5499L624.556 53.25Z" fill="#CECECA"/>
<path d="M611.806 34.7999C612.386 34.7999 612.856 34.3298 612.856 33.7499C612.856 33.17 612.386 32.6998 611.806 32.6998C611.226 32.6998 610.756 33.17 610.756 33.7499C610.756 34.3298 611.226 34.7999 611.806 34.7999Z" fill="#CECECA"/>
<path d="M645.856 58.5001C646.436 58.5001 646.906 58.0301 646.906 57.4502C646.906 56.8703 646.436 56.3999 645.856 56.3999C645.276 56.3999 644.806 56.8703 644.806 57.4502C644.806 58.0301 645.276 58.5001 645.856 58.5001Z" fill="#CECECA"/>
<path d="M659.056 61.0499L658.456 60.2999C658.306 59.9999 658.007 60.1498 658.007 60.1498C657.107 60.8998 656.056 61.65 654.856 62.25C654.856 60.3 654.556 58.3498 654.106 56.3998C653.656 54.1498 652.756 52.1998 651.406 50.3998C649.306 47.6998 645.257 44.4 637.757 44.4C633.257 44.1 628.757 46.05 625.757 49.5C624.107 51.75 622.906 54.4498 622.456 57.1498C622.156 58.4998 622.156 64.5 622.156 64.5C622.156 65.55 622.156 66.7499 622.156 67.7999C622.156 69.8999 622.156 71.9999 622.156 74.0999C622.156 74.8499 622.756 75.2999 623.356 75.2999H629.956C630.706 75.2999 631.156 74.6999 631.156 74.0999V68.25C631.156 68.1 631.306 68.0999 631.306 68.0999H634.757C634.907 68.0999 634.906 68.25 634.906 68.25V74.0999C634.906 74.8499 635.506 75.2999 636.106 75.2999H642.556C643.156 75.2999 643.757 74.6999 643.757 74.0999L643.906 64.5C643.906 64.5 643.906 64.3499 644.056 64.3499H644.206C645.106 64.6499 646.156 64.8001 647.056 64.9501C647.206 68.1001 647.356 69.7499 647.356 70.0499C647.506 71.2499 647.956 72.4501 648.856 73.2001C649.756 74.1001 650.807 74.5501 652.007 74.7001H654.706C655.906 74.7001 656.806 73.7999 656.806 72.5999V72C656.806 70.8 655.906 69.8998 654.706 69.8998H654.406L654.556 66.1498C654.556 65.9998 654.556 65.6999 654.556 65.5499C654.556 65.3999 654.556 65.4 654.556 65.25C654.556 65.1 654.556 65.1001 654.556 64.9501C654.556 64.6501 654.556 64.5001 654.556 64.2001C654.856 64.0501 655.006 64.0498 655.306 63.8998H655.456C655.756 63.7498 656.056 63.6001 656.356 63.4501C656.956 63.1501 657.556 62.7 658.156 62.25C658.456 62.1 658.606 61.9498 658.906 61.6498C659.056 61.6498 659.056 61.4999 659.056 61.3499C659.056 61.1999 659.056 61.0499 659.056 61.0499ZM655.007 72V72.75C655.007 72.9 655.006 72.8998 654.856 72.8998H652.156C650.656 72.7498 649.456 71.5498 649.306 69.8998C649.156 69.2998 649.156 68.7 649.156 68.25V67.9501C649.156 67.5001 649.156 67.0499 649.156 66.5999C649.156 66.2999 649.156 66.1499 649.156 65.8499V65.3998V65.25C649.156 65.25 649.156 65.2499 649.156 65.0999C650.506 65.0999 651.706 64.9498 653.056 64.6498L652.906 70.5C652.906 71.1 653.356 71.7001 654.106 71.7001L655.007 72C655.007 71.85 655.007 71.85 655.007 72ZM635.656 66.2999H630.556C629.806 66.2999 629.356 66.9 629.356 67.5V73.3499C629.356 73.4999 629.206 73.5 629.206 73.5H624.106C623.956 73.5 623.956 73.3499 623.956 73.3499C623.956 71.3999 623.956 69.3001 623.806 67.2001C623.806 66.6001 623.806 65.85 623.806 65.25C623.806 64.95 623.806 64.6499 623.806 64.3499C623.656 60.4499 623.656 56.3999 625.456 52.7999C627.406 49.0499 631.006 46.6499 635.206 46.1999C635.656 46.1999 636.106 46.1999 636.406 46.1999C635.356 47.2499 634.756 48.4501 634.456 49.9501C634.006 53.8501 635.507 57.5999 638.507 60.2999C638.657 60.4499 638.806 60.4501 638.956 60.4501C639.106 60.4501 639.256 60.2998 639.406 60.1498L639.856 59.5499C640.006 59.3999 640.006 58.9499 639.856 58.7999C637.456 56.5499 636.256 53.4 636.406 50.25C636.556 49.2 637.156 48.15 638.056 47.4C638.956 46.65 640.006 46.35 641.056 46.5C645.856 47.1 649.906 50.2499 651.706 54.5999C652.006 55.3499 652.156 55.9501 652.306 56.7001C652.756 58.8001 652.906 60.9 653.056 63C649.906 63.9 646.456 63.6 643.456 62.25C643.006 62.1 642.407 62.2499 642.257 62.8499C642.257 62.9999 642.257 62.9998 642.257 63.1498L642.106 73.5C642.106 73.65 641.956 73.6498 641.956 73.6498H637.156C637.006 73.6498 637.007 73.5 637.007 73.5V67.6498C636.857 66.7498 636.256 66.2999 635.656 66.2999Z" fill="#CECECA"/>
<path d="M394.006 34.35C393.706 34.35 393.556 34.2001 393.406 34.0501L390.856 31.2L387.556 33.7501C387.256 34.0501 386.656 33.9 386.356 33.6L383.356 29.85C383.056 29.4 383.206 28.9501 383.506 28.6501C383.806 28.3501 384.406 28.5001 384.706 28.8001L387.256 31.95L390.556 29.4001C390.856 29.1001 391.456 29.2501 391.756 29.5501L394.156 32.2501L396.856 29.4001C397.006 29.2501 397.306 29.1 397.456 29.1C397.756 29.1 397.906 29.2501 398.056 29.4001L400.306 31.6501L402.856 28.5001C403.156 28.2001 403.756 28.05 404.056 28.35C404.356 28.65 404.506 29.2501 404.206 29.5501L401.056 33.45C400.756 33.75 400.156 33.9 399.856 33.6L397.606 31.35L394.906 34.35C394.456 34.2 394.156 34.35 394.006 34.35Z" fill="#CECECA"/>
<path d="M310.156 32.0999H311.206C311.506 32.0999 311.656 32.2499 311.656 32.5499V40.5C311.656 40.8 311.506 40.9499 311.206 40.9499H310.156C309.856 40.9499 309.706 40.8 309.706 40.5V32.5499C309.706 32.3999 310.006 32.0999 310.156 32.0999Z" fill="#CECECA"/>
<path d="M300.256 32.0999H301.306C301.606 32.0999 301.756 32.2499 301.756 32.5499V40.5C301.756 40.8 301.606 40.9499 301.306 40.9499H300.256C299.956 40.9499 299.806 40.8 299.806 40.5V32.5499C299.806 32.3999 299.956 32.0999 300.256 32.0999Z" fill="#CECECA"/>
<path d="M310.156 46.1997H311.206C311.506 46.1997 311.656 46.3498 311.656 46.6498V54.5997C311.656 54.8997 311.506 55.0497 311.206 55.0497H310.156C309.856 55.0497 309.706 54.8997 309.706 54.5997V46.6498C309.706 46.3498 310.006 46.1997 310.156 46.1997Z" fill="#CECECA"/>
<path d="M300.256 46.1997H301.306C301.606 46.1997 301.756 46.3498 301.756 46.6498V54.5997C301.756 54.8997 301.606 55.0497 301.306 55.0497H300.256C299.956 55.0497 299.806 54.8997 299.806 54.5997V46.6498C299.806 46.3498 299.956 46.1997 300.256 46.1997Z" fill="#CECECA"/>
<path d="M300.256 60.1498H301.306C301.606 60.1498 301.756 60.2999 301.756 60.5999V68.5499C301.756 68.8499 301.606 69 301.306 69H300.256C299.956 69 299.806 68.8499 299.806 68.5499V60.5999C299.806 60.2999 299.956 60.1498 300.256 60.1498Z" fill="#CECECA"/>
<path d="M290.806 75.1498H292.756V23.25H317.656V53.7001L319.606 52.2001V22.3499C319.606 21.7499 319.156 21.2999 318.556 21.2999H291.556C290.956 21.2999 290.506 21.7499 290.506 22.3499L290.806 75.1498Z" fill="#CECECA"/>
<path d="M285.106 40.1997L270.706 25.4998C270.406 25.1998 269.806 25.0498 269.356 25.4998L253.456 39.7498C253.306 39.8998 253.156 40.1998 253.156 40.4998V61.3497L255.106 61.4998V40.9497L270.106 27.4497L283.606 41.2498V75.2998L285.556 74.8497V40.7998C285.406 40.6498 285.256 40.3497 285.106 40.1997Z" fill="#CECECA"/>
<path d="M264.706 40.7999H265.456C265.756 40.7999 266.056 41.1 266.056 41.4V50.3998C266.056 50.6998 265.756 51 265.456 51H264.706C264.406 51 264.106 50.6998 264.106 50.3998V41.4C264.256 41.1 264.406 40.7999 264.706 40.7999Z" fill="#CECECA"/>
<path d="M272.806 40.8H273.556C273.856 40.8 274.156 41.1001 274.156 41.4001V50.3999C274.156 50.6999 273.856 51.0001 273.556 51.0001H272.806C272.506 51.0001 272.206 50.6999 272.206 50.3999V41.4001C272.356 41.1001 272.506 40.8 272.806 40.8Z" fill="#CECECA"/>
<path d="M236.656 74.8499H235.006V66.4501H231.706V75H230.056V65.7001C230.056 65.2501 230.506 64.7999 230.956 64.7999H236.056C236.506 64.7999 236.956 65.2501 236.956 65.7001L236.656 74.8499Z" fill="#CECECA"/>
<path d="M249.106 47.5497L233.956 36.2997C233.506 35.9997 233.056 35.9997 232.606 36.2997L217.306 47.8496C217.156 47.9996 217.006 48.1499 217.006 48.4499V75.2997L218.956 75.4499V48.7498L233.206 38.2498L247.306 48.5996V75.5996L249.256 75.7498V48.2997C249.406 47.8497 249.256 47.6997 249.106 47.5497Z" fill="#CECECA"/>
<path d="M237.856 49.05H237.106C236.806 49.05 236.656 49.2001 236.506 49.5001V56.55C236.506 56.85 236.806 57.0001 237.106 57.0001H237.856C238.156 57.0001 238.456 56.85 238.456 56.55V49.5001C238.306 49.2001 238.006 49.05 237.856 49.05Z" fill="#CECECA"/>
<path d="M229.606 49.0499H228.856C228.556 49.0499 228.256 49.2 228.256 49.5V56.5499C228.256 56.8499 228.556 57 228.856 57H229.606C229.906 57 230.206 56.8499 230.206 56.5499V49.5C230.206 49.2 229.906 49.0499 229.606 49.0499Z" fill="#CECECA"/>
<path d="M244.006 67.9501H242.356V75.2999H244.006V67.9501Z" fill="#CECECA"/>
<path d="M242.956 69.3001C242.806 69.3001 242.656 69.2999 242.506 69.1499L238.006 66.3001C237.406 65.8501 236.956 65.1002 237.106 64.2002V61.5001C236.956 60.9001 237.256 60.4501 237.706 60.0001C238.156 59.7001 238.756 59.7 239.206 59.85L242.956 61.6499L246.856 59.85C247.306 59.55 247.906 59.7001 248.506 60.0001C248.956 60.3001 249.256 60.9001 249.256 61.5001V64.35C249.256 65.25 248.806 66.0002 248.056 66.4502L243.406 69.1499C243.256 69.2999 243.106 69.3001 242.956 69.3001ZM238.906 61.6499L238.606 61.8001V64.2002C238.606 64.5002 238.606 64.8001 238.756 64.8001L242.956 67.5001L247.156 65.1C247.306 64.95 247.456 64.65 247.456 64.35V61.8001L247.156 61.5001L243.106 63.4502C242.806 63.6002 242.656 63.6002 242.356 63.4502L238.906 61.6499Z" fill="#CECECA"/>
<path d="M259.006 67.9501H257.356V75.2999H259.006V67.9501Z" fill="#CECECA"/>
<path d="M257.956 69.3001C257.806 69.3001 257.656 69.2999 257.506 69.1499L253.006 66.3001C252.406 65.8501 251.956 65.1002 252.106 64.2002V61.5001C251.956 60.9001 252.256 60.4501 252.706 60.0001C253.156 59.7001 253.756 59.7 254.206 59.85L257.956 61.6499L261.856 59.85C262.306 59.55 262.906 59.7001 263.506 60.0001C263.956 60.3001 264.256 60.9001 264.256 61.5001V64.35C264.256 65.25 263.806 66.0002 263.056 66.4502L258.406 69.1499C258.256 69.2999 258.106 69.3001 257.956 69.3001ZM253.906 61.6499L253.756 61.8001V64.2002C253.756 64.5002 253.756 64.8001 253.906 64.8001L258.106 67.5001L262.306 65.1C262.456 64.95 262.606 64.65 262.606 64.35V61.8001L262.306 61.6499L258.406 63.6C258.106 63.75 257.956 63.75 257.656 63.6L253.906 61.6499Z" fill="#CECECA"/>
<path d="M273.856 67.9501H272.206V75.2999H273.856V67.9501Z" fill="#CECECA"/>
<path d="M272.806 69.3001C272.656 69.3001 272.506 69.2999 272.356 69.1499L267.856 66.3001C267.256 65.8501 266.806 65.1002 266.956 64.2002V61.5001C266.806 60.9001 267.106 60.4501 267.556 60.0001C268.006 59.7001 268.606 59.7 269.056 59.85L272.806 61.6499L276.706 59.85C277.156 59.55 277.756 59.7001 278.356 60.0001C278.806 60.3001 279.106 60.9001 279.106 61.5001V64.35C279.106 65.25 278.656 66.0002 277.906 66.4502L273.256 69.1499C273.106 69.2999 272.956 69.3001 272.806 69.3001ZM268.756 61.6499L268.456 61.8001V64.2002C268.456 64.5002 268.456 64.8001 268.606 64.8001L272.806 67.5001L277.006 65.1C277.156 64.95 277.306 64.65 277.306 64.35V61.8001L277.006 61.5001L272.956 63.4502C272.656 63.6002 272.506 63.6002 272.206 63.4502L268.756 61.6499Z" fill="#CECECA"/>
<path d="M421.906 29.6997H422.956C423.106 29.6997 423.256 29.8498 423.256 29.9998V74.8497C423.256 74.9997 423.106 75.1496 422.956 75.1496H421.906C421.756 75.1496 421.606 74.9997 421.606 74.8497V29.9998C421.606 29.8498 421.756 29.6997 421.906 29.6997Z" fill="#CECECA"/>
<path d="M443.056 52.0497H441.406V50.3996H443.056C443.656 50.3996 444.256 49.7999 444.256 49.1999V43.0497C444.256 42.4497 443.656 41.8497 443.056 41.8497H441.406V40.1997H443.056C444.706 40.1997 445.906 41.5497 445.906 43.0497V49.1999C445.906 50.6999 444.556 52.0497 443.056 52.0497Z" fill="#CECECA"/>
<path d="M436.756 38.3999C434.806 38.9999 432.706 37.7998 432.106 35.8498C431.956 35.2498 431.956 34.4999 432.106 33.8999C432.406 32.6999 433.456 31.6498 434.656 31.3498C436.606 30.7498 438.706 31.9499 439.306 33.8999C439.456 34.4999 439.456 35.2498 439.306 35.8498C439.006 37.0498 438.106 38.0999 436.756 38.3999ZM436.306 32.8498C435.256 32.5498 434.206 33.1498 433.906 34.3498C433.606 35.3998 434.206 36.45 435.406 36.75C436.456 37.05 437.506 36.45 437.806 35.25C437.956 34.95 437.956 34.6499 437.806 34.1999C437.506 33.5999 437.056 32.9998 436.306 32.8498Z" fill="#CECECA"/>
<path d="M441.107 54.5995H430.907C430.457 54.5995 430.006 54.1497 430.006 53.6997V38.6995C430.006 38.2495 430.457 37.7996 430.907 37.7996H441.107C441.557 37.7996 442.006 38.2495 442.006 38.6995V53.6997C442.006 54.1497 441.707 54.5995 441.107 54.5995ZM431.806 52.7996H440.206V39.5995H431.806V52.7996Z" fill="#CECECA"/>
<path d="M439.156 53.6997H440.056C440.356 53.6997 440.506 53.8494 440.506 54.1494V74.6997C440.506 74.9997 440.356 75.1494 440.056 75.1494H439.156C438.856 75.1494 438.706 74.9997 438.706 74.6997V54.1494C438.856 53.9994 439.006 53.6997 439.156 53.6997Z" fill="#CECECA"/>
<path d="M432.406 53.6997H433.306C433.606 53.6997 433.756 53.8494 433.756 54.1494V74.6997C433.756 74.9997 433.606 75.1494 433.306 75.1494H432.406C432.106 75.1494 431.956 74.9997 431.956 74.6997V54.1494C431.956 53.9994 432.106 53.6997 432.406 53.6997Z" fill="#CECECA"/>
<path d="M426.106 44.6996C425.806 44.6996 425.506 44.5497 425.356 44.2497L421.606 38.2497C421.456 38.0997 421.606 37.9496 421.756 37.7996L422.656 37.1996C422.806 37.0496 422.956 37.1996 423.106 37.3496L426.406 42.7497C426.406 42.8997 426.556 42.8997 426.706 42.8997L436.906 42.1497C437.056 42.1497 437.206 42.2996 437.206 42.4496V43.4997C437.206 43.6497 437.056 43.7996 436.906 43.7996L426.106 44.6996Z" fill="#CECECA"/>
<path d="M880.306 65.3994C878.206 66.8994 875.356 67.0495 873.106 65.8495C870.706 64.4995 867.706 64.6495 865.306 65.8495C864.256 66.2995 863.056 66.5995 861.856 66.5995C860.806 66.5995 859.906 66.2995 859.006 65.8495C856.306 64.3495 853.006 64.6495 850.456 66.2995C850.156 66.4495 850.906 67.7994 851.206 67.6494C853.306 66.1494 856.156 65.9997 858.406 67.1997C859.456 67.7997 860.656 68.0995 861.856 68.0995C862.006 68.0995 862.006 68.0995 862.156 68.0995C863.506 68.0995 864.856 67.7995 866.206 67.0495C867.256 66.5995 868.456 66.2995 869.656 66.2995C870.706 66.2995 871.606 66.5995 872.506 67.0495C873.406 67.4995 874.456 67.7997 875.506 67.9497C875.806 67.9497 875.956 67.9497 876.256 67.9497C877.906 67.9497 879.556 67.3495 881.056 66.5995C881.356 66.4495 880.606 65.2494 880.306 65.3994Z" fill="#CECECA"/>
<path d="M917.506 65.3994C915.406 66.8994 912.556 67.0495 910.306 65.8495C907.906 64.4995 904.906 64.6495 902.506 65.8495C901.456 66.2995 900.256 66.5995 899.056 66.5995C898.006 66.5995 897.106 66.2995 896.206 65.8495C893.506 64.3495 890.206 64.6495 887.656 66.2995C887.356 66.4495 888.106 67.7994 888.406 67.6494C890.506 66.1494 893.356 65.9997 895.606 67.1997C896.656 67.7997 897.856 68.0995 899.056 68.0995C899.206 68.0995 899.206 68.0995 899.356 68.0995C900.706 68.0995 902.056 67.7995 903.406 67.0495C904.456 66.5995 905.656 66.2995 906.856 66.2995C907.906 66.2995 908.806 66.5995 909.706 67.0495C910.606 67.4995 911.656 67.7997 912.706 67.9497C913.006 67.9497 913.156 67.9497 913.456 67.9497C915.106 67.9497 916.756 67.3495 918.256 66.5995C918.556 66.4495 917.956 65.2494 917.506 65.3994Z" fill="#CECECA"/>
<path d="M954.706 65.3994C952.606 66.8994 949.756 67.0495 947.506 65.8495C945.106 64.4995 942.106 64.6495 939.706 65.8495C938.656 66.2995 937.456 66.5995 936.256 66.5995C935.206 66.5995 934.306 66.2995 933.406 65.8495C930.706 64.3495 927.406 64.6495 924.856 66.2995C924.556 66.4495 925.306 67.7994 925.606 67.6494C927.706 66.1494 930.556 65.9997 932.806 67.1997C933.856 67.7997 935.056 68.0995 936.256 68.0995C936.406 68.0995 936.406 68.0995 936.556 68.0995C937.906 68.0995 939.256 67.7995 940.606 67.0495C941.656 66.5995 942.856 66.2995 944.056 66.2995C945.106 66.2995 946.006 66.5995 946.906 67.0495C947.806 67.4995 948.856 67.7997 949.906 67.9497C950.206 67.9497 950.356 67.9497 950.656 67.9497C952.306 67.9497 953.956 67.3495 955.456 66.5995C955.906 66.4495 955.156 65.2494 954.706 65.3994Z" fill="#CECECA"/>
<path d="M838.156 73.2C839.506 73.8 840.856 74.0998 842.356 74.0998C842.506 74.0998 842.506 74.0998 842.656 74.0998C844.006 74.0998 845.356 73.7999 846.706 73.0498C847.756 72.5998 848.956 72.2998 850.156 72.2998C851.206 72.2998 852.106 72.5998 853.006 73.0498C853.906 73.4999 854.956 73.8 856.006 73.95C856.306 73.95 856.456 73.95 856.756 73.95C858.406 73.95 860.056 73.3498 861.556 72.5998C861.856 72.4498 861.106 71.0999 860.806 71.2499C858.706 72.7499 855.856 72.9 853.606 71.7C851.206 70.35 848.206 70.5 845.806 71.7C844.756 72.15 843.556 72.45 842.356 72.45C841.156 72.45 839.807 72.15 838.757 71.7" fill="#CECECA"/>
<path d="M898.156 71.3994C896.056 72.8994 893.206 73.0495 890.956 71.8495C888.556 70.4995 885.556 70.6495 883.156 71.8495C882.106 72.2995 880.906 72.5995 879.706 72.5995C878.656 72.5995 877.756 72.2995 876.856 71.8495C874.156 70.3495 870.856 70.6495 868.306 72.2995C868.006 72.4495 868.756 73.7994 869.056 73.6494C871.156 72.1494 874.006 71.9997 876.256 73.1997C877.306 73.7997 878.506 74.0995 879.706 74.0995C879.856 74.0995 879.856 74.0995 880.006 74.0995C881.356 74.0995 882.706 73.7995 884.056 73.0495C885.106 72.5995 886.306 72.2995 887.506 72.2995C888.556 72.2995 889.456 72.5995 890.356 73.0495C891.256 73.4995 892.306 73.7997 893.356 73.9497C893.656 73.9497 893.806 73.9497 894.106 73.9497C895.756 73.9497 897.406 73.3495 898.906 72.5995C899.206 72.4495 898.456 71.2494 898.156 71.3994Z" fill="#CECECA"/>
<path d="M935.356 71.3994C933.256 72.8994 930.406 73.0495 928.156 71.8495C925.756 70.4995 922.756 70.6495 920.356 71.8495C919.306 72.2995 918.106 72.5995 916.906 72.5995C915.856 72.5995 914.956 72.2995 914.056 71.8495C911.356 70.3495 908.056 70.6495 905.506 72.2995C905.206 72.4495 905.956 73.7994 906.256 73.6494C908.356 72.1494 911.206 71.9997 913.456 73.1997C914.506 73.7997 915.706 74.0995 916.906 74.0995C917.056 74.0995 917.056 74.0995 917.206 74.0995C918.556 74.0995 919.906 73.7995 921.256 73.0495C922.306 72.5995 923.506 72.2995 924.706 72.2995C925.756 72.2995 926.656 72.5995 927.556 73.0495C928.456 73.4995 929.506 73.7997 930.556 73.9497C930.856 73.9497 931.006 73.9497 931.306 73.9497C932.956 73.9497 934.606 73.3495 936.106 72.5995C936.556 72.4495 935.806 71.2494 935.356 71.3994Z" fill="#CECECA"/>
<path d="M972.706 71.3997C970.606 72.8997 967.756 73.0498 965.506 71.8498C963.106 70.4998 960.106 70.6498 957.706 71.8498C956.656 72.2998 955.456 72.5998 954.256 72.5998C953.206 72.5998 952.306 72.2998 951.406 71.8498C950.506 71.3998 949.456 71.1 948.406 70.95C946.456 70.8 944.506 71.2498 942.856 72.2998C942.556 72.4498 943.306 73.7997 943.606 73.6497C945.706 72.1497 948.556 72 950.806 73.2C951.856 73.8 953.056 74.0998 954.256 74.0998C954.406 74.0998 954.406 74.0998 954.556 74.0998C955.906 74.0998 957.256 73.7998 958.606 73.0498C959.656 72.5998 960.856 72.2998 962.056 72.2998C963.106 72.2998 964.006 72.5998 964.906 73.0498C965.806 73.4998 966.856 73.8 967.906 73.95C968.206 73.95 968.356 73.95 968.656 73.95C970.306 73.95 971.956 73.3498 973.456 72.5998C973.756 72.4498 973.006 71.2497 972.706 71.3997Z" fill="#CECECA"/>
<path d="M898.156 58.6495C896.056 60.1495 893.206 60.2996 890.956 59.0996C888.556 57.7496 885.556 57.8996 883.156 59.0996C882.106 59.5496 880.906 59.8496 879.706 59.8496C878.656 59.8496 877.756 59.5496 876.856 59.0996C874.156 57.5996 870.856 57.8996 868.306 59.5496C868.006 59.6996 868.756 61.0495 869.056 60.8995C871.156 59.3995 874.006 59.2498 876.256 60.4498C877.306 61.0498 878.506 61.3496 879.706 61.3496C879.856 61.3496 879.856 61.3496 880.006 61.3496C881.356 61.3496 882.706 61.0496 884.056 60.2996C885.106 59.8496 886.306 59.5496 887.506 59.5496C888.556 59.5496 889.456 59.8496 890.356 60.2996C891.256 60.7496 892.306 61.0498 893.356 61.1998C893.656 61.1998 893.806 61.1998 894.106 61.1998C895.756 61.1998 897.406 60.5996 898.906 59.8496C899.206 59.8496 898.456 58.4995 898.156 58.6495Z" fill="#CECECA"/>
<path d="M935.356 58.6494C933.256 60.1494 930.406 60.2995 928.156 59.0995C925.756 57.7495 922.756 57.8995 920.356 59.0995C919.306 59.5495 918.106 59.8495 916.906 59.8495C915.856 59.8495 914.956 59.5495 914.056 59.0995C911.356 57.5995 908.056 57.8995 905.506 59.5495C905.206 59.6995 905.956 61.0494 906.256 60.8994C908.356 59.3994 911.206 59.2497 913.456 60.4497C914.506 61.0497 915.706 61.3495 916.906 61.3495C917.056 61.3495 917.056 61.3495 917.206 61.3495C918.556 61.3495 919.906 61.0495 921.256 60.2995C922.306 59.8495 923.506 59.5495 924.706 59.5495C925.756 59.5495 926.656 59.8495 927.556 60.2995C928.456 60.7495 929.506 61.0497 930.556 61.1997C930.856 61.1997 931.006 61.1997 931.306 61.1997C932.956 61.1997 934.606 60.5995 936.106 59.8495C936.556 59.8495 935.806 58.4994 935.356 58.6494Z" fill="#CECECA"/>
<path d="M851.356 70.0497C851.356 70.0497 851.206 70.0497 851.056 70.0497C850.756 70.0497 850.306 69.7497 850.306 69.2997V52.0497H851.806V64.9499C854.056 59.3999 857.206 54.2996 861.106 49.6496C865.006 45.1496 869.506 41.2497 874.606 38.0997C897.406 24.1497 927.106 29.0996 944.206 49.6496C947.956 54.1496 950.956 59.0997 953.206 64.3497V51.1496H954.706V68.5497C954.706 68.9997 954.406 69.2997 953.956 69.2997C953.656 69.2997 953.356 69.1497 953.206 68.8497C951.106 62.2497 947.656 55.9499 943.156 50.6999C926.506 30.5999 897.706 25.7997 875.506 39.4497C870.556 42.4497 866.206 46.1999 862.456 50.6999C857.806 56.2499 854.206 62.5499 852.106 69.4499C851.956 69.8999 851.656 70.0497 851.356 70.0497Z" fill="#CECECA"/>
<path d="M850.606 69.2996C848.656 62.9996 845.506 57.1497 841.156 52.1997L842.356 51.2996C846.706 56.3996 850.006 62.3996 852.106 68.9996L850.606 69.2996Z" fill="#CECECA"/>
<path d="M954.556 68.9996L953.056 68.5496C954.856 62.2496 957.856 56.3996 962.056 51.2996L963.406 51.8994C959.506 56.9994 956.356 62.8496 954.556 68.9996Z" fill="#CECECA"/>
<path d="M824.656 50.6997H977.206C977.506 50.6997 977.656 50.8494 977.656 51.1494V51.7496C977.656 52.0496 977.506 52.1997 977.206 52.1997H824.656C824.356 52.1997 824.206 52.0496 824.206 51.7496V51.1494C824.206 50.8494 824.506 50.6997 824.656 50.6997Z" fill="#CECECA"/>
<path d="M876.406 38.6997H874.906V50.5497H876.406V38.6997Z" fill="#CECECA"/>
<path d="M885.406 34.1997H883.906V50.5497H885.406V34.1997Z" fill="#CECECA"/>
<path d="M893.506 32.0999H892.006V50.7001H893.506V32.0999Z" fill="#CECECA"/>
<path d="M902.506 30.5999H901.006V50.7001H902.506V30.5999Z" fill="#CECECA"/>
<path d="M910.006 31.3499H908.506V50.7001H910.006V31.3499Z" fill="#CECECA"/>
<path d="M919.606 33.4497H918.106V50.5497H919.606V33.4497Z" fill="#CECECA"/>
<path d="M928.606 37.1997H927.106V50.5497H928.606V37.1997Z" fill="#CECECA"/>
<path d="M935.956 41.6997H934.456V50.6999H935.956V41.6997Z" fill="#CECECA"/>
<path d="M868.906 43.9497H867.406V50.6999H868.906V43.9497Z" fill="#CECECA"/>
<path d="M79.6064 60.3L80.6564 59.3999C80.8064 59.2499 80.9564 59.2499 81.1064 59.3999L93.1064 73.5001C93.2564 73.6501 93.2564 73.8001 93.1064 73.9501L92.0564 74.8499C91.9064 74.9999 91.7564 74.9999 91.6064 74.8499L79.6064 60.7501C79.4564 60.6001 79.4564 60.3 79.6064 60.3Z" fill="#CECECA"/>
<path d="M79.3063 73.6499L91.3063 59.55C91.4563 59.4 91.6063 59.4 91.7563 59.55L92.8063 60.4501C92.9563 60.6001 92.9563 60.7499 92.8063 60.8999L80.8063 75.0001C80.6563 75.1501 80.5064 75.1501 80.3564 75.0001L79.3063 74.0999C79.1563 74.0999 79.1563 73.7999 79.3063 73.6499Z" fill="#CECECA"/>
<path d="M85.9065 47.0999H86.9564C87.2564 47.0999 87.4065 47.2499 87.4065 47.5499V53.7001C87.4065 54.0001 87.2564 54.1498 86.9564 54.1498H85.9065C85.6065 54.1498 85.4564 54.0001 85.4564 53.7001V47.5499C85.4564 47.2499 85.7565 47.0999 85.9065 47.0999Z" fill="#CECECA"/>
<path d="M79.9065 47.0999H80.9564C81.2564 47.0999 81.4065 47.2499 81.4065 47.5499V53.7001C81.4065 54.0001 81.2564 54.1498 80.9564 54.1498H79.9065C79.6065 54.1498 79.4564 54.0001 79.4564 53.7001V47.5499C79.4564 47.2499 79.6065 47.0999 79.9065 47.0999Z" fill="#CECECA"/>
<path d="M91.0064 47.0999H92.0564C92.3564 47.0999 92.5064 47.2499 92.5064 47.5499V53.7001C92.5064 54.0001 92.3564 54.1498 92.0564 54.1498H91.0064C90.7064 54.1498 90.5564 54.0001 90.5564 53.7001V47.5499C90.5564 47.2499 90.7064 47.0999 91.0064 47.0999Z" fill="#CECECA"/>
<path d="M69.7063 59.25H70.9064C71.0564 59.25 71.3564 59.4001 71.3564 59.7001V67.9501C71.3564 68.1001 71.2064 68.3998 70.9064 68.3998H69.7063C69.5563 68.3998 69.2563 68.2501 69.2563 67.9501V59.7001C69.2563 59.4001 69.4063 59.25 69.7063 59.25Z" fill="#CECECA"/>
<path d="M102.106 59.25H103.306C103.456 59.25 103.756 59.4001 103.756 59.7001V67.9501C103.756 68.1001 103.606 68.3998 103.306 68.3998H102.106C101.956 68.3998 101.656 68.2501 101.656 67.9501V59.7001C101.656 59.4001 101.806 59.25 102.106 59.25Z" fill="#CECECA"/>
<path d="M94.6064 58.2004H77.8064C77.5064 58.2004 77.3564 58.3501 77.3564 58.6501V59.8502C77.3564 60.1502 77.5064 60.3003 77.8064 60.3003H78.4065V74.8502C78.4065 75.0002 79.0065 75.4504 79.1565 75.4504H80.5064C80.6564 75.4504 80.3564 75.0002 80.3564 74.8502V60.9001C80.3564 60.6001 81.1065 60.3003 81.4065 60.3003H91.0064C91.3064 60.3003 91.4564 60.6001 91.4564 60.9001V74.8502C91.4564 75.0002 91.7565 75.4504 91.9065 75.4504H93.2564C93.4064 75.4504 93.5564 75.0002 93.5564 74.8502V60.3003H94.6064C94.9064 60.3003 94.6064 60.1502 94.6064 59.8502V58.6501C94.6064 58.5001 94.7564 58.2004 94.6064 58.2004Z" fill="#CECECA"/>
<path d="M53.0564 75.4503H51.1064V29.2502C51.1064 24.7502 54.7064 21.1501 59.2064 21.1501C63.7064 21.1501 67.3064 24.7502 67.3064 29.2502V49.0501H65.2064V29.2502C65.3564 25.9502 62.8064 23.1001 59.5064 22.8001C56.2064 22.6501 53.3564 25.2002 53.0564 28.5002C53.0564 28.6502 53.0564 28.95 53.0564 29.1V75.4503Z" fill="#CECECA"/>
<path d="M66.1064 27.9001H52.0063V30.0002H66.1064V27.9001Z" fill="#CECECA"/>
<path d="M111.106 51.1501H112.456C112.606 51.1501 112.756 51.3004 112.756 51.4504V75.0004C112.756 75.1504 112.606 75.3003 112.456 75.3003H111.106C110.956 75.3003 110.806 75.1504 110.806 75.0004V51.4504C110.806 51.3004 110.956 51.1501 111.106 51.1501Z" fill="#CECECA"/>
<path d="M61.6064 52.2004H62.9564C63.1064 52.2004 63.2564 52.3504 63.2564 52.5004V75.0004C63.2564 75.1504 63.1064 75.3003 62.9564 75.3003H61.6064C61.4564 75.3003 61.3064 75.1504 61.3064 75.0004V52.5004C61.1564 52.3504 61.3064 52.2004 61.6064 52.2004Z" fill="#CECECA"/>
<path d="M57.1064 55.0502L56.6564 54.15C56.5064 53.85 56.6563 53.5502 56.8063 53.5502L86.5063 36.9002C86.8063 36.7502 87.2563 36.7502 87.5563 36.9002L117.256 53.2503C117.556 53.4003 117.556 53.7001 117.406 53.8501L116.956 54.7503C116.806 55.0503 116.506 55.05 116.356 54.9L87.4064 38.8501C87.2564 38.7001 87.1063 38.7001 86.9563 38.8501L58.0063 55.0502C57.5563 55.3502 57.2564 55.3502 57.1064 55.0502Z" fill="#CECECA"/>
</svg>
